<?xml version="1.0" encoding="UTF-8" standalone="no"?>
<!DOCTYPE svg PUBLIC "-//W3C//DTD SVG 1.1//EN" "http://www.w3.org/Graphics/SVG/1.1/DTD/svg11.dtd">
<svg xmlns="http://www.w3.org/2000/svg" xmlns:xlink="http://www.w3.org/1999/xlink" version="1.1" width="540pt" height="360pt" viewBox="0 0 540 360">
<g enable-background="new">
<g>
<path d="M 0 0 L 540 0 L 540 360 L 0 360 Z " fill="#ffffff"/>
<text xml:space="preserve" transform="matrix(1 0 0 1 0 0)" font-size="12" font-family="ArialMT"><tspan y="40.320314" x="234.19922 241.51923">F2</tspan></text>
<text xml:space="preserve" transform="matrix(0 -1 1 0 0 0)" font-size="12" font-family="ArialMT"><tspan y="522.71878" x="-215.80078 -208.48078">F1</tspan></text>
<path stroke-width=".75" stroke-linecap="round" stroke-linejoin="round" fill="none" stroke="#000000" d="M 468 72 L 14.398 72 "/>
<path stroke-width=".75" stroke-linecap="round" stroke-linejoin="round" fill="none" stroke="#000000" d="M 468 72 L 468 64.801 "/>
<path stroke-width=".75" stroke-linecap="round" stroke-linejoin="round" fill="none" stroke="#000000" d="M 422.641 72 L 422.641 64.801 "/>
<path stroke-width=".75" stroke-linecap="round" stroke-linejoin="round" fill="none" stroke="#000000" d="M 377.281 72 L 377.281 64.801 "/>
<path stroke-width=".75" stroke-linecap="round" stroke-linejoin="round" fill="none" stroke="#000000" d="M 331.922 72 L 331.922 64.801 "/>
<path stroke-width=".75" stroke-linecap="round" stroke-linejoin="round" fill="none" stroke="#000000" d="M 286.559 72 L 286.559 64.801 "/>
<path stroke-width=".75" stroke-linecap="round" stroke-linejoin="round" fill="none" stroke="#000000" d="M 241.199 72 L 241.199 64.801 "/>
<path stroke-width=".75" stroke-linecap="round" stroke-linejoin="round" fill="none" stroke="#000000" d="M 195.84 72 L 195.84 64.801 "/>
<path stroke-width=".75" stroke-linecap="round" stroke-linejoin="round" fill="none" stroke="#000000" d="M 150.48 72 L 150.48 64.801 "/>
<path stroke-width=".75" stroke-linecap="round" stroke-linejoin="round" fill="none" stroke="#000000" d="M 105.121 72 L 105.121 64.801 "/>
<path stroke-width=".75" stroke-linecap="round" stroke-linejoin="round" fill="none" stroke="#000000" d="M 59.762 72 L 59.762 64.801 "/>
<path stroke-width=".75" stroke-linecap="round" stroke-linejoin="round" fill="none" stroke="#000000" d="M 14.398 72 L 14.398 64.801 "/>
<text xml:space="preserve" transform="matrix(1 0 0 1 0 0)" font-size="12" font-family="ArialMT"><tspan y="54.71875" x="1.050781 7.722782 14.394783 21.066784 46.410787 53.082788 59.754789 66.42679 91.75879 98.430789 105.10278 111.77478 137.10678 143.77878 150.45078 157.12277 182.46677 189.13877 195.81076 202.48276 227.81476 234.48676 241.15876 247.83075 273.16276 279.83476 286.50675 293.17875 318.57423 325.24623 331.9182 338.5902 363.9222 370.5942 377.2662 383.9382 409.2822 415.9542 422.6262 429.2982 457.9662 464.63819 471.31019">2800260024002200200018001600140012001000800</tspan></text>
<path stroke-width=".75" stroke-linecap="round" stroke-linejoin="round" fill="none" stroke="#000000" d="M 468 72 L 468 345.602 "/>
<path stroke-width=".75" stroke-linecap="round" stroke-linejoin="round" fill="none" stroke="#000000" d="M 468 72 L 475.199 72 "/>
<path stroke-width=".75" stroke-linecap="round" stroke-linejoin="round" fill="none" stroke="#000000" d="M 468 102.398 L 475.199 102.398 "/>
<path stroke-width=".75" stroke-linecap="round" stroke-linejoin="round" fill="none" stroke="#000000" d="M 468 132.801 L 475.199 132.801 "/>
<path stroke-width=".75" stroke-linecap="round" stroke-linejoin="round" fill="none" stroke="#000000" d="M 468 163.199 L 475.199 163.199 "/>
<path stroke-width=".75" stroke-linecap="round" stroke-linejoin="round" fill="none" stroke="#000000" d="M 468 193.602 L 475.199 193.602 "/>
<path stroke-width=".75" stroke-linecap="round" stroke-linejoin="round" fill="none" stroke="#000000" d="M 468 224 L 475.199 224 "/>
<path stroke-width=".75" stroke-linecap="round" stroke-linejoin="round" fill="none" stroke="#000000" d="M 468 254.398 L 475.199 254.398 "/>
<path stroke-width=".75" stroke-linecap="round" stroke-linejoin="round" fill="none" stroke="#000000" d="M 468 284.801 L 475.199 284.801 "/>
<path stroke-width=".75" stroke-linecap="round" stroke-linejoin="round" fill="none" stroke="#000000" d="M 468 315.199 L 475.199 315.199 "/>
<path stroke-width=".75" stroke-linecap="round" stroke-linejoin="round" fill="none" stroke="#000000" d="M 468 345.602 L 475.199 345.602 "/>
<text xml:space="preserve" transform="matrix(1 0 0 1 0 0)" font-size="12" font-family="ArialMT"><tspan y="349.89454" x="482.39845 489.07044 495.74244">750</tspan><tspan y="319.4961" x="482.39845 489.07044 495.74244">700</tspan><tspan y="289.09376" x="482.39845 489.07044 495.74244">650</tspan><tspan y="258.6953" x="482.39845 489.07044 495.74244">600</tspan><tspan y="228.29688" x="482.39845 489.07044 495.74244">550</tspan><tspan y="197.89453" x="482.39845 489.07044 495.74244">500</tspan><tspan y="167.4961" x="482.39845 489.07044 495.74244">450</tspan><tspan y="137.09375" x="482.39845 489.07044 495.74244">400</tspan><tspan y="106.69531" x="482.39845 489.07044 495.74244">350</tspan><tspan y="76.296878" x="482.39845 489.07044 495.74244">300</tspan></text>
<path stroke-width=".75" stroke-linecap="round" stroke-linejoin="round" fill="none" stroke="#00a698" d="M 151.262 122.484 L 253.469 218.746 "/>
<path stroke-width=".75" stroke-linecap="round" stroke-linejoin="round" fill="none" stroke="#00a698" d="M 265.188 226.828 L 316.289 251.625 "/>
<path stroke-width=".75" stroke-linecap="round" stroke-linejoin="round" fill="none" stroke="#00a698" d="M 323.629 247.621 L 336.891 137.836 "/>
<path stroke-width=".75" stroke-linecap="round" stroke-dasharray="3,3" stroke-linejoin="round" fill="none" stroke="#b61a51" d="M 175.563 106.609 L 295.328 209.625 "/>
<path stroke-width=".75" stroke-linecap="round" stroke-dasharray="3,3" stroke-linejoin="round" fill="none" stroke="#b61a51" d="M 295.867 209.063 L 264.492 175.547 "/>
<path stroke-width=".75" stroke-linecap="round" stroke-dasharray="3,3" stroke-linejoin="round" fill="none" stroke="#b61a51" d="M 266.262 167.637 L 308.676 150.793 "/>
<text fill="#00a698" xml:space="preserve" transform="matrix(1 0 0 1 0 0)" font-size="24" font-family="ArialMT"><tspan y="126.13672" x="143.35547">i</tspan><tspan y="136.76953" x="331.08204">u</tspan><tspan y="229.90625" x="252.03516">e</tspan><tspan y="260.9922" x="316.09376">a</tspan></text>
<text fill="#b61a51" xml:space="preserve" transform="matrix(1 0 0 1 0 0)" font-size="24" font-family="ArialMT"><tspan y="110.50391" x="167.4375">i</tspan><tspan y="154.21485" x="308.6953">u</tspan><tspan y="220.53907" x="294.1172">e</tspan><tspan y="176.51563" x="252.89844">a</tspan></text>
<path stroke-width=".75" stroke-linecap="round" stroke-linejoin="round" fill="none" stroke="#00a698" d="M 434.328 316.801 L 445.125 316.801 "/>
<path stroke-width=".75" stroke-linecap="round" stroke-dasharray="3,3" stroke-linejoin="round" fill="none" stroke="#b61a51" d="M 434.328 331.199 L 445.125 331.199 "/>
<text xml:space="preserve" transform="matrix(1 0 0 1 0 0)" font-size="12" font-family="ArialMT"><tspan y="321.09376" x="455.92579">1</tspan><tspan y="335.4961" x="455.92579">2</tspan></text>
</g>
</g>
</svg>
