<?xml version="1.0" encoding="UTF-8" standalone="no"?>
<!DOCTYPE svg PUBLIC "-//W3C//DTD SVG 1.1//EN" "http://www.w3.org/Graphics/SVG/1.1/DTD/svg11.dtd">
<svg xmlns="http://www.w3.org/2000/svg" xmlns:xlink="http://www.w3.org/1999/xlink" version="1.1" width="288pt" height="216pt" viewBox="0 0 288 216">
<g enable-background="new">
<g>
<path d="M 0 0 L 288 0 L 288 216 L 0 216 Z " fill="#ffffff"/>
<path d="M 0 0 L 288 0 L 288 216 L 0 216 Z " fill="#ffffff"/>
<path stroke-width="1.066978" stroke-linecap="round" stroke-linejoin="round" fill="none" stroke="#ffffff" d="M 0 0 L 288 0 L 288 216 L 0 216 Z "/>
<clipPath id="cp0">
<path d="M 33.684 5.48 L 282.524 5.48 L 282.524 181.78099 L 33.684 181.78099 Z "/>
</clipPath>
<g clip-path="url(#cp0)">
<path d="M 33.684 5.477 L 282.524 5.477 L 282.524 181.778 L 33.684 181.778 Z " fill="#ffffff"/>
<path d="M 81.227 131.25 C 81.227 132.434 79.453 132.434 79.453 131.25 C 79.453 130.066 81.227 130.066 81.227 131.25 " fill="#253494"/>
<path stroke-width=".708661" stroke-linecap="round" stroke-linejoin="round" fill="none" stroke="#253494" d="M 81.227 131.25 C 81.227 132.434 79.453 132.434 79.453 131.25 C 79.453 130.066 81.227 130.066 81.227 131.25 "/>
<path d="M 81.227 103.469 C 81.227 104.652 79.453 104.652 79.453 103.469 C 79.453 102.285 81.227 102.285 81.227 103.469 " fill="#253494"/>
<path stroke-width=".708661" stroke-linecap="round" stroke-linejoin="round" fill="none" stroke="#253494" d="M 81.227 103.469 C 81.227 104.652 79.453 104.652 79.453 103.469 C 79.453 102.285 81.227 102.285 81.227 103.469 "/>
<path stroke-width="1.066978" stroke-linecap="butt" stroke-linejoin="round" fill="none" stroke="#253494" d="M 80.34 55.816 L 80.34 38.629 "/>
<path stroke-width="1.066978" stroke-linecap="butt" stroke-linejoin="round" fill="none" stroke="#253494" d="M 80.34 74.695 L 80.34 99.074 "/>
<path d="M 60.898 55.816 L 99.781 55.816 L 99.781 74.695 L 60.898 74.695 Z " fill="#ffffff"/>
<path stroke-width="1.066978" stroke-linecap="round" stroke-linejoin="round" fill="none" stroke="#253494" d="M 60.898 55.816 L 99.781 55.816 L 99.781 74.695 L 60.898 74.695 Z "/>
<path stroke-width="2.133957" stroke-linecap="butt" stroke-linejoin="round" fill="none" stroke="#253494" d="M 60.898 62.84 L 99.781 62.84 "/>
<path stroke-width="1.066978" stroke-linecap="butt" stroke-linejoin="round" fill="none" stroke="#2c7fb8" d="M 158.102 86.082 L 158.102 67.156 "/>
<path stroke-width="1.066978" stroke-linecap="butt" stroke-linejoin="round" fill="none" stroke="#2c7fb8" d="M 158.102 105.668 L 158.102 121.887 "/>
<path d="M 138.66 86.082 L 177.543 86.082 L 177.543 105.668 L 138.66 105.668 Z " fill="#ffffff"/>
<path stroke-width="1.066978" stroke-linecap="round" stroke-linejoin="round" fill="none" stroke="#2c7fb8" d="M 138.66 86.082 L 177.543 86.082 L 177.543 105.668 L 138.66 105.668 Z "/>
<path stroke-width="2.133957" stroke-linecap="butt" stroke-linejoin="round" fill="none" stroke="#2c7fb8" d="M 138.66 101.352 L 177.543 101.352 "/>
<path stroke-width="1.066978" stroke-linecap="butt" stroke-linejoin="round" fill="none" stroke="#41b6c4" d="M 235.863 83.824 L 235.863 65.066 "/>
<path stroke-width="1.066978" stroke-linecap="butt" stroke-linejoin="round" fill="none" stroke="#41b6c4" d="M 235.863 117.465 L 235.863 147.625 "/>
<path d="M 216.422 83.824 L 255.305 83.824 L 255.305 117.465 L 216.422 117.465 Z " fill="#ffffff"/>
<path stroke-width="1.066978" stroke-linecap="round" stroke-linejoin="round" fill="none" stroke="#41b6c4" d="M 216.422 83.824 L 255.305 83.824 L 255.305 117.465 L 216.422 117.465 Z "/>
<path stroke-width="2.133957" stroke-linecap="butt" stroke-linejoin="round" fill="none" stroke="#41b6c4" d="M 216.422 107.336 L 255.305 107.336 "/>
<path d="M 76.844 48.684 C 76.844 49.867 75.066 49.867 75.066 48.684 C 75.066 47.5 76.844 47.5 76.844 48.684 " fill="#253494"/>
<path stroke-width=".708661" stroke-linecap="round" stroke-linejoin="round" fill="none" stroke="#253494" d="M 76.844 48.684 C 76.844 49.867 75.066 49.867 75.066 48.684 C 75.066 47.5 76.844 47.5 76.844 48.684 "/>
<path d="M 62.84 61.441 C 62.84 62.625 61.063 62.625 61.063 61.441 C 61.063 60.258 62.84 60.258 62.84 61.441 " fill="#253494"/>
<path stroke-width=".708661" stroke-linecap="round" stroke-linejoin="round" fill="none" stroke="#253494" d="M 62.84 61.441 C 62.84 62.625 61.063 62.625 61.063 61.441 C 61.063 60.258 62.84 60.258 62.84 61.441 "/>
<path d="M 81.227 49.781 C 81.227 50.965 79.453 50.965 79.453 49.781 C 79.453 48.598 81.227 48.598 81.227 49.781 " fill="#253494"/>
<path stroke-width=".708661" stroke-linecap="round" stroke-linejoin="round" fill="none" stroke="#253494" d="M 81.227 49.781 C 81.227 50.965 79.453 50.965 79.453 49.781 C 79.453 48.598 81.227 48.598 81.227 49.781 "/>
<path d="M 72.09 60.598 C 72.09 61.781 70.313 61.781 70.313 60.598 C 70.313 59.414 72.09 59.414 72.09 60.598 " fill="#253494"/>
<path stroke-width=".708661" stroke-linecap="round" stroke-linejoin="round" fill="none" stroke="#253494" d="M 72.09 60.598 C 72.09 61.781 70.313 61.781 70.313 60.598 C 70.313 59.414 72.09 59.414 72.09 60.598 "/>
<path d="M 81.227 131.25 C 81.227 132.434 79.453 132.434 79.453 131.25 C 79.453 130.066 81.227 130.066 81.227 131.25 " fill="#253494"/>
<path stroke-width=".708661" stroke-linecap="round" stroke-linejoin="round" fill="none" stroke="#253494" d="M 81.227 131.25 C 81.227 132.434 79.453 132.434 79.453 131.25 C 79.453 130.066 81.227 130.066 81.227 131.25 "/>
<path d="M 72.18 48.598 C 72.18 49.781 70.402 49.781 70.402 48.598 C 70.402 47.414 72.18 47.414 72.18 48.598 " fill="#253494"/>
<path stroke-width=".708661" stroke-linecap="round" stroke-linejoin="round" fill="none" stroke="#253494" d="M 72.18 48.598 C 72.18 49.781 70.402 49.781 70.402 48.598 C 70.402 47.414 72.18 47.414 72.18 48.598 "/>
<path d="M 71.191 52.297 C 71.191 53.48 69.414 53.48 69.414 52.297 C 69.414 51.113 71.191 51.113 71.191 52.297 " fill="#253494"/>
<path stroke-width=".708661" stroke-linecap="round" stroke-linejoin="round" fill="none" stroke="#253494" d="M 71.191 52.297 C 71.191 53.48 69.414 53.48 69.414 52.297 C 69.414 51.113 71.191 51.113 71.191 52.297 "/>
<path d="M 84.914 71.984 C 84.914 73.168 83.137 73.168 83.137 71.984 C 83.137 70.801 84.914 70.801 84.914 71.984 " fill="#253494"/>
<path stroke-width=".708661" stroke-linecap="round" stroke-linejoin="round" fill="none" stroke="#253494" d="M 84.914 71.984 C 84.914 73.168 83.137 73.168 83.137 71.984 C 83.137 70.801 84.914 70.801 84.914 71.984 "/>
<path d="M 85.352 67.891 C 85.352 69.074 83.578 69.074 83.578 67.891 C 83.578 66.707 85.352 66.707 85.352 67.891 " fill="#253494"/>
<path stroke-width=".708661" stroke-linecap="round" stroke-linejoin="round" fill="none" stroke="#253494" d="M 85.352 67.891 C 85.352 69.074 83.578 69.074 83.578 67.891 C 83.578 66.707 85.352 66.707 85.352 67.891 "/>
<path d="M 73.223 83.059 C 73.223 84.242 71.445 84.242 71.445 83.059 C 71.445 81.875 73.223 81.875 73.223 83.059 " fill="#253494"/>
<path stroke-width=".708661" stroke-linecap="round" stroke-linejoin="round" fill="none" stroke="#253494" d="M 73.223 83.059 C 73.223 84.242 71.445 84.242 71.445 83.059 C 71.445 81.875 73.223 81.875 73.223 83.059 "/>
<path d="M 81.227 56.41 C 81.227 57.594 79.453 57.594 79.453 56.41 C 79.453 55.227 81.227 55.227 81.227 56.41 " fill="#253494"/>
<path stroke-width=".708661" stroke-linecap="round" stroke-linejoin="round" fill="none" stroke="#253494" d="M 81.227 56.41 C 81.227 57.594 79.453 57.594 79.453 56.41 C 79.453 55.227 81.227 55.227 81.227 56.41 "/>
<path d="M 96.637 51.59 C 96.637 52.773 94.863 52.773 94.863 51.59 C 94.863 50.406 96.637 50.406 96.637 51.59 " fill="#253494"/>
<path stroke-width=".708661" stroke-linecap="round" stroke-linejoin="round" fill="none" stroke="#253494" d="M 96.637 51.59 C 96.637 52.773 94.863 52.773 94.863 51.59 C 94.863 50.406 96.637 50.406 96.637 51.59 "/>
<path d="M 78.645 72.688 C 78.645 73.871 76.871 73.871 76.871 72.688 C 76.871 71.504 78.645 71.504 78.645 72.688 " fill="#253494"/>
<path stroke-width=".708661" stroke-linecap="round" stroke-linejoin="round" fill="none" stroke="#253494" d="M 78.645 72.688 C 78.645 73.871 76.871 73.871 76.871 72.688 C 76.871 71.504 78.645 71.504 78.645 72.688 "/>
<path d="M 81.227 45.969 C 81.227 47.152 79.453 47.152 79.453 45.969 C 79.453 44.785 81.227 44.785 81.227 45.969 " fill="#253494"/>
<path stroke-width=".708661" stroke-linecap="round" stroke-linejoin="round" fill="none" stroke="#253494" d="M 81.227 45.969 C 81.227 47.152 79.453 47.152 79.453 45.969 C 79.453 44.785 81.227 44.785 81.227 45.969 "/>
<path d="M 85.773 84.914 C 85.773 86.098 83.996 86.098 83.996 84.914 C 83.996 83.73 85.773 83.73 85.773 84.914 " fill="#253494"/>
<path stroke-width=".708661" stroke-linecap="round" stroke-linejoin="round" fill="none" stroke="#253494" d="M 85.773 84.914 C 85.773 86.098 83.996 86.098 83.996 84.914 C 83.996 83.73 85.773 83.73 85.773 84.914 "/>
<path d="M 69.621 74.023 C 69.621 75.207 67.848 75.207 67.848 74.023 C 67.848 72.84 69.621 72.84 69.621 74.023 " fill="#253494"/>
<path stroke-width=".708661" stroke-linecap="round" stroke-linejoin="round" fill="none" stroke="#253494" d="M 69.621 74.023 C 69.621 75.207 67.848 75.207 67.848 74.023 C 67.848 72.84 69.621 72.84 69.621 74.023 "/>
<path d="M 99.383 61.125 C 99.383 62.309 97.609 62.309 97.609 61.125 C 97.609 59.941 99.383 59.941 99.383 61.125 " fill="#253494"/>
<path stroke-width=".708661" stroke-linecap="round" stroke-linejoin="round" fill="none" stroke="#253494" d="M 99.383 61.125 C 99.383 62.309 97.609 62.309 97.609 61.125 C 97.609 59.941 99.383 59.941 99.383 61.125 "/>
<path d="M 66.527 52.195 C 66.527 53.379 64.754 53.379 64.754 52.195 C 64.754 51.012 66.527 51.012 66.527 52.195 " fill="#253494"/>
<path stroke-width=".708661" stroke-linecap="round" stroke-linejoin="round" fill="none" stroke="#253494" d="M 66.527 52.195 C 66.527 53.379 64.754 53.379 64.754 52.195 C 64.754 51.012 66.527 51.012 66.527 52.195 "/>
<path d="M 89.848 68.754 C 89.848 69.938 88.07 69.938 88.07 68.754 C 88.07 67.57 89.848 67.57 89.848 68.754 " fill="#253494"/>
<path stroke-width=".708661" stroke-linecap="round" stroke-linejoin="round" fill="none" stroke="#253494" d="M 89.848 68.754 C 89.848 69.938 88.07 69.938 88.07 68.754 C 88.07 67.57 89.848 67.57 89.848 68.754 "/>
<path d="M 87.988 63.43 C 87.988 64.613 86.215 64.613 86.215 63.43 C 86.215 62.246 87.988 62.246 87.988 63.43 " fill="#253494"/>
<path stroke-width=".708661" stroke-linecap="round" stroke-linejoin="round" fill="none" stroke="#253494" d="M 87.988 63.43 C 87.988 64.613 86.215 64.613 86.215 63.43 C 86.215 62.246 87.988 62.246 87.988 63.43 "/>
<path d="M 96.977 58.238 C 96.977 59.422 95.199 59.422 95.199 58.238 C 95.199 57.051 96.977 57.051 96.977 58.238 " fill="#253494"/>
<path stroke-width=".708661" stroke-linecap="round" stroke-linejoin="round" fill="none" stroke="#253494" d="M 96.977 58.238 C 96.977 59.422 95.199 59.422 95.199 58.238 C 95.199 57.051 96.977 57.051 96.977 58.238 "/>
<path d="M 80.68 91.035 C 80.68 92.219 78.906 92.219 78.906 91.035 C 78.906 89.852 80.68 89.852 80.68 91.035 " fill="#253494"/>
<path stroke-width=".708661" stroke-linecap="round" stroke-linejoin="round" fill="none" stroke="#253494" d="M 80.68 91.035 C 80.68 92.219 78.906 92.219 78.906 91.035 C 78.906 89.852 80.68 89.852 80.68 91.035 "/>
<path d="M 85.68 38.629 C 85.68 39.813 83.902 39.813 83.902 38.629 C 83.902 37.445 85.68 37.445 85.68 38.629 " fill="#253494"/>
<path stroke-width=".708661" stroke-linecap="round" stroke-linejoin="round" fill="none" stroke="#253494" d="M 85.68 38.629 C 85.68 39.813 83.902 39.813 83.902 38.629 C 83.902 37.445 85.68 37.445 85.68 38.629 "/>
<path d="M 91.918 65.16 C 91.918 66.344 90.141 66.344 90.141 65.16 C 90.141 63.977 91.918 63.977 91.918 65.16 " fill="#253494"/>
<path stroke-width=".708661" stroke-linecap="round" stroke-linejoin="round" fill="none" stroke="#253494" d="M 91.918 65.16 C 91.918 66.344 90.141 66.344 90.141 65.16 C 90.141 63.977 91.918 63.977 91.918 65.16 "/>
<path d="M 81.227 70.02 C 81.227 71.203 79.453 71.203 79.453 70.02 C 79.453 68.836 81.227 68.836 81.227 70.02 " fill="#253494"/>
<path stroke-width=".708661" stroke-linecap="round" stroke-linejoin="round" fill="none" stroke="#253494" d="M 81.227 70.02 C 81.227 71.203 79.453 71.203 79.453 70.02 C 79.453 68.836 81.227 68.836 81.227 70.02 "/>
<path d="M 85.27 81.574 C 85.27 82.758 83.496 82.758 83.496 81.574 C 83.496 80.391 85.27 80.391 85.27 81.574 " fill="#253494"/>
<path stroke-width=".708661" stroke-linecap="round" stroke-linejoin="round" fill="none" stroke="#253494" d="M 85.27 81.574 C 85.27 82.758 83.496 82.758 83.496 81.574 C 83.496 80.391 85.27 80.391 85.27 81.574 "/>
<path d="M 85.066 44.145 C 85.066 45.332 83.289 45.332 83.289 44.145 C 83.289 42.961 85.066 42.961 85.066 44.145 " fill="#253494"/>
<path stroke-width=".708661" stroke-linecap="round" stroke-linejoin="round" fill="none" stroke="#253494" d="M 85.066 44.145 C 85.066 45.332 83.289 45.332 83.289 44.145 C 83.289 42.961 85.066 42.961 85.066 44.145 "/>
<path d="M 112.355 63.801 C 112.355 64.984 110.578 64.984 110.578 63.801 C 110.578 62.617 112.355 62.617 112.355 63.801 " fill="#253494"/>
<path stroke-width=".708661" stroke-linecap="round" stroke-linejoin="round" fill="none" stroke="#253494" d="M 112.355 63.801 C 112.355 64.984 110.578 64.984 110.578 63.801 C 110.578 62.617 112.355 62.617 112.355 63.801 "/>
<path d="M 85.441 76.746 C 85.441 77.93 83.668 77.93 83.668 76.746 C 83.668 75.563 85.441 75.563 85.441 76.746 " fill="#253494"/>
<path stroke-width=".708661" stroke-linecap="round" stroke-linejoin="round" fill="none" stroke="#253494" d="M 85.441 76.746 C 85.441 77.93 83.668 77.93 83.668 76.746 C 83.668 75.563 85.441 75.563 85.441 76.746 "/>
<path d="M 77.637 82.023 C 77.637 83.207 75.859 83.207 75.859 82.023 C 75.859 80.84 77.637 80.84 77.637 82.023 " fill="#253494"/>
<path stroke-width=".708661" stroke-linecap="round" stroke-linejoin="round" fill="none" stroke="#253494" d="M 77.637 82.023 C 77.637 83.207 75.859 83.207 75.859 82.023 C 75.859 80.84 77.637 80.84 77.637 82.023 "/>
<path d="M 81.227 53.082 C 81.227 54.266 79.453 54.266 79.453 53.082 C 79.453 51.898 81.227 51.898 81.227 53.082 " fill="#253494"/>
<path stroke-width=".708661" stroke-linecap="round" stroke-linejoin="round" fill="none" stroke="#253494" d="M 81.227 53.082 C 81.227 54.266 79.453 54.266 79.453 53.082 C 79.453 51.898 81.227 51.898 81.227 53.082 "/>
<path d="M 73.988 72.895 C 73.988 74.078 72.215 74.078 72.215 72.895 C 72.215 71.711 73.988 71.711 73.988 72.895 " fill="#253494"/>
<path stroke-width=".708661" stroke-linecap="round" stroke-linejoin="round" fill="none" stroke="#253494" d="M 73.988 72.895 C 73.988 74.078 72.215 74.078 72.215 72.895 C 72.215 71.711 73.988 71.711 73.988 72.895 "/>
<path d="M 81.227 79.977 C 81.227 81.16 79.453 81.16 79.453 79.977 C 79.453 78.793 81.227 78.793 81.227 79.977 " fill="#253494"/>
<path stroke-width=".708661" stroke-linecap="round" stroke-linejoin="round" fill="none" stroke="#253494" d="M 81.227 79.977 C 81.227 81.16 79.453 81.16 79.453 79.977 C 79.453 78.793 81.227 78.793 81.227 79.977 "/>
<path d="M 85.883 59.809 C 85.883 60.992 84.109 60.992 84.109 59.809 C 84.109 58.625 85.883 58.625 85.883 59.809 " fill="#253494"/>
<path stroke-width=".708661" stroke-linecap="round" stroke-linejoin="round" fill="none" stroke="#253494" d="M 85.883 59.809 C 85.883 60.992 84.109 60.992 84.109 59.809 C 84.109 58.625 85.883 58.625 85.883 59.809 "/>
<path d="M 67.477 61.078 C 67.477 62.262 65.699 62.262 65.699 61.078 C 65.699 59.895 67.477 59.895 67.477 61.078 " fill="#253494"/>
<path stroke-width=".708661" stroke-linecap="round" stroke-linejoin="round" fill="none" stroke="#253494" d="M 67.477 61.078 C 67.477 62.262 65.699 62.262 65.699 61.078 C 65.699 59.895 67.477 59.895 67.477 61.078 "/>
<path d="M 81.742 65.859 C 81.742 67.043 79.969 67.043 79.969 65.859 C 79.969 64.676 81.742 64.676 81.742 65.859 " fill="#253494"/>
<path stroke-width=".708661" stroke-linecap="round" stroke-linejoin="round" fill="none" stroke="#253494" d="M 81.742 65.859 C 81.742 67.043 79.969 67.043 79.969 65.859 C 79.969 64.676 81.742 64.676 81.742 65.859 "/>
<path d="M 76.578 59.727 C 76.578 60.91 74.805 60.91 74.805 59.727 C 74.805 58.543 76.578 58.543 76.578 59.727 " fill="#253494"/>
<path stroke-width=".708661" stroke-linecap="round" stroke-linejoin="round" fill="none" stroke="#253494" d="M 76.578 59.727 C 76.578 60.91 74.805 60.91 74.805 59.727 C 74.805 58.543 76.578 58.543 76.578 59.727 "/>
<path d="M 81.227 60.004 C 81.227 61.188 79.453 61.188 79.453 60.004 C 79.453 58.82 81.227 58.82 81.227 60.004 " fill="#253494"/>
<path stroke-width=".708661" stroke-linecap="round" stroke-linejoin="round" fill="none" stroke="#253494" d="M 81.227 60.004 C 81.227 61.188 79.453 61.188 79.453 60.004 C 79.453 58.82 81.227 58.82 81.227 60.004 "/>
<path d="M 103.965 61.73 C 103.965 62.914 102.191 62.914 102.191 61.73 C 102.191 60.547 103.965 60.547 103.965 61.73 " fill="#253494"/>
<path stroke-width=".708661" stroke-linecap="round" stroke-linejoin="round" fill="none" stroke="#253494" d="M 103.965 61.73 C 103.965 62.914 102.191 62.914 102.191 61.73 C 102.191 60.547 103.965 60.547 103.965 61.73 "/>
<path d="M 82.93 88.227 C 82.93 89.41 81.152 89.41 81.152 88.227 C 81.152 87.043 82.93 87.043 82.93 88.227 " fill="#253494"/>
<path stroke-width=".708661" stroke-linecap="round" stroke-linejoin="round" fill="none" stroke="#253494" d="M 82.93 88.227 C 82.93 89.41 81.152 89.41 81.152 88.227 C 81.152 87.043 82.93 87.043 82.93 88.227 "/>
<path d="M 102.152 58.543 C 102.152 59.73 100.375 59.73 100.375 58.543 C 100.375 57.359 102.152 57.359 102.152 58.543 " fill="#253494"/>
<path stroke-width=".708661" stroke-linecap="round" stroke-linejoin="round" fill="none" stroke="#253494" d="M 102.152 58.543 C 102.152 59.73 100.375 59.73 100.375 58.543 C 100.375 57.359 102.152 57.359 102.152 58.543 "/>
<path d="M 81.227 75.371 C 81.227 76.555 79.453 76.555 79.453 75.371 C 79.453 74.188 81.227 74.188 81.227 75.371 " fill="#253494"/>
<path stroke-width=".708661" stroke-linecap="round" stroke-linejoin="round" fill="none" stroke="#253494" d="M 81.227 75.371 C 81.227 76.555 79.453 76.555 79.453 75.371 C 79.453 74.188 81.227 74.188 81.227 75.371 "/>
<path d="M 91.996 51.91 C 91.996 53.094 90.219 53.094 90.219 51.91 C 90.219 50.727 91.996 50.727 91.996 51.91 " fill="#253494"/>
<path stroke-width=".708661" stroke-linecap="round" stroke-linejoin="round" fill="none" stroke="#253494" d="M 91.996 51.91 C 91.996 53.094 90.219 53.094 90.219 51.91 C 90.219 50.727 91.996 50.727 91.996 51.91 "/>
<path d="M 81.227 39.586 C 81.227 40.77 79.453 40.77 79.453 39.586 C 79.453 38.402 81.227 38.402 81.227 39.586 " fill="#253494"/>
<path stroke-width=".708661" stroke-linecap="round" stroke-linejoin="round" fill="none" stroke="#253494" d="M 81.227 39.586 C 81.227 40.77 79.453 40.77 79.453 39.586 C 79.453 38.402 81.227 38.402 81.227 39.586 "/>
<path d="M 106.715 57.879 C 106.715 59.063 104.941 59.063 104.941 57.879 C 104.941 56.695 106.715 56.695 106.715 57.879 " fill="#253494"/>
<path stroke-width=".708661" stroke-linecap="round" stroke-linejoin="round" fill="none" stroke="#253494" d="M 106.715 57.879 C 106.715 59.063 104.941 59.063 104.941 57.879 C 104.941 56.695 106.715 56.695 106.715 57.879 "/>
<path d="M 76.648 55.797 C 76.648 56.984 74.871 56.984 74.871 55.797 C 74.871 54.613 76.648 54.613 76.648 55.797 " fill="#253494"/>
<path stroke-width=".708661" stroke-linecap="round" stroke-linejoin="round" fill="none" stroke="#253494" d="M 76.648 55.797 C 76.648 56.984 74.871 56.984 74.871 55.797 C 74.871 54.613 76.648 54.613 76.648 55.797 "/>
<path d="M 78.801 63.371 C 78.801 64.555 77.027 64.555 77.027 63.371 C 77.027 62.188 78.801 62.188 78.801 63.371 " fill="#253494"/>
<path stroke-width=".708661" stroke-linecap="round" stroke-linejoin="round" fill="none" stroke="#253494" d="M 78.801 63.371 C 78.801 64.555 77.027 64.555 77.027 63.371 C 77.027 62.188 78.801 62.188 78.801 63.371 "/>
<path d="M 56.07 58.031 C 56.07 59.215 54.293 59.215 54.293 58.031 C 54.293 56.848 56.07 56.848 56.07 58.031 " fill="#253494"/>
<path stroke-width=".708661" stroke-linecap="round" stroke-linejoin="round" fill="none" stroke="#253494" d="M 56.07 58.031 C 56.07 59.215 54.293 59.215 54.293 58.031 C 54.293 56.848 56.07 56.848 56.07 58.031 "/>
<path d="M 49.563 63.82 C 49.563 65.004 47.789 65.004 47.789 63.82 C 47.789 62.637 49.563 62.637 49.563 63.82 " fill="#253494"/>
<path stroke-width=".708661" stroke-linecap="round" stroke-linejoin="round" fill="none" stroke="#253494" d="M 49.563 63.82 C 49.563 65.004 47.789 65.004 47.789 63.82 C 47.789 62.637 49.563 62.637 49.563 63.82 "/>
<path d="M 83.402 62.84 C 83.402 64.023 81.629 64.023 81.629 62.84 C 81.629 61.656 83.402 61.656 83.402 62.84 " fill="#253494"/>
<path stroke-width=".708661" stroke-linecap="round" stroke-linejoin="round" fill="none" stroke="#253494" d="M 83.402 62.84 C 83.402 64.023 81.629 64.023 81.629 62.84 C 81.629 61.656 83.402 61.656 83.402 62.84 "/>
<path d="M 87.906 49.68 C 87.906 50.867 86.133 50.867 86.133 49.68 C 86.133 48.496 87.906 48.496 87.906 49.68 " fill="#253494"/>
<path stroke-width=".708661" stroke-linecap="round" stroke-linejoin="round" fill="none" stroke="#253494" d="M 87.906 49.68 C 87.906 50.867 86.133 50.867 86.133 49.68 C 86.133 48.496 87.906 48.496 87.906 49.68 "/>
<path d="M 94.719 61.043 C 94.719 62.227 92.945 62.227 92.945 61.043 C 92.945 59.859 94.719 59.859 94.719 61.043 " fill="#253494"/>
<path stroke-width=".708661" stroke-linecap="round" stroke-linejoin="round" fill="none" stroke="#253494" d="M 94.719 61.043 C 94.719 62.227 92.945 62.227 92.945 61.043 C 92.945 59.859 94.719 59.859 94.719 61.043 "/>
<path d="M 69.57 70.371 C 69.57 71.555 67.793 71.555 67.793 70.371 C 67.793 69.188 69.57 69.188 69.57 70.371 " fill="#253494"/>
<path stroke-width=".708661" stroke-linecap="round" stroke-linejoin="round" fill="none" stroke="#253494" d="M 69.57 70.371 C 69.57 71.555 67.793 71.555 67.793 70.371 C 67.793 69.188 69.57 69.188 69.57 70.371 "/>
<path d="M 85.852 95.668 C 85.852 96.852 84.074 96.852 84.074 95.668 C 84.074 94.484 85.852 94.484 85.852 95.668 " fill="#253494"/>
<path stroke-width=".708661" stroke-linecap="round" stroke-linejoin="round" fill="none" stroke="#253494" d="M 85.852 95.668 C 85.852 96.852 84.074 96.852 84.074 95.668 C 84.074 94.484 85.852 94.484 85.852 95.668 "/>
<path d="M 90.543 59.617 C 90.543 60.801 88.766 60.801 88.766 59.617 C 88.766 58.434 90.543 58.434 90.543 59.617 " fill="#253494"/>
<path stroke-width=".708661" stroke-linecap="round" stroke-linejoin="round" fill="none" stroke="#253494" d="M 90.543 59.617 C 90.543 60.801 88.766 60.801 88.766 59.617 C 88.766 58.434 90.543 58.434 90.543 59.617 "/>
<path d="M 65.75 58.102 C 65.75 59.285 63.973 59.285 63.973 58.102 C 63.973 56.918 65.75 56.918 65.75 58.102 " fill="#253494"/>
<path stroke-width=".708661" stroke-linecap="round" stroke-linejoin="round" fill="none" stroke="#253494" d="M 65.75 58.102 C 65.75 59.285 63.973 59.285 63.973 58.102 C 63.973 56.918 65.75 56.918 65.75 58.102 "/>
<path d="M 78.965 43.168 C 78.965 44.352 77.188 44.352 77.188 43.168 C 77.188 41.984 78.965 41.984 78.965 43.168 " fill="#253494"/>
<path stroke-width=".708661" stroke-linecap="round" stroke-linejoin="round" fill="none" stroke="#253494" d="M 78.965 43.168 C 78.965 44.352 77.188 44.352 77.188 43.168 C 77.188 41.984 78.965 41.984 78.965 43.168 "/>
<path d="M 72.008 55.453 C 72.008 56.637 70.234 56.637 70.234 55.453 C 70.234 54.27 72.008 54.27 72.008 55.453 " fill="#253494"/>
<path stroke-width=".708661" stroke-linecap="round" stroke-linejoin="round" fill="none" stroke="#253494" d="M 72.008 55.453 C 72.008 56.637 70.234 56.637 70.234 55.453 C 70.234 54.27 72.008 54.27 72.008 55.453 "/>
<path d="M 91.395 47.551 C 91.395 48.734 89.617 48.734 89.617 47.551 C 89.617 46.367 91.395 46.367 91.395 47.551 " fill="#253494"/>
<path stroke-width=".708661" stroke-linecap="round" stroke-linejoin="round" fill="none" stroke="#253494" d="M 91.395 47.551 C 91.395 48.734 89.617 48.734 89.617 47.551 C 89.617 46.367 91.395 46.367 91.395 47.551 "/>
<path d="M 92.551 75.5 C 92.551 76.684 90.773 76.684 90.773 75.5 C 90.773 74.316 92.551 74.316 92.551 75.5 " fill="#253494"/>
<path stroke-width=".708661" stroke-linecap="round" stroke-linejoin="round" fill="none" stroke="#253494" d="M 92.551 75.5 C 92.551 76.684 90.773 76.684 90.773 75.5 C 90.773 74.316 92.551 74.316 92.551 75.5 "/>
<path d="M 90.277 54.891 C 90.277 56.074 88.5 56.074 88.5 54.891 C 88.5 53.707 90.277 53.707 90.277 54.891 " fill="#253494"/>
<path stroke-width=".708661" stroke-linecap="round" stroke-linejoin="round" fill="none" stroke="#253494" d="M 90.277 54.891 C 90.277 56.074 88.5 56.074 88.5 54.891 C 88.5 53.707 90.277 53.707 90.277 54.891 "/>
<path d="M 85.828 52.551 C 85.828 53.734 84.051 53.734 84.051 52.551 C 84.051 51.367 85.828 51.367 85.828 52.551 " fill="#253494"/>
<path stroke-width=".708661" stroke-linecap="round" stroke-linejoin="round" fill="none" stroke="#253494" d="M 85.828 52.551 C 85.828 53.734 84.051 53.734 84.051 52.551 C 84.051 51.367 85.828 51.367 85.828 52.551 "/>
<path d="M 81.227 95.238 C 81.227 96.422 79.453 96.422 79.453 95.238 C 79.453 94.055 81.227 94.055 81.227 95.238 " fill="#253494"/>
<path stroke-width=".708661" stroke-linecap="round" stroke-linejoin="round" fill="none" stroke="#253494" d="M 81.227 95.238 C 81.227 96.422 79.453 96.422 79.453 95.238 C 79.453 94.055 81.227 94.055 81.227 95.238 "/>
<path d="M 89.18 73.281 C 89.18 74.465 87.402 74.465 87.402 73.281 C 87.402 72.098 89.18 72.098 89.18 73.281 " fill="#253494"/>
<path stroke-width=".708661" stroke-linecap="round" stroke-linejoin="round" fill="none" stroke="#253494" d="M 89.18 73.281 C 89.18 74.465 87.402 74.465 87.402 73.281 C 87.402 72.098 89.18 72.098 89.18 73.281 "/>
<path d="M 81.227 84.195 C 81.227 85.379 79.453 85.379 79.453 84.195 C 79.453 83.012 81.227 83.012 81.227 84.195 " fill="#253494"/>
<path stroke-width=".708661" stroke-linecap="round" stroke-linejoin="round" fill="none" stroke="#253494" d="M 81.227 84.195 C 81.227 85.379 79.453 85.379 79.453 84.195 C 79.453 83.012 81.227 83.012 81.227 84.195 "/>
<path d="M 87.445 89.023 C 87.445 90.207 85.672 90.207 85.672 89.023 C 85.672 87.84 87.445 87.84 87.445 89.023 " fill="#253494"/>
<path stroke-width=".708661" stroke-linecap="round" stroke-linejoin="round" fill="none" stroke="#253494" d="M 87.445 89.023 C 87.445 90.207 85.672 90.207 85.672 89.023 C 85.672 87.84 87.445 87.84 87.445 89.023 "/>
<path d="M 76.016 91.078 C 76.016 92.262 74.238 92.262 74.238 91.078 C 74.238 89.891 76.016 89.891 76.016 91.078 " fill="#253494"/>
<path stroke-width=".708661" stroke-linecap="round" stroke-linejoin="round" fill="none" stroke="#253494" d="M 76.016 91.078 C 76.016 92.262 74.238 92.262 74.238 91.078 C 74.238 89.891 76.016 89.891 76.016 91.078 "/>
<path d="M 77.59 67.316 C 77.59 68.5 75.813 68.5 75.813 67.316 C 75.813 66.133 77.59 66.133 77.59 67.316 " fill="#253494"/>
<path stroke-width=".708661" stroke-linecap="round" stroke-linejoin="round" fill="none" stroke="#253494" d="M 77.59 67.316 C 77.59 68.5 75.813 68.5 75.813 67.316 C 75.813 66.133 77.59 66.133 77.59 67.316 "/>
<path d="M 54.199 63.457 C 54.199 64.641 52.426 64.641 52.426 63.457 C 52.426 62.273 54.199 62.273 54.199 63.457 " fill="#253494"/>
<path stroke-width=".708661" stroke-linecap="round" stroke-linejoin="round" fill="none" stroke="#253494" d="M 54.199 63.457 C 54.199 64.641 52.426 64.641 52.426 63.457 C 52.426 62.273 54.199 62.273 54.199 63.457 "/>
<path d="M 81.227 103.469 C 81.227 104.652 79.453 104.652 79.453 103.469 C 79.453 102.285 81.227 102.285 81.227 103.469 " fill="#253494"/>
<path stroke-width=".708661" stroke-linecap="round" stroke-linejoin="round" fill="none" stroke="#253494" d="M 81.227 103.469 C 81.227 104.652 79.453 104.652 79.453 103.469 C 79.453 102.285 81.227 102.285 81.227 103.469 "/>
<path d="M 81.227 99.074 C 81.227 100.258 79.453 100.258 79.453 99.074 C 79.453 97.891 81.227 97.891 81.227 99.074 " fill="#253494"/>
<path stroke-width=".708661" stroke-linecap="round" stroke-linejoin="round" fill="none" stroke="#253494" d="M 81.227 99.074 C 81.227 100.258 79.453 100.258 79.453 99.074 C 79.453 97.891 81.227 97.891 81.227 99.074 "/>
<path d="M 78.691 86.883 C 78.691 88.066 76.914 88.066 76.914 86.883 C 76.914 85.699 78.691 85.699 78.691 86.883 " fill="#253494"/>
<path stroke-width=".708661" stroke-linecap="round" stroke-linejoin="round" fill="none" stroke="#253494" d="M 78.691 86.883 C 78.691 88.066 76.914 88.066 76.914 86.883 C 76.914 85.699 78.691 85.699 78.691 86.883 "/>
<path d="M 74.023 86.93 C 74.023 88.113 72.25 88.113 72.25 86.93 C 72.25 85.746 74.023 85.746 74.023 86.93 " fill="#253494"/>
<path stroke-width=".708661" stroke-linecap="round" stroke-linejoin="round" fill="none" stroke="#253494" d="M 74.023 86.93 C 74.023 88.113 72.25 88.113 72.25 86.93 C 72.25 85.746 74.023 85.746 74.023 86.93 "/>
<path d="M 76.672 52.395 C 76.672 53.578 74.895 53.578 74.895 52.395 C 74.895 51.211 76.672 51.211 76.672 52.395 " fill="#253494"/>
<path stroke-width=".708661" stroke-linecap="round" stroke-linejoin="round" fill="none" stroke="#253494" d="M 76.672 52.395 C 76.672 53.578 74.895 53.578 74.895 52.395 C 74.895 51.211 76.672 51.211 76.672 52.395 "/>
<path d="M 73.16 68.324 C 73.16 69.508 71.383 69.508 71.383 68.324 C 71.383 67.141 73.16 67.141 73.16 68.324 " fill="#253494"/>
<path stroke-width=".708661" stroke-linecap="round" stroke-linejoin="round" fill="none" stroke="#253494" d="M 73.16 68.324 C 73.16 69.508 71.383 69.508 71.383 68.324 C 71.383 67.141 73.16 67.141 73.16 68.324 "/>
<path d="M 77.051 76.801 C 77.051 77.984 75.277 77.984 75.277 76.801 C 75.277 75.617 77.051 75.617 77.051 76.801 " fill="#253494"/>
<path stroke-width=".708661" stroke-linecap="round" stroke-linejoin="round" fill="none" stroke="#253494" d="M 77.051 76.801 C 77.051 77.984 75.277 77.984 75.277 76.801 C 75.277 75.617 77.051 75.617 77.051 76.801 "/>
<path d="M 85.816 55.832 C 85.816 57.016 84.039 57.016 84.039 55.832 C 84.039 54.648 85.816 54.648 85.816 55.832 " fill="#253494"/>
<path stroke-width=".708661" stroke-linecap="round" stroke-linejoin="round" fill="none" stroke="#253494" d="M 85.816 55.832 C 85.816 57.016 84.039 57.016 84.039 55.832 C 84.039 54.648 85.816 54.648 85.816 55.832 "/>
<path d="M 60.66 58.609 C 60.66 59.793 58.883 59.793 58.883 58.609 C 58.883 57.426 60.66 57.426 60.66 58.609 " fill="#253494"/>
<path stroke-width=".708661" stroke-linecap="round" stroke-linejoin="round" fill="none" stroke="#253494" d="M 60.66 58.609 C 60.66 59.793 58.883 59.793 58.883 58.609 C 58.883 57.426 60.66 57.426 60.66 58.609 "/>
<path d="M 108.629 61.875 C 108.629 63.059 106.852 63.059 106.852 61.875 C 106.852 60.691 108.629 60.691 108.629 61.875 " fill="#253494"/>
<path stroke-width=".708661" stroke-linecap="round" stroke-linejoin="round" fill="none" stroke="#253494" d="M 108.629 61.875 C 108.629 63.059 106.852 63.059 106.852 61.875 C 106.852 60.691 108.629 60.691 108.629 61.875 "/>
<path d="M 94.941 54.863 C 94.941 56.047 93.164 56.047 93.164 54.863 C 93.164 53.68 94.941 53.68 94.941 54.863 " fill="#253494"/>
<path stroke-width=".708661" stroke-linecap="round" stroke-linejoin="round" fill="none" stroke="#253494" d="M 94.941 54.863 C 94.941 56.047 93.164 56.047 93.164 54.863 C 93.164 53.68 94.941 53.68 94.941 54.863 "/>
<path d="M 74.152 63.621 C 74.152 64.809 72.375 64.809 72.375 63.621 C 72.375 62.438 74.152 62.438 74.152 63.621 " fill="#253494"/>
<path stroke-width=".708661" stroke-linecap="round" stroke-linejoin="round" fill="none" stroke="#253494" d="M 74.152 63.621 C 74.152 64.809 72.375 64.809 72.375 63.621 C 72.375 62.438 74.152 62.438 74.152 63.621 "/>
<path d="M 58.207 61.813 C 58.207 62.996 56.43 62.996 56.43 61.813 C 56.43 60.629 58.207 60.629 58.207 61.813 " fill="#253494"/>
<path stroke-width=".708661" stroke-linecap="round" stroke-linejoin="round" fill="none" stroke="#253494" d="M 58.207 61.813 C 58.207 62.996 56.43 62.996 56.43 61.813 C 56.43 60.629 58.207 60.629 58.207 61.813 "/>
<path d="M 70.246 65.379 C 70.246 66.563 68.473 66.563 68.473 65.379 C 68.473 64.195 70.246 64.195 70.246 65.379 " fill="#253494"/>
<path stroke-width=".708661" stroke-linecap="round" stroke-linejoin="round" fill="none" stroke="#253494" d="M 70.246 65.379 C 70.246 66.563 68.473 66.563 68.473 65.379 C 68.473 64.195 70.246 64.195 70.246 65.379 "/>
<path d="M 181.852 105.691 C 181.852 106.875 180.078 106.875 180.078 105.691 C 180.078 104.508 181.852 104.508 181.852 105.691 " fill="#2c7fb8"/>
<path stroke-width=".708661" stroke-linecap="round" stroke-linejoin="round" fill="none" stroke="#2c7fb8" d="M 181.852 105.691 C 181.852 106.875 180.078 106.875 180.078 105.691 C 180.078 104.508 181.852 104.508 181.852 105.691 "/>
<path d="M 158.988 116.523 C 158.988 117.707 157.215 117.707 157.215 116.523 C 157.215 115.34 158.988 115.34 158.988 116.523 " fill="#2c7fb8"/>
<path stroke-width=".708661" stroke-linecap="round" stroke-linejoin="round" fill="none" stroke="#2c7fb8" d="M 158.988 116.523 C 158.988 117.707 157.215 117.707 157.215 116.523 C 157.215 115.34 158.988 115.34 158.988 116.523 "/>
<path d="M 136.711 105.531 C 136.711 106.715 134.934 106.715 134.934 105.531 C 134.934 104.348 136.711 104.348 136.711 105.531 " fill="#2c7fb8"/>
<path stroke-width=".708661" stroke-linecap="round" stroke-linejoin="round" fill="none" stroke="#2c7fb8" d="M 136.711 105.531 C 136.711 106.715 134.934 106.715 134.934 105.531 C 134.934 104.348 136.711 104.348 136.711 105.531 "/>
<path d="M 161.781 86.066 C 161.781 87.25 160.004 87.25 160.004 86.066 C 160.004 84.883 161.781 84.883 161.781 86.066 " fill="#2c7fb8"/>
<path stroke-width=".708661" stroke-linecap="round" stroke-linejoin="round" fill="none" stroke="#2c7fb8" d="M 161.781 86.066 C 161.781 87.25 160.004 87.25 160.004 86.066 C 160.004 84.883 161.781 84.883 161.781 86.066 "/>
<path d="M 151.773 85.242 C 151.773 86.426 149.996 86.426 149.996 85.242 C 149.996 84.059 151.773 84.059 151.773 85.242 " fill="#2c7fb8"/>
<path stroke-width=".708661" stroke-linecap="round" stroke-linejoin="round" fill="none" stroke="#2c7fb8" d="M 151.773 85.242 C 151.773 86.426 149.996 86.426 149.996 85.242 C 149.996 84.059 151.773 84.059 151.773 85.242 "/>
<path d="M 149.855 102.473 C 149.855 103.656 148.078 103.656 148.078 102.473 C 148.078 101.289 149.855 101.289 149.855 102.473 " fill="#2c7fb8"/>
<path stroke-width=".708661" stroke-linecap="round" stroke-linejoin="round" fill="none" stroke="#2c7fb8" d="M 149.855 102.473 C 149.855 103.656 148.078 103.656 148.078 102.473 C 148.078 101.289 149.855 101.289 149.855 102.473 "/>
<path d="M 163.641 91.613 C 163.641 92.797 161.863 92.797 161.863 91.613 C 161.863 90.43 163.641 90.43 163.641 91.613 " fill="#2c7fb8"/>
<path stroke-width=".708661" stroke-linecap="round" stroke-linejoin="round" fill="none" stroke="#2c7fb8" d="M 163.641 91.613 C 163.641 92.797 161.863 92.797 161.863 91.613 C 161.863 90.43 163.641 90.43 163.641 91.613 "/>
<path d="M 168.266 103.391 C 168.266 104.574 166.488 104.574 166.488 103.391 C 166.488 102.203 168.266 102.203 168.266 103.391 " fill="#2c7fb8"/>
<path stroke-width=".708661" stroke-linecap="round" stroke-linejoin="round" fill="none" stroke="#2c7fb8" d="M 168.266 103.391 C 168.266 104.574 166.488 104.574 166.488 103.391 C 166.488 102.203 168.266 102.203 168.266 103.391 "/>
<path d="M 163.449 94.922 C 163.449 96.105 161.676 96.105 161.676 94.922 C 161.676 93.738 163.449 93.738 163.449 94.922 " fill="#2c7fb8"/>
<path stroke-width=".708661" stroke-linecap="round" stroke-linejoin="round" fill="none" stroke="#2c7fb8" d="M 163.449 94.922 C 163.449 96.105 161.676 96.105 161.676 94.922 C 161.676 93.738 163.449 93.738 163.449 94.922 "/>
<path d="M 154.84 76.336 C 154.84 77.52 153.066 77.52 153.066 76.336 C 153.066 75.148 154.84 75.148 154.84 76.336 " fill="#2c7fb8"/>
<path stroke-width=".708661" stroke-linecap="round" stroke-linejoin="round" fill="none" stroke="#2c7fb8" d="M 154.84 76.336 C 154.84 77.52 153.066 77.52 153.066 76.336 C 153.066 75.148 154.84 75.148 154.84 76.336 "/>
<path d="M 162.43 112.355 C 162.43 113.539 160.656 113.539 160.656 112.355 C 160.656 111.172 162.43 111.172 162.43 112.355 " fill="#2c7fb8"/>
<path stroke-width=".708661" stroke-linecap="round" stroke-linejoin="round" fill="none" stroke="#2c7fb8" d="M 162.43 112.355 C 162.43 113.539 160.656 113.539 160.656 112.355 C 160.656 111.172 162.43 111.172 162.43 112.355 "/>
<path d="M 145.641 103.852 C 145.641 105.035 143.867 105.035 143.867 103.852 C 143.867 102.668 145.641 102.668 145.641 103.852 " fill="#2c7fb8"/>
<path stroke-width=".708661" stroke-linecap="round" stroke-linejoin="round" fill="none" stroke="#2c7fb8" d="M 145.641 103.852 C 145.641 105.035 143.867 105.035 143.867 103.852 C 143.867 102.668 145.641 102.668 145.641 103.852 "/>
<path d="M 158.711 110.422 C 158.711 111.605 156.934 111.605 156.934 110.422 C 156.934 109.238 158.711 109.238 158.711 110.422 " fill="#2c7fb8"/>
<path stroke-width=".708661" stroke-linecap="round" stroke-linejoin="round" fill="none" stroke="#2c7fb8" d="M 158.711 110.422 C 158.711 111.605 156.934 111.605 156.934 110.422 C 156.934 109.238 158.711 109.238 158.711 110.422 "/>
<path d="M 154.332 103.379 C 154.332 104.563 152.555 104.563 152.555 103.379 C 152.555 102.195 154.332 102.195 154.332 103.379 " fill="#2c7fb8"/>
<path stroke-width=".708661" stroke-linecap="round" stroke-linejoin="round" fill="none" stroke="#2c7fb8" d="M 154.332 103.379 C 154.332 104.563 152.555 104.563 152.555 103.379 C 152.555 102.195 154.332 102.195 154.332 103.379 "/>
<path d="M 164.461 98.5 C 164.461 99.684 162.688 99.684 162.688 98.5 C 162.688 97.316 164.461 97.316 164.461 98.5 " fill="#2c7fb8"/>
<path stroke-width=".708661" stroke-linecap="round" stroke-linejoin="round" fill="none" stroke="#2c7fb8" d="M 164.461 98.5 C 164.461 99.684 162.688 99.684 162.688 98.5 C 162.688 97.316 164.461 97.316 164.461 98.5 "/>
<path d="M 150.992 113.715 C 150.992 114.898 149.219 114.898 149.219 113.715 C 149.219 112.531 150.992 112.531 150.992 113.715 " fill="#2c7fb8"/>
<path stroke-width=".708661" stroke-linecap="round" stroke-linejoin="round" fill="none" stroke="#2c7fb8" d="M 150.992 113.715 C 150.992 114.898 149.219 114.898 149.219 113.715 C 149.219 112.531 150.992 112.531 150.992 113.715 "/>
<path d="M 156.168 98.93 C 156.168 100.113 154.391 100.113 154.391 98.93 C 154.391 97.746 156.168 97.746 156.168 98.93 " fill="#2c7fb8"/>
<path stroke-width=".708661" stroke-linecap="round" stroke-linejoin="round" fill="none" stroke="#2c7fb8" d="M 156.168 98.93 C 156.168 100.113 154.391 100.113 154.391 98.93 C 154.391 97.746 156.168 97.746 156.168 98.93 "/>
<path d="M 158.988 91.875 C 158.988 93.059 157.215 93.059 157.215 91.875 C 157.215 90.691 158.988 90.691 158.988 91.875 " fill="#2c7fb8"/>
<path stroke-width=".708661" stroke-linecap="round" stroke-linejoin="round" fill="none" stroke="#2c7fb8" d="M 158.988 91.875 C 158.988 93.059 157.215 93.059 157.215 91.875 C 157.215 90.691 158.988 90.691 158.988 91.875 "/>
<path d="M 150.977 105.605 C 150.977 106.789 149.203 106.789 149.203 105.605 C 149.203 104.422 150.977 104.422 150.977 105.605 " fill="#2c7fb8"/>
<path stroke-width=".708661" stroke-linecap="round" stroke-linejoin="round" fill="none" stroke="#2c7fb8" d="M 150.977 105.605 C 150.977 106.789 149.203 106.789 149.203 105.605 C 149.203 104.422 150.977 104.422 150.977 105.605 "/>
<path d="M 160.473 100.164 C 160.473 101.348 158.699 101.348 158.699 100.164 C 158.699 98.98 160.473 98.98 160.473 100.164 " fill="#2c7fb8"/>
<path stroke-width=".708661" stroke-linecap="round" stroke-linejoin="round" fill="none" stroke="#2c7fb8" d="M 160.473 100.164 C 160.473 101.348 158.699 101.348 158.699 100.164 C 158.699 98.98 160.473 98.98 160.473 100.164 "/>
<path d="M 177.344 104.867 C 177.344 106.051 175.57 106.051 175.57 104.867 C 175.57 103.684 177.344 103.684 177.344 104.867 " fill="#2c7fb8"/>
<path stroke-width=".708661" stroke-linecap="round" stroke-linejoin="round" fill="none" stroke="#2c7fb8" d="M 177.344 104.867 C 177.344 106.051 175.57 106.051 175.57 104.867 C 175.57 103.684 177.344 103.684 177.344 104.867 "/>
<path d="M 156.32 86.125 C 156.32 87.309 154.547 87.309 154.547 86.125 C 154.547 84.941 156.32 84.941 156.32 86.125 " fill="#2c7fb8"/>
<path stroke-width=".708661" stroke-linecap="round" stroke-linejoin="round" fill="none" stroke="#2c7fb8" d="M 156.32 86.125 C 156.32 87.309 154.547 87.309 154.547 86.125 C 154.547 84.941 156.32 84.941 156.32 86.125 "/>
<path d="M 162.711 108.777 C 162.711 109.961 160.938 109.961 160.938 108.777 C 160.938 107.594 162.711 107.594 162.711 108.777 " fill="#2c7fb8"/>
<path stroke-width=".708661" stroke-linecap="round" stroke-linejoin="round" fill="none" stroke="#2c7fb8" d="M 162.711 108.777 C 162.711 109.961 160.938 109.961 160.938 108.777 C 160.938 107.594 162.711 107.594 162.711 108.777 "/>
<path d="M 166.688 113.668 C 166.688 114.852 164.91 114.852 164.91 113.668 C 164.91 112.484 166.688 112.484 166.688 113.668 " fill="#2c7fb8"/>
<path stroke-width=".708661" stroke-linecap="round" stroke-linejoin="round" fill="none" stroke="#2c7fb8" d="M 166.688 113.668 C 166.688 114.852 164.91 114.852 164.91 113.668 C 164.91 112.484 166.688 112.484 166.688 113.668 "/>
<path d="M 153.969 121.887 C 153.969 123.07 152.191 123.07 152.191 121.887 C 152.191 120.703 153.969 120.703 153.969 121.887 " fill="#2c7fb8"/>
<path stroke-width=".708661" stroke-linecap="round" stroke-linejoin="round" fill="none" stroke="#2c7fb8" d="M 153.969 121.887 C 153.969 123.07 152.191 123.07 152.191 121.887 C 152.191 120.703 153.969 120.703 153.969 121.887 "/>
<path d="M 156.867 119.375 C 156.867 120.559 155.094 120.559 155.094 119.375 C 155.094 118.191 156.867 118.191 156.867 119.375 " fill="#2c7fb8"/>
<path stroke-width=".708661" stroke-linecap="round" stroke-linejoin="round" fill="none" stroke="#2c7fb8" d="M 156.867 119.375 C 156.867 120.559 155.094 120.559 155.094 119.375 C 155.094 118.191 156.867 118.191 156.867 119.375 "/>
<path d="M 172.789 104.172 C 172.789 105.355 171.016 105.355 171.016 104.172 C 171.016 102.984 172.789 102.984 172.789 104.172 " fill="#2c7fb8"/>
<path stroke-width=".708661" stroke-linecap="round" stroke-linejoin="round" fill="none" stroke="#2c7fb8" d="M 172.789 104.172 C 172.789 105.355 171.016 105.355 171.016 104.172 C 171.016 102.984 172.789 102.984 172.789 104.172 "/>
<path d="M 139.289 101.34 C 139.289 102.523 137.516 102.523 137.516 101.34 C 137.516 100.156 139.289 100.156 139.289 101.34 " fill="#2c7fb8"/>
<path stroke-width=".708661" stroke-linecap="round" stroke-linejoin="round" fill="none" stroke="#2c7fb8" d="M 139.289 101.34 C 139.289 102.523 137.516 102.523 137.516 101.34 C 137.516 100.156 139.289 100.156 139.289 101.34 "/>
<path d="M 158.988 103.203 C 158.988 104.387 157.215 104.387 157.215 103.203 C 157.215 102.02 158.988 102.02 158.988 103.203 " fill="#2c7fb8"/>
<path stroke-width=".708661" stroke-linecap="round" stroke-linejoin="round" fill="none" stroke="#2c7fb8" d="M 158.988 103.203 C 158.988 104.387 157.215 104.387 157.215 103.203 C 157.215 102.02 158.988 102.02 158.988 103.203 "/>
<path d="M 163.594 82.984 C 163.594 84.168 161.82 84.168 161.82 82.984 C 161.82 81.801 163.594 81.801 163.594 82.984 " fill="#2c7fb8"/>
<path stroke-width=".708661" stroke-linecap="round" stroke-linejoin="round" fill="none" stroke="#2c7fb8" d="M 163.594 82.984 C 163.594 84.168 161.82 84.168 161.82 82.984 C 161.82 81.801 163.594 81.801 163.594 82.984 "/>
<path d="M 158.988 83.496 C 158.988 84.68 157.215 84.68 157.215 83.496 C 157.215 82.313 158.988 82.313 158.988 83.496 " fill="#2c7fb8"/>
<path stroke-width=".708661" stroke-linecap="round" stroke-linejoin="round" fill="none" stroke="#2c7fb8" d="M 158.988 83.496 C 158.988 84.68 157.215 84.68 157.215 83.496 C 157.215 82.313 158.988 82.313 158.988 83.496 "/>
<path d="M 150.336 81.184 C 150.336 82.367 148.559 82.367 148.559 81.184 C 148.559 80 150.336 80 150.336 81.184 " fill="#2c7fb8"/>
<path stroke-width=".708661" stroke-linecap="round" stroke-linejoin="round" fill="none" stroke="#2c7fb8" d="M 150.336 81.184 C 150.336 82.367 148.559 82.367 148.559 81.184 C 148.559 80 150.336 80 150.336 81.184 "/>
<path d="M 159.77 96.895 C 159.77 98.078 157.996 98.078 157.996 96.895 C 157.996 95.711 159.77 95.711 159.77 96.895 " fill="#2c7fb8"/>
<path stroke-width=".708661" stroke-linecap="round" stroke-linejoin="round" fill="none" stroke="#2c7fb8" d="M 159.77 96.895 C 159.77 98.078 157.996 98.078 157.996 96.895 C 157.996 95.711 159.77 95.711 159.77 96.895 "/>
<path d="M 141.023 104.313 C 141.023 105.496 139.25 105.496 139.25 104.313 C 139.25 103.129 141.023 103.129 141.023 104.313 " fill="#2c7fb8"/>
<path stroke-width=".708661" stroke-linecap="round" stroke-linejoin="round" fill="none" stroke="#2c7fb8" d="M 141.023 104.313 C 141.023 105.496 139.25 105.496 139.25 104.313 C 139.25 103.129 141.023 103.129 141.023 104.313 "/>
<path d="M 158.988 67.156 C 158.988 68.34 157.215 68.34 157.215 67.156 C 157.215 65.973 158.988 65.973 158.988 67.156 " fill="#2c7fb8"/>
<path stroke-width=".708661" stroke-linecap="round" stroke-linejoin="round" fill="none" stroke="#2c7fb8" d="M 158.988 67.156 C 158.988 68.34 157.215 68.34 157.215 67.156 C 157.215 65.973 158.988 65.973 158.988 67.156 "/>
<path d="M 158.988 77.801 C 158.988 78.984 157.215 78.984 157.215 77.801 C 157.215 76.617 158.988 76.617 158.988 77.801 " fill="#2c7fb8"/>
<path stroke-width=".708661" stroke-linecap="round" stroke-linejoin="round" fill="none" stroke="#2c7fb8" d="M 158.988 77.801 C 158.988 78.984 157.215 78.984 157.215 77.801 C 157.215 76.617 158.988 76.617 158.988 77.801 "/>
<path d="M 179.695 101.063 C 179.695 102.246 177.922 102.246 177.922 101.063 C 177.922 99.879 179.695 99.879 179.695 101.063 " fill="#2c7fb8"/>
<path stroke-width=".708661" stroke-linecap="round" stroke-linejoin="round" fill="none" stroke="#2c7fb8" d="M 179.695 101.063 C 179.695 102.246 177.922 102.246 177.922 101.063 C 177.922 99.879 179.695 99.879 179.695 101.063 "/>
<path d="M 163.566 77.172 C 163.566 78.355 161.789 78.355 161.789 77.172 C 161.789 75.988 163.566 75.988 163.566 77.172 " fill="#2c7fb8"/>
<path stroke-width=".708661" stroke-linecap="round" stroke-linejoin="round" fill="none" stroke="#2c7fb8" d="M 163.566 77.172 C 163.566 78.355 161.789 78.355 161.789 77.172 C 161.789 75.988 163.566 75.988 163.566 77.172 "/>
<path d="M 158.988 70.473 C 158.988 71.656 157.215 71.656 157.215 70.473 C 157.215 69.289 158.988 69.289 158.988 70.473 " fill="#2c7fb8"/>
<path stroke-width=".708661" stroke-linecap="round" stroke-linejoin="round" fill="none" stroke="#2c7fb8" d="M 158.988 70.473 C 158.988 71.656 157.215 71.656 157.215 70.473 C 157.215 69.289 158.988 69.289 158.988 70.473 "/>
<path d="M 155.715 95.309 C 155.715 96.492 153.938 96.492 153.938 95.309 C 153.938 94.125 155.715 94.125 155.715 95.309 " fill="#2c7fb8"/>
<path stroke-width=".708661" stroke-linecap="round" stroke-linejoin="round" fill="none" stroke="#2c7fb8" d="M 155.715 95.309 C 155.715 96.492 153.938 96.492 153.938 95.309 C 153.938 94.125 155.715 94.125 155.715 95.309 "/>
<path d="M 145.672 81.133 C 145.672 82.316 143.895 82.316 143.895 81.133 C 143.895 79.949 145.672 79.949 145.672 81.133 " fill="#2c7fb8"/>
<path stroke-width=".708661" stroke-linecap="round" stroke-linejoin="round" fill="none" stroke="#2c7fb8" d="M 145.672 81.133 C 145.672 82.316 143.895 82.316 143.895 81.133 C 143.895 79.949 145.672 79.949 145.672 81.133 "/>
<path d="M 163.641 102.957 C 163.641 104.141 161.867 104.141 161.867 102.957 C 161.867 101.773 163.641 101.773 163.641 102.957 " fill="#2c7fb8"/>
<path stroke-width=".708661" stroke-linecap="round" stroke-linejoin="round" fill="none" stroke="#2c7fb8" d="M 163.641 102.957 C 163.641 104.141 161.867 104.141 161.867 102.957 C 161.867 101.773 163.641 101.773 163.641 102.957 "/>
<path d="M 154.496 82.637 C 154.496 83.82 152.719 83.82 152.719 82.637 C 152.719 81.453 154.496 81.453 154.496 82.637 " fill="#2c7fb8"/>
<path stroke-width=".708661" stroke-linecap="round" stroke-linejoin="round" fill="none" stroke="#2c7fb8" d="M 154.496 82.637 C 154.496 83.82 152.719 83.82 152.719 82.637 C 152.719 81.453 154.496 81.453 154.496 82.637 "/>
<path d="M 158.988 106.844 C 158.988 108.027 157.215 108.027 157.215 106.844 C 157.215 105.66 158.988 105.66 158.988 106.844 " fill="#2c7fb8"/>
<path stroke-width=".708661" stroke-linecap="round" stroke-linejoin="round" fill="none" stroke="#2c7fb8" d="M 158.988 106.844 C 158.988 108.027 157.215 108.027 157.215 106.844 C 157.215 105.66 158.988 105.66 158.988 106.844 "/>
<path d="M 155.418 112.695 C 155.418 113.879 153.641 113.879 153.641 112.695 C 153.641 111.508 155.418 111.508 155.418 112.695 " fill="#2c7fb8"/>
<path stroke-width=".708661" stroke-linecap="round" stroke-linejoin="round" fill="none" stroke="#2c7fb8" d="M 155.418 112.695 C 155.418 113.879 153.641 113.879 153.641 112.695 C 153.641 111.508 155.418 111.508 155.418 112.695 "/>
<path d="M 160.762 121.141 C 160.762 122.324 158.988 122.324 158.988 121.141 C 158.988 119.957 160.762 119.957 160.762 121.141 " fill="#2c7fb8"/>
<path stroke-width=".708661" stroke-linecap="round" stroke-linejoin="round" fill="none" stroke="#2c7fb8" d="M 160.762 121.141 C 160.762 122.324 158.988 122.324 158.988 121.141 C 158.988 119.957 160.762 119.957 160.762 121.141 "/>
<path d="M 163.43 117.504 C 163.43 118.688 161.656 118.688 161.656 117.504 C 161.656 116.32 163.43 116.32 163.43 117.504 " fill="#2c7fb8"/>
<path stroke-width=".708661" stroke-linecap="round" stroke-linejoin="round" fill="none" stroke="#2c7fb8" d="M 163.43 117.504 C 163.43 118.688 161.656 118.688 161.656 117.504 C 161.656 116.32 163.43 116.32 163.43 117.504 "/>
<path d="M 175.051 101.367 C 175.051 102.551 173.277 102.551 173.277 101.367 C 173.277 100.184 175.051 100.184 175.051 101.367 " fill="#2c7fb8"/>
<path stroke-width=".708661" stroke-linecap="round" stroke-linejoin="round" fill="none" stroke="#2c7fb8" d="M 175.051 101.367 C 175.051 102.551 173.277 102.551 173.277 101.367 C 173.277 100.184 175.051 100.184 175.051 101.367 "/>
<path d="M 152.109 97.348 C 152.109 98.531 150.332 98.531 150.332 97.348 C 150.332 96.164 152.109 96.164 152.109 97.348 " fill="#2c7fb8"/>
<path stroke-width=".708661" stroke-linecap="round" stroke-linejoin="round" fill="none" stroke="#2c7fb8" d="M 152.109 97.348 C 152.109 98.531 150.332 98.531 150.332 97.348 C 150.332 96.164 152.109 96.164 152.109 97.348 "/>
<path d="M 167.676 81.426 C 167.676 82.609 165.898 82.609 165.898 81.426 C 165.898 80.242 167.676 80.242 167.676 81.426 " fill="#2c7fb8"/>
<path stroke-width=".708661" stroke-linecap="round" stroke-linejoin="round" fill="none" stroke="#2c7fb8" d="M 167.676 81.426 C 167.676 82.609 165.898 82.609 165.898 81.426 C 165.898 80.242 167.676 80.242 167.676 81.426 "/>
<path d="M 236.75 120.953 C 236.75 122.137 234.977 122.137 234.977 120.953 C 234.977 119.77 236.75 119.77 236.75 120.953 " fill="#41b6c4"/>
<path stroke-width=".708661" stroke-linecap="round" stroke-linejoin="round" fill="none" stroke="#41b6c4" d="M 236.75 120.953 C 236.75 122.137 234.977 122.137 234.977 120.953 C 234.977 119.77 236.75 119.77 236.75 120.953 "/>
<path d="M 236.75 113.633 C 236.75 114.816 234.977 114.816 234.977 113.633 C 234.977 112.449 236.75 112.449 236.75 113.633 " fill="#41b6c4"/>
<path stroke-width=".708661" stroke-linecap="round" stroke-linejoin="round" fill="none" stroke="#41b6c4" d="M 236.75 113.633 C 236.75 114.816 234.977 114.816 234.977 113.633 C 234.977 112.449 236.75 112.449 236.75 113.633 "/>
<path d="M 233.484 111.344 C 233.484 112.527 231.707 112.527 231.707 111.344 C 231.707 110.16 233.484 110.16 233.484 111.344 " fill="#41b6c4"/>
<path stroke-width=".708661" stroke-linecap="round" stroke-linejoin="round" fill="none" stroke="#41b6c4" d="M 233.484 111.344 C 233.484 112.527 231.707 112.527 231.707 111.344 C 231.707 110.16 233.484 110.16 233.484 111.344 "/>
<path d="M 236.75 96.973 C 236.75 98.156 234.977 98.156 234.977 96.973 C 234.977 95.789 236.75 95.789 236.75 96.973 " fill="#41b6c4"/>
<path stroke-width=".708661" stroke-linecap="round" stroke-linejoin="round" fill="none" stroke="#41b6c4" d="M 236.75 96.973 C 236.75 98.156 234.977 98.156 234.977 96.973 C 234.977 95.789 236.75 95.789 236.75 96.973 "/>
<path d="M 228.883 110.805 C 228.883 111.988 227.109 111.988 227.109 110.805 C 227.109 109.621 228.883 109.621 228.883 110.805 " fill="#41b6c4"/>
<path stroke-width=".708661" stroke-linecap="round" stroke-linejoin="round" fill="none" stroke="#41b6c4" d="M 228.883 110.805 C 228.883 111.988 227.109 111.988 227.109 110.805 C 227.109 109.621 228.883 109.621 228.883 110.805 "/>
<path d="M 236.75 86.566 C 236.75 87.75 234.977 87.75 234.977 86.566 C 234.977 85.383 236.75 85.383 236.75 86.566 " fill="#41b6c4"/>
<path stroke-width=".708661" stroke-linecap="round" stroke-linejoin="round" fill="none" stroke="#41b6c4" d="M 236.75 86.566 C 236.75 87.75 234.977 87.75 234.977 86.566 C 234.977 85.383 236.75 85.383 236.75 86.566 "/>
<path d="M 241.387 117.465 C 241.387 118.648 239.613 118.648 239.613 117.465 C 239.613 116.281 241.387 116.281 241.387 117.465 " fill="#41b6c4"/>
<path stroke-width=".708661" stroke-linecap="round" stroke-linejoin="round" fill="none" stroke="#41b6c4" d="M 241.387 117.465 C 241.387 118.648 239.613 118.648 239.613 117.465 C 239.613 116.281 241.387 116.281 241.387 117.465 "/>
<path d="M 241.414 91.676 C 241.414 92.859 239.641 92.859 239.641 91.676 C 239.641 90.492 241.414 90.492 241.414 91.676 " fill="#41b6c4"/>
<path stroke-width=".708661" stroke-linecap="round" stroke-linejoin="round" fill="none" stroke="#41b6c4" d="M 241.414 91.676 C 241.414 92.859 239.641 92.859 239.641 91.676 C 239.641 90.492 241.414 90.492 241.414 91.676 "/>
<path d="M 234.52 83.566 C 234.52 84.75 232.742 84.75 232.742 83.566 C 232.742 82.379 234.52 82.379 234.52 83.566 " fill="#41b6c4"/>
<path stroke-width=".708661" stroke-linecap="round" stroke-linejoin="round" fill="none" stroke="#41b6c4" d="M 234.52 83.566 C 234.52 84.75 232.742 84.75 232.742 83.566 C 232.742 82.379 234.52 82.379 234.52 83.566 "/>
<path d="M 239.168 83.824 C 239.168 85.008 237.395 85.008 237.395 83.824 C 237.395 82.641 239.168 82.641 239.168 83.824 " fill="#41b6c4"/>
<path stroke-width=".708661" stroke-linecap="round" stroke-linejoin="round" fill="none" stroke="#41b6c4" d="M 239.168 83.824 C 239.168 85.008 237.395 85.008 237.395 83.824 C 237.395 82.641 239.168 82.641 239.168 83.824 "/>
<path d="M 236.75 65.066 C 236.75 66.25 234.977 66.25 234.977 65.066 C 234.977 63.883 236.75 63.883 236.75 65.066 " fill="#41b6c4"/>
<path stroke-width=".708661" stroke-linecap="round" stroke-linejoin="round" fill="none" stroke="#41b6c4" d="M 236.75 65.066 C 236.75 66.25 234.977 66.25 234.977 65.066 C 234.977 63.883 236.75 63.883 236.75 65.066 "/>
<path d="M 242.508 81.586 C 242.508 82.77 240.734 82.77 240.734 81.586 C 240.734 80.402 242.508 80.402 242.508 81.586 " fill="#41b6c4"/>
<path stroke-width=".708661" stroke-linecap="round" stroke-linejoin="round" fill="none" stroke="#41b6c4" d="M 242.508 81.586 C 242.508 82.77 240.734 82.77 240.734 81.586 C 240.734 80.402 242.508 80.402 242.508 81.586 "/>
<path d="M 240.031 111.355 C 240.031 112.539 238.258 112.539 238.258 111.355 C 238.258 110.168 240.031 110.168 240.031 111.355 " fill="#41b6c4"/>
<path stroke-width=".708661" stroke-linecap="round" stroke-linejoin="round" fill="none" stroke="#41b6c4" d="M 240.031 111.355 C 240.031 112.539 238.258 112.539 238.258 111.355 C 238.258 110.168 240.031 110.168 240.031 111.355 "/>
<path d="M 236.75 107.336 C 236.75 108.52 234.977 108.52 234.977 107.336 C 234.977 106.152 236.75 106.152 236.75 107.336 " fill="#41b6c4"/>
<path stroke-width=".708661" stroke-linecap="round" stroke-linejoin="round" fill="none" stroke="#41b6c4" d="M 236.75 107.336 C 236.75 108.52 234.977 108.52 234.977 107.336 C 234.977 106.152 236.75 106.152 236.75 107.336 "/>
<path d="M 236.75 125.719 C 236.75 126.902 234.977 126.902 234.977 125.719 C 234.977 124.535 236.75 124.535 236.75 125.719 " fill="#41b6c4"/>
<path stroke-width=".708661" stroke-linecap="round" stroke-linejoin="round" fill="none" stroke="#41b6c4" d="M 236.75 125.719 C 236.75 126.902 234.977 126.902 234.977 125.719 C 234.977 124.535 236.75 124.535 236.75 125.719 "/>
<path d="M 236.75 128.973 C 236.75 130.156 234.977 130.156 234.977 128.973 C 234.977 127.789 236.75 127.789 236.75 128.973 " fill="#41b6c4"/>
<path stroke-width=".708661" stroke-linecap="round" stroke-linejoin="round" fill="none" stroke="#41b6c4" d="M 236.75 128.973 C 236.75 130.156 234.977 130.156 234.977 128.973 C 234.977 127.789 236.75 127.789 236.75 128.973 "/>
<path d="M 240.797 127.316 C 240.797 128.5 239.02 128.5 239.02 127.316 C 239.02 126.133 240.797 126.133 240.797 127.316 " fill="#41b6c4"/>
<path stroke-width=".708661" stroke-linecap="round" stroke-linejoin="round" fill="none" stroke="#41b6c4" d="M 240.797 127.316 C 240.797 128.5 239.02 128.5 239.02 127.316 C 239.02 126.133 240.797 126.133 240.797 127.316 "/>
<path d="M 236.75 73.066 C 236.75 74.25 234.977 74.25 234.977 73.066 C 234.977 71.883 236.75 71.883 236.75 73.066 " fill="#41b6c4"/>
<path stroke-width=".708661" stroke-linecap="round" stroke-linejoin="round" fill="none" stroke="#41b6c4" d="M 236.75 73.066 C 236.75 74.25 234.977 74.25 234.977 73.066 C 234.977 71.883 236.75 71.883 236.75 73.066 "/>
<path d="M 230.199 82.352 C 230.199 83.539 228.422 83.539 228.422 82.352 C 228.422 81.168 230.199 81.168 230.199 82.352 " fill="#41b6c4"/>
<path stroke-width=".708661" stroke-linecap="round" stroke-linejoin="round" fill="none" stroke="#41b6c4" d="M 230.199 82.352 C 230.199 83.539 228.422 83.539 228.422 82.352 C 228.422 81.168 230.199 81.168 230.199 82.352 "/>
<path d="M 232.973 93.473 C 232.973 94.656 231.195 94.656 231.195 93.473 C 231.195 92.289 232.973 92.289 232.973 93.473 " fill="#41b6c4"/>
<path stroke-width=".708661" stroke-linecap="round" stroke-linejoin="round" fill="none" stroke="#41b6c4" d="M 232.973 93.473 C 232.973 94.656 231.195 94.656 231.195 93.473 C 231.195 92.289 232.973 92.289 232.973 93.473 "/>
<path d="M 236.75 91.594 C 236.75 92.777 234.977 92.777 234.977 91.594 C 234.977 90.406 236.75 90.406 236.75 91.594 " fill="#41b6c4"/>
<path stroke-width=".708661" stroke-linecap="round" stroke-linejoin="round" fill="none" stroke="#41b6c4" d="M 236.75 91.594 C 236.75 92.777 234.977 92.777 234.977 91.594 C 234.977 90.406 236.75 90.406 236.75 91.594 "/>
<path d="M 236.75 80.191 C 236.75 81.375 234.977 81.375 234.977 80.191 C 234.977 79.008 236.75 79.008 236.75 80.191 " fill="#41b6c4"/>
<path stroke-width=".708661" stroke-linecap="round" stroke-linejoin="round" fill="none" stroke="#41b6c4" d="M 236.75 80.191 C 236.75 81.375 234.977 81.375 234.977 80.191 C 234.977 79.008 236.75 79.008 236.75 80.191 "/>
<path d="M 236.75 147.625 C 236.75 148.809 234.977 148.809 234.977 147.625 C 234.977 146.441 236.75 146.441 236.75 147.625 " fill="#41b6c4"/>
<path stroke-width=".708661" stroke-linecap="round" stroke-linejoin="round" fill="none" stroke="#41b6c4" d="M 236.75 147.625 C 236.75 148.809 234.977 148.809 234.977 147.625 C 234.977 146.441 236.75 146.441 236.75 147.625 "/>
<path d="M 241.316 121.617 C 241.316 122.801 239.539 122.801 239.539 121.617 C 239.539 120.434 241.316 120.434 241.316 121.617 " fill="#41b6c4"/>
<path stroke-width=".708661" stroke-linecap="round" stroke-linejoin="round" fill="none" stroke="#41b6c4" d="M 241.316 121.617 C 241.316 122.801 239.539 122.801 239.539 121.617 C 239.539 120.434 241.316 120.434 241.316 121.617 "/>
<path d="M 236.75 117.105 C 236.75 118.289 234.977 118.289 234.977 117.105 C 234.977 115.922 236.75 115.922 236.75 117.105 " fill="#41b6c4"/>
<path stroke-width=".708661" stroke-linecap="round" stroke-linejoin="round" fill="none" stroke="#41b6c4" d="M 236.75 117.105 C 236.75 118.289 234.977 118.289 234.977 117.105 C 234.977 115.922 236.75 115.922 236.75 117.105 "/>
<path stroke-width="1.066978" stroke-linecap="round" stroke-linejoin="round" fill="none" stroke="#333333" d="M 33.684 5.477 L 282.524 5.477 L 282.524 181.778 L 33.684 181.778 Z "/>
</g>
<text fill="#4d4d4d" xml:space="preserve" transform="matrix(1 0 0 1 0 0)" font-size="12" font-family="TimesNewRomanPSMT"><tspan y="151.02735" x="18.753907 22.749907">-2</tspan><tspan y="97.60157" x="22.750002">0</tspan><tspan y="44.17969" x="22.750002">2</tspan></text>
<path stroke-width="1.066978" stroke-linecap="butt" stroke-linejoin="round" fill="none" stroke="#333333" d="M 30.941 147.055 L 33.684 147.055 "/>
<path stroke-width="1.066978" stroke-linecap="butt" stroke-linejoin="round" fill="none" stroke="#333333" d="M 30.941 93.629 L 33.684 93.629 "/>
<path stroke-width="1.066978" stroke-linecap="butt" stroke-linejoin="round" fill="none" stroke="#333333" d="M 30.941 40.207 L 33.684 40.207 "/>
<path stroke-width="1.066978" stroke-linecap="butt" stroke-linejoin="round" fill="none" stroke="#333333" d="M 80.34 184.52 L 80.34 181.777 "/>
<path stroke-width="1.066978" stroke-linecap="butt" stroke-linejoin="round" fill="none" stroke="#333333" d="M 158.102 184.52 L 158.102 181.777 "/>
<path stroke-width="1.066978" stroke-linecap="butt" stroke-linejoin="round" fill="none" stroke="#333333" d="M 235.863 184.52 L 235.863 181.777 "/>
<text fill="#4d4d4d" xml:space="preserve" transform="matrix(1 0 0 1 0 0)" font-size="12" font-family="TimesNewRomanPSMT"><tspan y="194.65625" x="61.347658 69.33965 73.335659 78.65166 83.96766 87.29166 93.29166 142.39566 153.06366 159.06366 165.06366 170.37966 218.47566 226.46767 230.46367 235.77967 241.09566 247.09566">BreathyModalCreaky</tspan></text>
<text xml:space="preserve" transform="matrix(0 -1 1 0 0 0)" font-size="12" font-family="TimesNewRomanPSMT"><tspan y="13.425781" x="-139.10938 -130.44538 -124.44537 -118.44537 -114.44937 -105.78537 -99.78537 -93.78537 -90.78537 -86.78937 -81.473369 -77.47736 -72.809368 -67.49336 -61.493364 -57.497365 -52.181367">H1*-H2* (z-score)</tspan></text>
</g>
</g>
</svg>
