<svg width="632" height="296" xmlns="http://www.w3.org/2000/svg" xmlns:xlink="http://www.w3.org/1999/xlink" xml:space="preserve" overflow="hidden"><defs><clipPath id="clip0"><rect x="479" y="61" width="632" height="296"/></clipPath></defs><g clip-path="url(#clip0)" transform="translate(-479 -61)"><text font-family="Times New Roman,Times New Roman_MSFontService,sans-serif" font-weight="400" font-size="55" transform="matrix(1 0 0 1 512.368 131)">V<tspan font-size="55" x="39.5313" y="0">ˀ</tspan><tspan font-size="55" x="0" y="179">V</tspan><tspan font-size="55" x="417.083" y="0">T1</tspan><tspan font-size="55" x="417.083" y="88">T2</tspan><tspan font-size="55" x="417.083" y="179">T3</tspan></text><path d="M675 111 896.173 111" stroke="#000000" stroke-width="2.29167" stroke-miterlimit="8" fill="none" fill-rule="evenodd"/><path d="M675 111 896.173 198.873" stroke="#000000" stroke-width="2.29167" stroke-miterlimit="8" fill="none" fill-rule="evenodd"/><path d="M675 111 896.173 290.411" stroke="#000000" stroke-width="2.29167" stroke-miterlimit="8" fill="none" fill-rule="evenodd"/><path d="M0 0 221.173 179.411" stroke="#000000" stroke-width="2.29167" stroke-miterlimit="8" fill="none" fill-rule="evenodd" transform="matrix(1 0 0 -1 675 290.411)"/><path d="M0 0 221.173 91.5382" stroke="#000000" stroke-width="2.29167" stroke-miterlimit="8" fill="none" fill-rule="evenodd" transform="matrix(1 0 0 -1 675 290.538)"/><path d="M675 291 896.173 291.001" stroke="#000000" stroke-width="2.29167" stroke-miterlimit="8" fill="none" fill-rule="evenodd"/></g></svg>