<svg xmlns="http://www.w3.org/2000/svg" xmlns:xlink="http://www.w3.org/1999/xlink" class="svglite" viewBox="-0.54 -0.54 505.07 173.87">
<defs>
  <style type="text/css"><![CDATA[
    .svglite line, .svglite polyline, .svglite polygon, .svglite path, .svglite rect, .svglite circle {
      fill: none;
      stroke: #000000;
      stroke-linecap: round;
      stroke-linejoin: round;
      stroke-miterlimit: 10.00;
    }
  ]]></style>
</defs>
<rect width="100%" height="100%" style="stroke: none; fill: none;"/>
<defs>
  <clipPath id="cpMC4wMHw1MDQuMDB8MC4wMHwxNzIuODA=">
    <rect x="0.00" y="0.00" width="504.00" height="172.80"/>
  </clipPath>
</defs>
<g clip-path="url(#cpMC4wMHw1MDQuMDB8MC4wMHwxNzIuODA=)">
</g>
<defs>
  <clipPath id="cpMC4wMHwyMTkuMTN8MC4wMHwxNzIuODA=">
    <rect x="0.00" y="0.00" width="219.13" height="172.80"/>
  </clipPath>
</defs>
<g clip-path="url(#cpMC4wMHwyMTkuMTN8MC4wMHwxNzIuODA=)">
<rect x="0.00" y="0.00" width="219.13" height="172.80" style="stroke-width: 1.07; stroke: #FFFFFF; fill: #FFFFFF;"/>
</g>
<g clip-path="url(#cpMC4wMHw1MDQuMDB8MC4wMHwxNzIuODA=)">
</g>
<defs>
  <clipPath id="cpMzkuNDd8MjEzLjY1fDQ0LjY4fDE0Mi4wNA==">
    <rect x="39.47" y="44.68" width="174.19" height="97.36"/>
  </clipPath>
</defs>
<g clip-path="url(#cpMzkuNDd8MjEzLjY1fDQ0LjY4fDE0Mi4wNA==)">
<rect x="39.47" y="44.68" width="174.19" height="97.36" style="stroke-width: 1.07; stroke: none; fill: #FFFFFF;"/>
<polygon points="47.38,69.55 53.98,71.17 60.58,72.71 67.18,74.15 73.77,75.53 80.37,76.82 86.97,78.05 93.57,79.22 100.17,80.34 106.76,81.42 113.36,82.46 119.96,83.47 126.56,84.44 133.16,85.38 139.75,86.28 146.35,87.13 152.95,87.95 159.55,88.72 166.15,89.43 172.74,90.08 179.34,90.66 185.94,91.15 192.54,91.56 199.14,91.89 205.73,92.13 205.73,100.89 199.14,99.75 192.54,98.68 185.94,97.69 179.34,96.76 172.74,95.88 166.15,95.03 159.55,94.19 152.95,93.36 146.35,92.51 139.75,91.64 133.16,90.73 126.56,89.80 119.96,88.82 113.36,87.82 106.76,86.80 100.17,85.75 93.57,84.70 86.97,83.66 80.37,82.63 73.77,81.65 67.18,80.72 60.58,79.85 53.98,79.06 47.38,78.35 " style="stroke-width: 0.00; stroke: none; stroke-linecap: butt; fill: #018571; fill-opacity: 0.10;"/>
<polyline points="47.38,69.55 53.98,71.17 60.58,72.71 67.18,74.15 73.77,75.53 80.37,76.82 86.97,78.05 93.57,79.22 100.17,80.34 106.76,81.42 113.36,82.46 119.96,83.47 126.56,84.44 133.16,85.38 139.75,86.28 146.35,87.13 152.95,87.95 159.55,88.72 166.15,89.43 172.74,90.08 179.34,90.66 185.94,91.15 192.54,91.56 199.14,91.89 205.73,92.13 " style="stroke-width: 1.07; stroke: none; stroke-linecap: butt;"/>
<polyline points="205.73,100.89 199.14,99.75 192.54,98.68 185.94,97.69 179.34,96.76 172.74,95.88 166.15,95.03 159.55,94.19 152.95,93.36 146.35,92.51 139.75,91.64 133.16,90.73 126.56,89.80 119.96,88.82 113.36,87.82 106.76,86.80 100.17,85.75 93.57,84.70 86.97,83.66 80.37,82.63 73.77,81.65 67.18,80.72 60.58,79.85 53.98,79.06 47.38,78.35 " style="stroke-width: 1.07; stroke: none; stroke-linecap: butt;"/>
<polygon points="47.38,75.80 53.98,81.95 60.58,87.50 67.18,92.51 73.77,97.16 80.37,101.38 86.97,105.19 93.57,108.65 100.17,111.62 106.76,114.06 113.36,116.02 119.96,117.39 126.56,118.15 133.16,118.42 139.75,118.11 146.35,117.24 152.95,115.96 159.55,114.22 166.15,112.06 172.74,109.66 179.34,106.96 185.94,104.00 192.54,100.85 199.14,97.28 205.73,93.17 205.73,105.11 199.14,107.12 192.54,109.61 185.94,112.39 179.34,115.16 172.74,117.86 166.15,120.35 159.55,122.44 152.95,124.17 146.35,125.50 139.75,126.27 133.16,126.56 126.56,126.36 119.96,125.53 113.36,124.18 106.76,122.31 100.17,119.83 93.57,116.87 86.97,113.48 80.37,109.58 73.77,105.35 67.18,100.90 60.58,96.26 53.98,91.79 47.38,87.74 " style="stroke-width: 0.00; stroke: none; stroke-linecap: butt; fill: #80CDC1; fill-opacity: 0.10;"/>
<polyline points="47.38,75.80 53.98,81.95 60.58,87.50 67.18,92.51 73.77,97.16 80.37,101.38 86.97,105.19 93.57,108.65 100.17,111.62 106.76,114.06 113.36,116.02 119.96,117.39 126.56,118.15 133.16,118.42 139.75,118.11 146.35,117.24 152.95,115.96 159.55,114.22 166.15,112.06 172.74,109.66 179.34,106.96 185.94,104.00 192.54,100.85 199.14,97.28 205.73,93.17 " style="stroke-width: 1.07; stroke: none; stroke-dasharray: 5.69,5.69; stroke-linecap: butt;"/>
<polyline points="205.73,105.11 199.14,107.12 192.54,109.61 185.94,112.39 179.34,115.16 172.74,117.86 166.15,120.35 159.55,122.44 152.95,124.17 146.35,125.50 139.75,126.27 133.16,126.56 126.56,126.36 119.96,125.53 113.36,124.18 106.76,122.31 100.17,119.83 93.57,116.87 86.97,113.48 80.37,109.58 73.77,105.35 67.18,100.90 60.58,96.26 53.98,91.79 47.38,87.74 " style="stroke-width: 1.07; stroke: none; stroke-dasharray: 5.69,5.69; stroke-linecap: butt;"/>
<polygon points="47.38,49.10 53.98,51.84 60.58,54.29 67.18,56.51 73.77,58.63 80.37,60.68 86.97,62.73 93.57,64.90 100.17,67.17 106.76,69.58 113.36,72.19 119.96,75.00 126.56,78.00 133.16,81.27 139.75,84.76 146.35,88.46 152.95,92.41 159.55,96.53 166.15,100.80 172.74,105.22 179.34,109.68 185.94,114.08 192.54,118.39 199.14,122.46 205.73,126.25 205.73,137.62 199.14,132.12 192.54,126.93 185.94,122.00 179.34,117.24 172.74,112.66 166.15,108.24 159.55,103.95 152.95,99.83 146.35,95.92 139.75,92.20 133.16,88.71 126.56,85.47 119.96,82.44 113.36,79.64 106.76,77.06 100.17,74.61 93.57,72.34 86.97,70.20 80.37,68.13 73.77,66.20 67.18,64.44 60.58,62.84 53.98,61.50 47.38,60.47 " style="stroke-width: 0.00; stroke: none; stroke-linecap: butt; fill: #DFC27D; fill-opacity: 0.10;"/>
<polyline points="47.38,49.10 53.98,51.84 60.58,54.29 67.18,56.51 73.77,58.63 80.37,60.68 86.97,62.73 93.57,64.90 100.17,67.17 106.76,69.58 113.36,72.19 119.96,75.00 126.56,78.00 133.16,81.27 139.75,84.76 146.35,88.46 152.95,92.41 159.55,96.53 166.15,100.80 172.74,105.22 179.34,109.68 185.94,114.08 192.54,118.39 199.14,122.46 205.73,126.25 " style="stroke-width: 1.07; stroke: none; stroke-dasharray: 1.42,4.27,5.69,4.27; stroke-linecap: butt;"/>
<polyline points="205.73,137.62 199.14,132.12 192.54,126.93 185.94,122.00 179.34,117.24 172.74,112.66 166.15,108.24 159.55,103.95 152.95,99.83 146.35,95.92 139.75,92.20 133.16,88.71 126.56,85.47 119.96,82.44 113.36,79.64 106.76,77.06 100.17,74.61 93.57,72.34 86.97,70.20 80.37,68.13 73.77,66.20 67.18,64.44 60.58,62.84 53.98,61.50 47.38,60.47 " style="stroke-width: 1.07; stroke: none; stroke-dasharray: 1.42,4.27,5.69,4.27; stroke-linecap: butt;"/>
<polyline points="47.38,73.95 53.98,75.12 60.58,76.28 67.18,77.44 73.77,78.59 80.37,79.73 86.97,80.85 93.57,81.96 100.17,83.04 106.76,84.11 113.36,85.14 119.96,86.15 126.56,87.12 133.16,88.05 139.75,88.96 146.35,89.82 152.95,90.65 159.55,91.46 166.15,92.23 172.74,92.98 179.34,93.71 185.94,94.42 192.54,95.12 199.14,95.82 205.73,96.51 " style="stroke-width: 2.13; stroke: #018571; stroke-linecap: butt;"/>
<polyline points="47.38,81.77 53.98,86.87 60.58,91.88 67.18,96.70 73.77,101.26 80.37,105.48 86.97,109.33 93.57,112.76 100.17,115.73 106.76,118.18 113.36,120.10 119.96,121.46 126.56,122.26 133.16,122.49 139.75,122.19 146.35,121.37 152.95,120.07 159.55,118.33 166.15,116.20 172.74,113.76 179.34,111.06 185.94,108.19 192.54,105.23 199.14,102.20 205.73,99.14 " style="stroke-width: 2.13; stroke: #80CDC1; stroke-dasharray: 11.38,11.38; stroke-linecap: butt;"/>
<polyline points="47.38,54.79 53.98,56.67 60.58,58.56 67.18,60.47 73.77,62.41 80.37,64.41 86.97,66.47 93.57,68.62 100.17,70.89 106.76,73.32 113.36,75.92 119.96,78.72 126.56,81.74 133.16,84.99 139.75,88.48 146.35,92.19 152.95,96.12 159.55,100.24 166.15,104.52 172.74,108.94 179.34,113.46 185.94,118.04 192.54,122.66 199.14,127.29 205.73,131.93 " style="stroke-width: 2.13; stroke: #DFC27D; stroke-dasharray: 2.85,8.54,11.38,8.54; stroke-linecap: butt;"/>
<rect x="39.47" y="44.68" width="174.19" height="97.36" style="stroke-width: 1.07; stroke: #333333;"/>
</g>
<g clip-path="url(#cpMC4wMHw1MDQuMDB8MC4wMHwxNzIuODA=)">
<text x="34.53" y="133.58" text-anchor="end" style="font-size: 10.00px; fill: #4D4D4D; font-family: Times New Roman;" textLength="17.51px" lengthAdjust="spacingAndGlyphs">0.01</text>
<text x="34.53" y="114.28" text-anchor="end" style="font-size: 10.00px; fill: #4D4D4D; font-family: Times New Roman;" textLength="17.51px" lengthAdjust="spacingAndGlyphs">0.02</text>
<text x="34.53" y="94.99" text-anchor="end" style="font-size: 10.00px; fill: #4D4D4D; font-family: Times New Roman;" textLength="17.51px" lengthAdjust="spacingAndGlyphs">0.03</text>
<text x="34.53" y="75.69" text-anchor="end" style="font-size: 10.00px; fill: #4D4D4D; font-family: Times New Roman;" textLength="17.51px" lengthAdjust="spacingAndGlyphs">0.04</text>
<text x="34.53" y="56.39" text-anchor="end" style="font-size: 10.00px; fill: #4D4D4D; font-family: Times New Roman;" textLength="17.51px" lengthAdjust="spacingAndGlyphs">0.05</text>
<polyline points="36.73,130.27 39.47,130.27 " style="stroke-width: 1.07; stroke: #333333; stroke-linecap: butt;"/>
<polyline points="36.73,110.97 39.47,110.97 " style="stroke-width: 1.07; stroke: #333333; stroke-linecap: butt;"/>
<polyline points="36.73,91.67 39.47,91.67 " style="stroke-width: 1.07; stroke: #333333; stroke-linecap: butt;"/>
<polyline points="36.73,72.38 39.47,72.38 " style="stroke-width: 1.07; stroke: #333333; stroke-linecap: butt;"/>
<polyline points="36.73,53.08 39.47,53.08 " style="stroke-width: 1.07; stroke: #333333; stroke-linecap: butt;"/>
<polyline points="47.38,144.78 47.38,142.04 " style="stroke-width: 1.07; stroke: #333333; stroke-linecap: butt;"/>
<polyline points="86.97,144.78 86.97,142.04 " style="stroke-width: 1.07; stroke: #333333; stroke-linecap: butt;"/>
<polyline points="126.56,144.78 126.56,142.04 " style="stroke-width: 1.07; stroke: #333333; stroke-linecap: butt;"/>
<polyline points="166.15,144.78 166.15,142.04 " style="stroke-width: 1.07; stroke: #333333; stroke-linecap: butt;"/>
<polyline points="205.73,144.78 205.73,142.04 " style="stroke-width: 1.07; stroke: #333333; stroke-linecap: butt;"/>
<text x="47.38" y="153.60" text-anchor="middle" style="font-size: 10.00px; fill: #4D4D4D; font-family: Times New Roman;" textLength="5.00px" lengthAdjust="spacingAndGlyphs">0</text>
<text x="86.97" y="153.60" text-anchor="middle" style="font-size: 10.00px; fill: #4D4D4D; font-family: Times New Roman;" textLength="10.01px" lengthAdjust="spacingAndGlyphs">25</text>
<text x="126.56" y="153.60" text-anchor="middle" style="font-size: 10.00px; fill: #4D4D4D; font-family: Times New Roman;" textLength="10.01px" lengthAdjust="spacingAndGlyphs">50</text>
<text x="166.15" y="153.60" text-anchor="middle" style="font-size: 10.00px; fill: #4D4D4D; font-family: Times New Roman;" textLength="10.01px" lengthAdjust="spacingAndGlyphs">75</text>
<text x="205.73" y="153.60" text-anchor="middle" style="font-size: 10.00px; fill: #4D4D4D; font-family: Times New Roman;" textLength="15.01px" lengthAdjust="spacingAndGlyphs">100</text>
<text x="126.56" y="165.14" text-anchor="middle" style="font-size: 10.00px; font-family: Times New Roman;" textLength="85.75px" lengthAdjust="spacingAndGlyphs">Time (normalized %)</text>
<text transform="translate(12.10,93.36) rotate(-90)" text-anchor="middle" style="font-size: 10.00px; font-family: Times New Roman;" textLength="16.68px" lengthAdjust="spacingAndGlyphs">SoE</text>
<rect x="34.49" y="5.48" width="184.14" height="28.24" style="stroke-width: 1.07; stroke: none; fill: #FFFFFF;"/>
<rect x="44.95" y="10.96" width="17.28" height="17.28" style="stroke-width: 1.07; stroke: none; fill: #FFFFFF;"/>
<rect x="45.66" y="11.67" width="15.86" height="15.86" style="stroke-width: 1.07; stroke: none; stroke-linecap: butt; stroke-linejoin: miter;"/>
<line x1="46.68" y1="19.60" x2="60.50" y2="19.60" style="stroke-width: 2.13; stroke: #018571; stroke-linecap: butt;"/>
<rect x="93.08" y="10.96" width="17.28" height="17.28" style="stroke-width: 1.07; stroke: none; fill: #FFFFFF;"/>
<rect x="93.79" y="11.67" width="15.86" height="15.86" style="stroke-width: 1.07; stroke: none; stroke-dasharray: 5.69,5.69; stroke-linecap: butt; stroke-linejoin: miter;"/>
<line x1="94.81" y1="19.60" x2="108.63" y2="19.60" style="stroke-width: 2.13; stroke: #80CDC1; stroke-dasharray: 11.38,11.38; stroke-linecap: butt;"/>
<rect x="162.98" y="10.96" width="17.28" height="17.28" style="stroke-width: 1.07; stroke: none; fill: #FFFFFF;"/>
<rect x="163.69" y="11.67" width="15.86" height="15.86" style="stroke-width: 1.07; stroke: none; stroke-dasharray: 1.42,4.27,5.69,4.27; stroke-linecap: butt; stroke-linejoin: miter;"/>
<line x1="164.70" y1="19.60" x2="178.53" y2="19.60" style="stroke-width: 2.13; stroke: #DFC27D; stroke-dasharray: 2.85,8.54,11.38,8.54; stroke-linecap: butt;"/>
<text x="67.21" y="22.25" style="font-size: 8.00px; font-family: Times New Roman;" textLength="20.89px" lengthAdjust="spacingAndGlyphs">Modal</text>
<text x="115.34" y="22.25" style="font-size: 8.00px; font-family: Times New Roman;" textLength="42.65px" lengthAdjust="spacingAndGlyphs">Rearticulated</text>
<text x="185.24" y="22.25" style="font-size: 8.00px; font-family: Times New Roman;" textLength="27.99px" lengthAdjust="spacingAndGlyphs">Checked</text>
</g>
<defs>
  <clipPath id="cpMjE5LjEzfDUwNC4wMHwwLjAwfDE3Mi44MA==">
    <rect x="219.13" y="0.00" width="284.87" height="172.80"/>
  </clipPath>
</defs>
<g clip-path="url(#cpMjE5LjEzfDUwNC4wMHwwLjAwfDE3Mi44MA==)">
<rect x="219.13" y="0.00" width="284.87" height="172.80" style="stroke-width: 1.07; stroke: #FFFFFF; fill: #FFFFFF;"/>
</g>
<g clip-path="url(#cpMC4wMHw1MDQuMDB8MC4wMHwxNzIuODA=)">
</g>
<defs>
  <clipPath id="cpMjY0LjIzfDMzOC42N3w2Mi4yNHwxNDIuMDU=">
    <rect x="264.23" y="62.24" width="74.45" height="79.80"/>
  </clipPath>
</defs>
<g clip-path="url(#cpMjY0LjIzfDMzOC42N3w2Mi4yNHwxNDIuMDU=)">
<rect x="264.23" y="62.24" width="74.45" height="79.80" style="stroke-width: 1.07; stroke: none; fill: #FFFFFF;"/>
<line x1="264.23" y1="99.07" x2="338.67" y2="99.07" style="stroke-width: 1.07; stroke: #8F5F3F; stroke-linecap: butt;"/>
<polygon points="267.61,87.20 268.29,86.69 268.98,86.17 269.66,85.63 270.34,85.07 271.03,84.49 271.71,83.89 272.39,83.28 273.08,82.66 273.76,82.03 274.45,81.40 275.13,80.76 275.81,80.14 276.50,79.51 277.18,78.90 277.86,78.30 278.55,77.71 279.23,77.12 279.91,76.55 280.60,75.98 281.28,75.42 281.96,74.88 282.65,74.35 283.33,73.83 284.02,73.33 284.70,72.86 285.38,72.40 286.07,71.97 286.75,71.56 287.43,71.16 288.12,70.79 288.80,70.43 289.48,70.09 290.17,69.77 290.85,69.47 291.54,69.18 292.22,68.93 292.90,68.70 293.59,68.50 294.27,68.32 294.95,68.17 295.64,68.05 296.32,67.95 297.00,67.86 297.69,67.80 298.37,67.76 299.06,67.74 299.74,67.74 300.42,67.77 301.11,67.83 301.79,67.91 302.47,68.02 303.16,68.16 303.84,68.32 304.52,68.50 305.21,68.71 305.89,68.93 306.57,69.17 307.26,69.43 307.94,69.71 308.63,70.01 309.31,70.34 309.99,70.69 310.68,71.06 311.36,71.46 312.04,71.88 312.73,72.32 313.41,72.77 314.09,73.24 314.78,73.72 315.46,74.22 316.15,74.72 316.83,75.25 317.51,75.79 318.20,76.34 318.88,76.92 319.56,77.51 320.25,78.11 320.93,78.73 321.61,79.35 322.30,79.98 322.98,80.61 323.67,81.24 324.35,81.88 325.03,82.51 325.72,83.15 326.40,83.79 327.08,84.43 327.77,85.07 328.45,85.70 329.13,86.33 329.82,86.95 330.50,87.55 331.19,88.14 331.87,88.71 331.87,98.24 331.19,97.40 330.50,96.59 329.82,95.79 329.13,95.01 328.45,94.25 327.77,93.50 327.08,92.75 326.40,92.02 325.72,91.30 325.03,90.58 324.35,89.87 323.67,89.18 322.98,88.50 322.30,87.83 321.61,87.18 320.93,86.55 320.25,85.93 319.56,85.32 318.88,84.72 318.20,84.13 317.51,83.56 316.83,82.99 316.15,82.44 315.46,81.91 314.78,81.39 314.09,80.90 313.41,80.43 312.73,79.98 312.04,79.55 311.36,79.13 310.68,78.74 309.99,78.37 309.31,78.01 308.63,77.67 307.94,77.34 307.26,77.04 306.57,76.77 305.89,76.52 305.21,76.29 304.52,76.09 303.84,75.92 303.16,75.78 302.47,75.65 301.79,75.55 301.11,75.47 300.42,75.40 299.74,75.36 299.06,75.34 298.37,75.35 297.69,75.39 297.00,75.45 296.32,75.54 295.64,75.66 294.95,75.81 294.27,75.97 293.59,76.16 292.90,76.38 292.22,76.61 291.54,76.86 290.85,77.13 290.17,77.43 289.48,77.75 288.80,78.09 288.12,78.46 287.43,78.86 286.75,79.28 286.07,79.72 285.38,80.18 284.70,80.65 284.02,81.14 283.33,81.64 282.65,82.16 281.96,82.70 281.28,83.26 280.60,83.84 279.91,84.44 279.23,85.07 278.55,85.71 277.86,86.38 277.18,87.06 276.50,87.76 275.81,88.47 275.13,89.20 274.45,89.95 273.76,90.72 273.08,91.51 272.39,92.33 271.71,93.17 271.03,94.04 270.34,94.93 269.66,95.85 268.98,96.80 268.29,97.77 267.61,98.75 " style="stroke-width: 0.00; stroke: none; stroke-linecap: butt; fill: #6F849C; fill-opacity: 0.30;"/>
<polyline points="267.61,87.20 268.29,86.69 268.98,86.17 269.66,85.63 270.34,85.07 271.03,84.49 271.71,83.89 272.39,83.28 273.08,82.66 273.76,82.03 274.45,81.40 275.13,80.76 275.81,80.14 276.50,79.51 277.18,78.90 277.86,78.30 278.55,77.71 279.23,77.12 279.91,76.55 280.60,75.98 281.28,75.42 281.96,74.88 282.65,74.35 283.33,73.83 284.02,73.33 284.70,72.86 285.38,72.40 286.07,71.97 286.75,71.56 287.43,71.16 288.12,70.79 288.80,70.43 289.48,70.09 290.17,69.77 290.85,69.47 291.54,69.18 292.22,68.93 292.90,68.70 293.59,68.50 294.27,68.32 294.95,68.17 295.64,68.05 296.32,67.95 297.00,67.86 297.69,67.80 298.37,67.76 299.06,67.74 299.74,67.74 300.42,67.77 301.11,67.83 301.79,67.91 302.47,68.02 303.16,68.16 303.84,68.32 304.52,68.50 305.21,68.71 305.89,68.93 306.57,69.17 307.26,69.43 307.94,69.71 308.63,70.01 309.31,70.34 309.99,70.69 310.68,71.06 311.36,71.46 312.04,71.88 312.73,72.32 313.41,72.77 314.09,73.24 314.78,73.72 315.46,74.22 316.15,74.72 316.83,75.25 317.51,75.79 318.20,76.34 318.88,76.92 319.56,77.51 320.25,78.11 320.93,78.73 321.61,79.35 322.30,79.98 322.98,80.61 323.67,81.24 324.35,81.88 325.03,82.51 325.72,83.15 326.40,83.79 327.08,84.43 327.77,85.07 328.45,85.70 329.13,86.33 329.82,86.95 330.50,87.55 331.19,88.14 331.87,88.71 " style="stroke-width: 1.07; stroke: none; stroke-linecap: butt;"/>
<polyline points="331.87,98.24 331.19,97.40 330.50,96.59 329.82,95.79 329.13,95.01 328.45,94.25 327.77,93.50 327.08,92.75 326.40,92.02 325.72,91.30 325.03,90.58 324.35,89.87 323.67,89.18 322.98,88.50 322.30,87.83 321.61,87.18 320.93,86.55 320.25,85.93 319.56,85.32 318.88,84.72 318.20,84.13 317.51,83.56 316.83,82.99 316.15,82.44 315.46,81.91 314.78,81.39 314.09,80.90 313.41,80.43 312.73,79.98 312.04,79.55 311.36,79.13 310.68,78.74 309.99,78.37 309.31,78.01 308.63,77.67 307.94,77.34 307.26,77.04 306.57,76.77 305.89,76.52 305.21,76.29 304.52,76.09 303.84,75.92 303.16,75.78 302.47,75.65 301.79,75.55 301.11,75.47 300.42,75.40 299.74,75.36 299.06,75.34 298.37,75.35 297.69,75.39 297.00,75.45 296.32,75.54 295.64,75.66 294.95,75.81 294.27,75.97 293.59,76.16 292.90,76.38 292.22,76.61 291.54,76.86 290.85,77.13 290.17,77.43 289.48,77.75 288.80,78.09 288.12,78.46 287.43,78.86 286.75,79.28 286.07,79.72 285.38,80.18 284.70,80.65 284.02,81.14 283.33,81.64 282.65,82.16 281.96,82.70 281.28,83.26 280.60,83.84 279.91,84.44 279.23,85.07 278.55,85.71 277.86,86.38 277.18,87.06 276.50,87.76 275.81,88.47 275.13,89.20 274.45,89.95 273.76,90.72 273.08,91.51 272.39,92.33 271.71,93.17 271.03,94.04 270.34,94.93 269.66,95.85 268.98,96.80 268.29,97.77 267.61,98.75 " style="stroke-width: 1.07; stroke: none; stroke-linecap: butt;"/>
<polygon points="332.55,89.26 333.24,89.79 333.92,90.29 334.60,90.78 335.29,91.25 335.29,102.79 334.60,101.84 333.92,100.91 333.24,100.00 332.55,99.11 " style="stroke-width: 0.00; stroke: none; stroke-linecap: butt; fill: #E35760; fill-opacity: 0.30;"/>
<polyline points="332.55,89.26 333.24,89.79 333.92,90.29 334.60,90.78 335.29,91.25 " style="stroke-width: 1.07; stroke: none; stroke-linecap: butt;"/>
<polyline points="335.29,102.79 334.60,101.84 333.92,100.91 333.24,100.00 332.55,99.11 " style="stroke-width: 1.07; stroke: none; stroke-linecap: butt;"/>
<polyline points="267.61,92.98 268.29,92.23 268.98,91.48 269.66,90.74 270.34,90.00 271.03,89.26 271.71,88.53 272.39,87.81 273.08,87.09 273.76,86.38 274.45,85.68 275.13,84.98 275.81,84.30 276.50,83.64 277.18,82.98 277.86,82.34 278.55,81.71 279.23,81.10 279.91,80.50 280.60,79.91 281.28,79.34 281.96,78.79 282.65,78.26 283.33,77.74 284.02,77.24 284.70,76.75 285.38,76.29 286.07,75.84 286.75,75.42 287.43,75.01 288.12,74.63 288.80,74.26 289.48,73.92 290.17,73.60 290.85,73.30 291.54,73.02 292.22,72.77 292.90,72.54 293.59,72.33 294.27,72.15 294.95,71.99 295.64,71.85 296.32,71.74 297.00,71.66 297.69,71.59 298.37,71.56 299.06,71.54 299.74,71.55 300.42,71.59 301.11,71.65 301.79,71.73 302.47,71.84 303.16,71.97 303.84,72.12 304.52,72.30 305.21,72.50 305.89,72.72 306.57,72.97 307.26,73.24 307.94,73.53 308.63,73.84 309.31,74.17 309.99,74.53 310.68,74.90 311.36,75.30 312.04,75.71 312.73,76.15 313.41,76.60 314.09,77.07 314.78,77.56 315.46,78.06 316.15,78.58 316.83,79.12 317.51,79.67 318.20,80.24 318.88,80.82 319.56,81.41 320.25,82.02 320.93,82.64 321.61,83.27 322.30,83.91 322.98,84.56 323.67,85.21 324.35,85.88 325.03,86.55 325.72,87.22 326.40,87.91 327.08,88.59 327.77,89.28 328.45,89.97 329.13,90.67 329.82,91.37 330.50,92.07 331.19,92.77 331.87,93.48 " style="stroke-width: 2.13; stroke: #6F849C; stroke-linecap: butt;"/>
<polyline points="332.55,94.18 333.24,94.89 333.92,95.60 334.60,96.31 335.29,97.02 " style="stroke-width: 2.13; stroke: #E35760; stroke-linecap: butt;"/>
<rect x="264.23" y="62.24" width="74.45" height="79.80" style="stroke-width: 1.07; stroke: #333333;"/>
</g>
<g clip-path="url(#cpMC4wMHw1MDQuMDB8MC4wMHwxNzIuODA=)">
</g>
<defs>
  <clipPath id="cpMzQ0LjE1fDQxOC42MHw2Mi4yNHwxNDIuMDU=">
    <rect x="344.15" y="62.24" width="74.45" height="79.80"/>
  </clipPath>
</defs>
<g clip-path="url(#cpMzQ0LjE1fDQxOC42MHw2Mi4yNHwxNDIuMDU=)">
<rect x="344.15" y="62.24" width="74.45" height="79.80" style="stroke-width: 1.07; stroke: none; fill: #FFFFFF;"/>
<line x1="344.15" y1="99.07" x2="418.60" y2="99.07" style="stroke-width: 1.07; stroke: #8F5F3F; stroke-linecap: butt;"/>
<polygon points="347.53,108.40 348.22,108.46 348.90,108.51 349.58,108.55 350.27,108.58 350.95,108.59 351.64,108.59 352.32,108.57 353.00,108.54 353.69,108.50 354.37,108.44 355.05,108.38 355.74,108.30 356.42,108.22 357.10,108.13 357.79,108.03 358.47,107.93 359.16,107.81 359.84,107.69 360.52,107.56 361.21,107.42 361.89,107.27 362.57,107.11 363.26,106.94 363.94,106.77 364.62,106.60 365.31,106.41 365.99,106.23 366.68,106.04 367.36,105.84 368.04,105.63 368.73,105.41 369.41,105.19 370.09,104.95 370.78,104.71 371.46,104.45 372.14,104.19 372.83,103.92 373.51,103.64 374.19,103.36 374.88,103.06 375.56,102.76 376.25,102.44 376.93,102.11 377.61,101.77 378.30,101.42 378.98,101.05 379.66,100.67 380.35,100.28 381.03,99.88 381.71,99.47 381.71,106.63 381.03,107.05 380.35,107.44 379.66,107.83 378.98,108.20 378.30,108.56 377.61,108.91 376.93,109.25 376.25,109.59 375.56,109.91 374.88,110.22 374.19,110.53 373.51,110.82 372.83,111.10 372.14,111.37 371.46,111.63 370.78,111.88 370.09,112.12 369.41,112.36 368.73,112.59 368.04,112.81 367.36,113.03 366.68,113.25 365.99,113.46 365.31,113.67 364.62,113.87 363.94,114.06 363.26,114.25 362.57,114.44 361.89,114.62 361.21,114.80 360.52,114.99 359.84,115.18 359.16,115.37 358.47,115.56 357.79,115.76 357.10,115.96 356.42,116.17 355.74,116.38 355.05,116.59 354.37,116.81 353.69,117.04 353.00,117.27 352.32,117.52 351.64,117.78 350.95,118.05 350.27,118.34 349.58,118.64 348.90,118.95 348.22,119.27 347.53,119.60 " style="stroke-width: 0.00; stroke: none; stroke-linecap: butt; fill: #6F849C; fill-opacity: 0.30;"/>
<polyline points="347.53,108.40 348.22,108.46 348.90,108.51 349.58,108.55 350.27,108.58 350.95,108.59 351.64,108.59 352.32,108.57 353.00,108.54 353.69,108.50 354.37,108.44 355.05,108.38 355.74,108.30 356.42,108.22 357.10,108.13 357.79,108.03 358.47,107.93 359.16,107.81 359.84,107.69 360.52,107.56 361.21,107.42 361.89,107.27 362.57,107.11 363.26,106.94 363.94,106.77 364.62,106.60 365.31,106.41 365.99,106.23 366.68,106.04 367.36,105.84 368.04,105.63 368.73,105.41 369.41,105.19 370.09,104.95 370.78,104.71 371.46,104.45 372.14,104.19 372.83,103.92 373.51,103.64 374.19,103.36 374.88,103.06 375.56,102.76 376.25,102.44 376.93,102.11 377.61,101.77 378.30,101.42 378.98,101.05 379.66,100.67 380.35,100.28 381.03,99.88 381.71,99.47 " style="stroke-width: 1.07; stroke: none; stroke-linecap: butt;"/>
<polyline points="381.71,106.63 381.03,107.05 380.35,107.44 379.66,107.83 378.98,108.20 378.30,108.56 377.61,108.91 376.93,109.25 376.25,109.59 375.56,109.91 374.88,110.22 374.19,110.53 373.51,110.82 372.83,111.10 372.14,111.37 371.46,111.63 370.78,111.88 370.09,112.12 369.41,112.36 368.73,112.59 368.04,112.81 367.36,113.03 366.68,113.25 365.99,113.46 365.31,113.67 364.62,113.87 363.94,114.06 363.26,114.25 362.57,114.44 361.89,114.62 361.21,114.80 360.52,114.99 359.84,115.18 359.16,115.37 358.47,115.56 357.79,115.76 357.10,115.96 356.42,116.17 355.74,116.38 355.05,116.59 354.37,116.81 353.69,117.04 353.00,117.27 352.32,117.52 351.64,117.78 350.95,118.05 350.27,118.34 349.58,118.64 348.90,118.95 348.22,119.27 347.53,119.60 " style="stroke-width: 1.07; stroke: none; stroke-linecap: butt;"/>
<polygon points="382.40,99.05 383.08,98.61 383.77,98.17 384.45,97.71 385.13,97.24 385.82,96.75 386.50,96.25 387.18,95.74 387.87,95.21 388.55,94.67 389.23,94.12 389.92,93.56 390.60,93.00 391.29,92.42 391.29,99.58 390.60,100.17 389.92,100.74 389.23,101.29 388.55,101.83 387.87,102.36 387.18,102.88 386.50,103.39 385.82,103.89 385.13,104.37 384.45,104.85 383.77,105.31 383.08,105.77 382.40,106.21 " style="stroke-width: 0.00; stroke: none; stroke-linecap: butt; fill: #E35760; fill-opacity: 0.30;"/>
<polyline points="382.40,99.05 383.08,98.61 383.77,98.17 384.45,97.71 385.13,97.24 385.82,96.75 386.50,96.25 387.18,95.74 387.87,95.21 388.55,94.67 389.23,94.12 389.92,93.56 390.60,93.00 391.29,92.42 " style="stroke-width: 1.07; stroke: none; stroke-linecap: butt;"/>
<polyline points="391.29,99.58 390.60,100.17 389.92,100.74 389.23,101.29 388.55,101.83 387.87,102.36 387.18,102.88 386.50,103.39 385.82,103.89 385.13,104.37 384.45,104.85 383.77,105.31 383.08,105.77 382.40,106.21 " style="stroke-width: 1.07; stroke: none; stroke-linecap: butt;"/>
<polygon points="391.97,91.83 392.65,91.23 393.34,90.62 394.02,89.99 394.70,89.36 395.39,88.71 396.07,88.06 396.75,87.39 397.44,86.71 398.12,86.03 398.80,85.34 399.49,84.64 400.17,83.94 400.86,83.22 401.54,82.50 402.22,81.77 402.91,81.02 403.59,80.27 404.27,79.50 404.96,78.73 405.64,77.95 406.32,77.15 407.01,76.35 407.69,75.55 408.38,74.73 409.06,73.90 409.74,73.07 410.43,72.22 411.11,71.35 411.79,70.47 412.48,69.58 413.16,68.67 413.84,67.75 414.53,66.82 415.21,65.87 415.21,77.06 414.53,77.60 413.84,78.16 413.16,78.73 412.48,79.32 411.79,79.92 411.11,80.53 410.43,81.15 409.74,81.78 409.06,82.43 408.38,83.08 407.69,83.74 407.01,84.41 406.32,85.08 405.64,85.76 404.96,86.43 404.27,87.12 403.59,87.80 402.91,88.49 402.22,89.18 401.54,89.87 400.86,90.56 400.17,91.25 399.49,91.93 398.80,92.61 398.12,93.28 397.44,93.95 396.75,94.60 396.07,95.25 395.39,95.89 394.70,96.53 394.02,97.15 393.34,97.77 392.65,98.39 391.97,98.99 " style="stroke-width: 0.00; stroke: none; stroke-linecap: butt; fill: #6F849C; fill-opacity: 0.30;"/>
<polyline points="391.97,91.83 392.65,91.23 393.34,90.62 394.02,89.99 394.70,89.36 395.39,88.71 396.07,88.06 396.75,87.39 397.44,86.71 398.12,86.03 398.80,85.34 399.49,84.64 400.17,83.94 400.86,83.22 401.54,82.50 402.22,81.77 402.91,81.02 403.59,80.27 404.27,79.50 404.96,78.73 405.64,77.95 406.32,77.15 407.01,76.35 407.69,75.55 408.38,74.73 409.06,73.90 409.74,73.07 410.43,72.22 411.11,71.35 411.79,70.47 412.48,69.58 413.16,68.67 413.84,67.75 414.53,66.82 415.21,65.87 " style="stroke-width: 1.07; stroke: none; stroke-linecap: butt;"/>
<polyline points="415.21,77.06 414.53,77.60 413.84,78.16 413.16,78.73 412.48,79.32 411.79,79.92 411.11,80.53 410.43,81.15 409.74,81.78 409.06,82.43 408.38,83.08 407.69,83.74 407.01,84.41 406.32,85.08 405.64,85.76 404.96,86.43 404.27,87.12 403.59,87.80 402.91,88.49 402.22,89.18 401.54,89.87 400.86,90.56 400.17,91.25 399.49,91.93 398.80,92.61 398.12,93.28 397.44,93.95 396.75,94.60 396.07,95.25 395.39,95.89 394.70,96.53 394.02,97.15 393.34,97.77 392.65,98.39 391.97,98.99 " style="stroke-width: 1.07; stroke: none; stroke-linecap: butt;"/>
<polyline points="347.53,114.00 348.22,113.87 348.90,113.73 349.58,113.59 350.27,113.46 350.95,113.32 351.64,113.18 352.32,113.05 353.00,112.91 353.69,112.77 354.37,112.63 355.05,112.48 355.74,112.34 356.42,112.19 357.10,112.05 357.79,111.90 358.47,111.75 359.16,111.59 359.84,111.43 360.52,111.27 361.21,111.11 361.89,110.94 362.57,110.77 363.26,110.60 363.94,110.42 364.62,110.23 365.31,110.04 365.99,109.84 366.68,109.64 367.36,109.44 368.04,109.22 368.73,109.00 369.41,108.77 370.09,108.54 370.78,108.29 371.46,108.04 372.14,107.78 372.83,107.51 373.51,107.23 374.19,106.94 374.88,106.64 375.56,106.33 376.25,106.01 376.93,105.68 377.61,105.34 378.30,104.99 378.98,104.63 379.66,104.25 380.35,103.86 381.03,103.46 381.71,103.05 " style="stroke-width: 2.13; stroke: #6F849C; stroke-linecap: butt;"/>
<polyline points="382.40,102.63 383.08,102.19 383.77,101.74 384.45,101.28 385.13,100.81 385.82,100.32 386.50,99.82 387.18,99.31 387.87,98.79 388.55,98.25 389.23,97.71 389.92,97.15 390.60,96.58 391.29,96.00 " style="stroke-width: 2.13; stroke: #E35760; stroke-linecap: butt;"/>
<polyline points="391.97,95.41 392.65,94.81 393.34,94.20 394.02,93.57 394.70,92.94 395.39,92.30 396.07,91.65 396.75,90.99 397.44,90.33 398.12,89.66 398.80,88.97 399.49,88.29 400.17,87.59 400.86,86.89 401.54,86.18 402.22,85.47 402.91,84.76 403.59,84.03 404.27,83.31 404.96,82.58 405.64,81.85 406.32,81.12 407.01,80.38 407.69,79.64 408.38,78.91 409.06,78.17 409.74,77.42 410.43,76.68 411.11,75.94 411.79,75.19 412.48,74.45 413.16,73.70 413.84,72.96 414.53,72.21 415.21,71.46 " style="stroke-width: 2.13; stroke: #6F849C; stroke-linecap: butt;"/>
<rect x="344.15" y="62.24" width="74.45" height="79.80" style="stroke-width: 1.07; stroke: #333333;"/>
</g>
<g clip-path="url(#cpMC4wMHw1MDQuMDB8MC4wMHwxNzIuODA=)">
</g>
<defs>
  <clipPath id="cpNDI0LjA4fDQ5OC41Mnw2Mi4yNHwxNDIuMDU=">
    <rect x="424.08" y="62.24" width="74.45" height="79.80"/>
  </clipPath>
</defs>
<g clip-path="url(#cpNDI0LjA4fDQ5OC41Mnw2Mi4yNHwxNDIuMDU=)">
<rect x="424.08" y="62.24" width="74.45" height="79.80" style="stroke-width: 1.07; stroke: none; fill: #FFFFFF;"/>
<line x1="424.08" y1="99.07" x2="498.52" y2="99.07" style="stroke-width: 1.07; stroke: #8F5F3F; stroke-linecap: butt;"/>
<polygon points="427.46,113.67 428.14,114.57 428.83,115.45 429.51,116.30 430.19,117.13 430.88,117.92 431.56,118.68 432.24,119.40 432.93,120.09 433.61,120.75 434.30,121.39 434.98,122.00 435.66,122.59 436.35,123.15 437.03,123.70 437.71,124.23 438.40,124.74 439.08,125.22 439.76,125.68 440.45,126.11 441.13,126.52 441.81,126.90 442.50,127.25 443.18,127.59 443.87,127.90 444.55,128.20 445.23,128.48 445.92,128.73 446.60,128.97 447.28,129.17 447.97,129.35 448.65,129.49 449.33,129.61 450.02,129.69 450.70,129.74 451.39,129.75 452.07,129.74 452.75,129.70 453.44,129.63 454.12,129.53 454.80,129.40 455.49,129.24 456.17,129.04 456.85,128.80 457.54,128.52 458.22,128.20 458.91,127.85 459.59,127.45 460.27,127.02 460.96,126.56 461.64,126.07 462.32,125.54 463.01,124.98 463.69,124.38 464.37,123.75 465.06,123.08 465.74,122.37 466.42,121.62 467.11,120.83 467.79,120.01 468.48,119.15 469.16,118.27 469.84,117.35 470.53,116.41 471.21,115.44 471.89,114.44 472.58,113.41 473.26,112.36 473.94,111.27 474.63,110.14 475.31,108.99 476.00,107.82 476.68,106.61 477.36,105.39 478.05,104.14 478.73,102.88 479.41,101.61 480.10,100.32 480.10,108.96 479.41,110.27 478.73,111.56 478.05,112.82 477.36,114.06 476.68,115.27 476.00,116.46 475.31,117.62 474.63,118.76 473.94,119.88 473.26,120.97 472.58,122.04 471.89,123.08 471.21,124.10 470.53,125.08 469.84,126.03 469.16,126.93 468.48,127.80 467.79,128.64 467.11,129.44 466.42,130.21 465.74,130.95 465.06,131.66 464.37,132.34 463.69,132.99 463.01,133.60 462.32,134.18 461.64,134.71 460.96,135.21 460.27,135.66 459.59,136.08 458.91,136.45 458.22,136.80 457.54,137.11 456.85,137.39 456.17,137.63 455.49,137.85 454.80,138.04 454.12,138.19 453.44,138.30 452.75,138.38 452.07,138.42 451.39,138.42 450.70,138.39 450.02,138.32 449.33,138.23 448.65,138.11 447.97,137.97 447.28,137.81 446.60,137.62 445.92,137.40 445.23,137.16 444.55,136.89 443.87,136.59 443.18,136.26 442.50,135.91 441.81,135.54 441.13,135.15 440.45,134.74 439.76,134.33 439.08,133.90 438.40,133.46 437.71,133.02 437.03,132.56 436.35,132.09 435.66,131.62 434.98,131.13 434.30,130.65 433.61,130.16 432.93,129.68 432.24,129.21 431.56,128.76 430.88,128.33 430.19,127.92 429.51,127.54 428.83,127.18 428.14,126.83 427.46,126.51 " style="stroke-width: 0.00; stroke: none; stroke-linecap: butt; fill: #6F849C; fill-opacity: 0.30;"/>
<polyline points="427.46,113.67 428.14,114.57 428.83,115.45 429.51,116.30 430.19,117.13 430.88,117.92 431.56,118.68 432.24,119.40 432.93,120.09 433.61,120.75 434.30,121.39 434.98,122.00 435.66,122.59 436.35,123.15 437.03,123.70 437.71,124.23 438.40,124.74 439.08,125.22 439.76,125.68 440.45,126.11 441.13,126.52 441.81,126.90 442.50,127.25 443.18,127.59 443.87,127.90 444.55,128.20 445.23,128.48 445.92,128.73 446.60,128.97 447.28,129.17 447.97,129.35 448.65,129.49 449.33,129.61 450.02,129.69 450.70,129.74 451.39,129.75 452.07,129.74 452.75,129.70 453.44,129.63 454.12,129.53 454.80,129.40 455.49,129.24 456.17,129.04 456.85,128.80 457.54,128.52 458.22,128.20 458.91,127.85 459.59,127.45 460.27,127.02 460.96,126.56 461.64,126.07 462.32,125.54 463.01,124.98 463.69,124.38 464.37,123.75 465.06,123.08 465.74,122.37 466.42,121.62 467.11,120.83 467.79,120.01 468.48,119.15 469.16,118.27 469.84,117.35 470.53,116.41 471.21,115.44 471.89,114.44 472.58,113.41 473.26,112.36 473.94,111.27 474.63,110.14 475.31,108.99 476.00,107.82 476.68,106.61 477.36,105.39 478.05,104.14 478.73,102.88 479.41,101.61 480.10,100.32 " style="stroke-width: 1.07; stroke: none; stroke-linecap: butt;"/>
<polyline points="480.10,108.96 479.41,110.27 478.73,111.56 478.05,112.82 477.36,114.06 476.68,115.27 476.00,116.46 475.31,117.62 474.63,118.76 473.94,119.88 473.26,120.97 472.58,122.04 471.89,123.08 471.21,124.10 470.53,125.08 469.84,126.03 469.16,126.93 468.48,127.80 467.79,128.64 467.11,129.44 466.42,130.21 465.74,130.95 465.06,131.66 464.37,132.34 463.69,132.99 463.01,133.60 462.32,134.18 461.64,134.71 460.96,135.21 460.27,135.66 459.59,136.08 458.91,136.45 458.22,136.80 457.54,137.11 456.85,137.39 456.17,137.63 455.49,137.85 454.80,138.04 454.12,138.19 453.44,138.30 452.75,138.38 452.07,138.42 451.39,138.42 450.70,138.39 450.02,138.32 449.33,138.23 448.65,138.11 447.97,137.97 447.28,137.81 446.60,137.62 445.92,137.40 445.23,137.16 444.55,136.89 443.87,136.59 443.18,136.26 442.50,135.91 441.81,135.54 441.13,135.15 440.45,134.74 439.76,134.33 439.08,133.90 438.40,133.46 437.71,133.02 437.03,132.56 436.35,132.09 435.66,131.62 434.98,131.13 434.30,130.65 433.61,130.16 432.93,129.68 432.24,129.21 431.56,128.76 430.88,128.33 430.19,127.92 429.51,127.54 428.83,127.18 428.14,126.83 427.46,126.51 " style="stroke-width: 1.07; stroke: none; stroke-linecap: butt;"/>
<polygon points="480.78,99.00 481.46,97.67 482.15,96.32 482.83,94.95 483.52,93.56 484.20,92.14 484.88,90.71 484.88,99.49 484.20,100.86 483.52,102.22 482.83,103.58 482.15,104.94 481.46,106.29 480.78,107.63 " style="stroke-width: 0.00; stroke: none; stroke-linecap: butt; fill: #E35760; fill-opacity: 0.30;"/>
<polyline points="480.78,99.00 481.46,97.67 482.15,96.32 482.83,94.95 483.52,93.56 484.20,92.14 484.88,90.71 " style="stroke-width: 1.07; stroke: none; stroke-linecap: butt;"/>
<polyline points="484.88,99.49 484.20,100.86 483.52,102.22 482.83,103.58 482.15,104.94 481.46,106.29 480.78,107.63 " style="stroke-width: 1.07; stroke: none; stroke-linecap: butt;"/>
<polygon points="485.57,89.27 486.25,87.81 486.93,86.34 487.62,84.86 488.30,83.37 488.98,81.86 489.67,80.33 490.35,78.77 491.03,77.19 491.72,75.58 492.40,73.93 493.09,72.26 493.77,70.56 494.45,68.84 495.14,67.09 495.14,79.93 494.45,81.10 493.77,82.28 493.09,83.49 492.40,84.73 491.72,85.99 491.03,87.27 490.35,88.58 489.67,89.91 488.98,91.26 488.30,92.62 487.62,93.99 486.93,95.37 486.25,96.74 485.57,98.12 " style="stroke-width: 0.00; stroke: none; stroke-linecap: butt; fill: #6F849C; fill-opacity: 0.30;"/>
<polyline points="485.57,89.27 486.25,87.81 486.93,86.34 487.62,84.86 488.30,83.37 488.98,81.86 489.67,80.33 490.35,78.77 491.03,77.19 491.72,75.58 492.40,73.93 493.09,72.26 493.77,70.56 494.45,68.84 495.14,67.09 " style="stroke-width: 1.07; stroke: none; stroke-linecap: butt;"/>
<polyline points="495.14,79.93 494.45,81.10 493.77,82.28 493.09,83.49 492.40,84.73 491.72,85.99 491.03,87.27 490.35,88.58 489.67,89.91 488.98,91.26 488.30,92.62 487.62,93.99 486.93,95.37 486.25,96.74 485.57,98.12 " style="stroke-width: 1.07; stroke: none; stroke-linecap: butt;"/>
<polyline points="427.46,120.09 428.14,120.70 428.83,121.31 429.51,121.92 430.19,122.53 430.88,123.13 431.56,123.72 432.24,124.31 432.93,124.89 433.61,125.46 434.30,126.02 434.98,126.57 435.66,127.10 436.35,127.62 437.03,128.13 437.71,128.63 438.40,129.10 439.08,129.56 439.76,130.00 440.45,130.43 441.13,130.83 441.81,131.22 442.50,131.58 443.18,131.93 443.87,132.25 444.55,132.54 445.23,132.82 445.92,133.07 446.60,133.29 447.28,133.49 447.97,133.66 448.65,133.80 449.33,133.92 450.02,134.00 450.70,134.06 451.39,134.09 452.07,134.08 452.75,134.04 453.44,133.97 454.12,133.86 454.80,133.72 455.49,133.55 456.17,133.34 456.85,133.09 457.54,132.81 458.22,132.50 458.91,132.15 459.59,131.76 460.27,131.34 460.96,130.88 461.64,130.39 462.32,129.86 463.01,129.29 463.69,128.69 464.37,128.05 465.06,127.37 465.74,126.66 466.42,125.92 467.11,125.14 467.79,124.33 468.48,123.48 469.16,122.60 469.84,121.69 470.53,120.74 471.21,119.77 471.89,118.76 472.58,117.73 473.26,116.66 473.94,115.57 474.63,114.45 475.31,113.31 476.00,112.14 476.68,110.94 477.36,109.72 478.05,108.48 478.73,107.22 479.41,105.94 480.10,104.64 " style="stroke-width: 2.13; stroke: #6F849C; stroke-linecap: butt;"/>
<polyline points="480.78,103.32 481.46,101.98 482.15,100.63 482.83,99.27 483.52,97.89 484.20,96.50 484.88,95.10 " style="stroke-width: 2.13; stroke: #E35760; stroke-linecap: butt;"/>
<polyline points="485.57,93.69 486.25,92.28 486.93,90.86 487.62,89.43 488.30,88.00 488.98,86.56 489.67,85.12 490.35,83.68 491.03,82.23 491.72,80.78 492.40,79.33 493.09,77.88 493.77,76.42 494.45,74.97 495.14,73.51 " style="stroke-width: 2.13; stroke: #6F849C; stroke-linecap: butt;"/>
<rect x="424.08" y="62.24" width="74.45" height="79.80" style="stroke-width: 1.07; stroke: #333333;"/>
</g>
<g clip-path="url(#cpMC4wMHw1MDQuMDB8MC4wMHwxNzIuODA=)">
</g>
<defs>
  <clipPath id="cpMjY0LjIzfDMzOC42N3w0NC42OHw2Mi4yNA==">
    <rect x="264.23" y="44.68" width="74.45" height="17.57"/>
  </clipPath>
</defs>
<g clip-path="url(#cpMjY0LjIzfDMzOC42N3w0NC42OHw2Mi4yNA==)">
<rect x="264.23" y="44.68" width="74.45" height="17.57" style="stroke-width: 1.07; stroke: #333333; fill: #D9D9D9;"/>
<text x="301.45" y="56.77" text-anchor="middle" style="font-size: 10.00px; fill: #1A1A1A; font-family: Times New Roman;" textLength="18.89px" lengthAdjust="spacingAndGlyphs">M-R</text>
</g>
<g clip-path="url(#cpMC4wMHw1MDQuMDB8MC4wMHwxNzIuODA=)">
</g>
<defs>
  <clipPath id="cpMzQ0LjE1fDQxOC42MHw0NC42OHw2Mi4yNA==">
    <rect x="344.15" y="44.68" width="74.45" height="17.57"/>
  </clipPath>
</defs>
<g clip-path="url(#cpMzQ0LjE1fDQxOC42MHw0NC42OHw2Mi4yNA==)">
<rect x="344.15" y="44.68" width="74.45" height="17.57" style="stroke-width: 1.07; stroke: #333333; fill: #D9D9D9;"/>
<text x="381.37" y="56.77" text-anchor="middle" style="font-size: 10.00px; fill: #1A1A1A; font-family: Times New Roman;" textLength="18.89px" lengthAdjust="spacingAndGlyphs">M-C</text>
</g>
<g clip-path="url(#cpMC4wMHw1MDQuMDB8MC4wMHwxNzIuODA=)">
</g>
<defs>
  <clipPath id="cpNDI0LjA4fDQ5OC41Mnw0NC42OHw2Mi4yNA==">
    <rect x="424.08" y="44.68" width="74.45" height="17.57"/>
  </clipPath>
</defs>
<g clip-path="url(#cpNDI0LjA4fDQ5OC41Mnw0NC42OHw2Mi4yNA==)">
<rect x="424.08" y="44.68" width="74.45" height="17.57" style="stroke-width: 1.07; stroke: #333333; fill: #D9D9D9;"/>
<text x="461.30" y="56.77" text-anchor="middle" style="font-size: 10.00px; fill: #1A1A1A; font-family: Times New Roman;" textLength="16.67px" lengthAdjust="spacingAndGlyphs">R-C</text>
</g>
<g clip-path="url(#cpMC4wMHw1MDQuMDB8MC4wMHwxNzIuODA=)">
<polyline points="267.61,144.79 267.61,142.05 " style="stroke-width: 1.07; stroke: #333333; stroke-linecap: butt;"/>
<polyline points="284.53,144.79 284.53,142.05 " style="stroke-width: 1.07; stroke: #333333; stroke-linecap: butt;"/>
<polyline points="301.45,144.79 301.45,142.05 " style="stroke-width: 1.07; stroke: #333333; stroke-linecap: butt;"/>
<polyline points="318.37,144.79 318.37,142.05 " style="stroke-width: 1.07; stroke: #333333; stroke-linecap: butt;"/>
<polyline points="335.29,144.79 335.29,142.05 " style="stroke-width: 1.07; stroke: #333333; stroke-linecap: butt;"/>
<text x="267.61" y="153.60" text-anchor="middle" style="font-size: 10.00px; fill: #4D4D4D; font-family: Times New Roman;" textLength="5.00px" lengthAdjust="spacingAndGlyphs">0</text>
<text x="284.53" y="153.60" text-anchor="middle" style="font-size: 10.00px; fill: #4D4D4D; font-family: Times New Roman;" textLength="10.01px" lengthAdjust="spacingAndGlyphs">25</text>
<text x="301.45" y="153.60" text-anchor="middle" style="font-size: 10.00px; fill: #4D4D4D; font-family: Times New Roman;" textLength="10.01px" lengthAdjust="spacingAndGlyphs">50</text>
<text x="318.37" y="153.60" text-anchor="middle" style="font-size: 10.00px; fill: #4D4D4D; font-family: Times New Roman;" textLength="10.01px" lengthAdjust="spacingAndGlyphs">75</text>
<text x="335.29" y="153.60" text-anchor="middle" style="font-size: 10.00px; fill: #4D4D4D; font-family: Times New Roman;" textLength="15.01px" lengthAdjust="spacingAndGlyphs">100</text>
<polyline points="347.53,144.79 347.53,142.05 " style="stroke-width: 1.07; stroke: #333333; stroke-linecap: butt;"/>
<polyline points="364.45,144.79 364.45,142.05 " style="stroke-width: 1.07; stroke: #333333; stroke-linecap: butt;"/>
<polyline points="381.37,144.79 381.37,142.05 " style="stroke-width: 1.07; stroke: #333333; stroke-linecap: butt;"/>
<polyline points="398.29,144.79 398.29,142.05 " style="stroke-width: 1.07; stroke: #333333; stroke-linecap: butt;"/>
<polyline points="415.21,144.79 415.21,142.05 " style="stroke-width: 1.07; stroke: #333333; stroke-linecap: butt;"/>
<text x="347.53" y="153.60" text-anchor="middle" style="font-size: 10.00px; fill: #4D4D4D; font-family: Times New Roman;" textLength="5.00px" lengthAdjust="spacingAndGlyphs">0</text>
<text x="364.45" y="153.60" text-anchor="middle" style="font-size: 10.00px; fill: #4D4D4D; font-family: Times New Roman;" textLength="10.01px" lengthAdjust="spacingAndGlyphs">25</text>
<text x="381.37" y="153.60" text-anchor="middle" style="font-size: 10.00px; fill: #4D4D4D; font-family: Times New Roman;" textLength="10.01px" lengthAdjust="spacingAndGlyphs">50</text>
<text x="398.29" y="153.60" text-anchor="middle" style="font-size: 10.00px; fill: #4D4D4D; font-family: Times New Roman;" textLength="10.01px" lengthAdjust="spacingAndGlyphs">75</text>
<text x="415.21" y="153.60" text-anchor="middle" style="font-size: 10.00px; fill: #4D4D4D; font-family: Times New Roman;" textLength="15.01px" lengthAdjust="spacingAndGlyphs">100</text>
<polyline points="427.46,144.79 427.46,142.05 " style="stroke-width: 1.07; stroke: #333333; stroke-linecap: butt;"/>
<polyline points="444.38,144.79 444.38,142.05 " style="stroke-width: 1.07; stroke: #333333; stroke-linecap: butt;"/>
<polyline points="461.30,144.79 461.30,142.05 " style="stroke-width: 1.07; stroke: #333333; stroke-linecap: butt;"/>
<polyline points="478.22,144.79 478.22,142.05 " style="stroke-width: 1.07; stroke: #333333; stroke-linecap: butt;"/>
<polyline points="495.14,144.79 495.14,142.05 " style="stroke-width: 1.07; stroke: #333333; stroke-linecap: butt;"/>
<text x="427.46" y="153.60" text-anchor="middle" style="font-size: 10.00px; fill: #4D4D4D; font-family: Times New Roman;" textLength="5.00px" lengthAdjust="spacingAndGlyphs">0</text>
<text x="444.38" y="153.60" text-anchor="middle" style="font-size: 10.00px; fill: #4D4D4D; font-family: Times New Roman;" textLength="10.01px" lengthAdjust="spacingAndGlyphs">25</text>
<text x="461.30" y="153.60" text-anchor="middle" style="font-size: 10.00px; fill: #4D4D4D; font-family: Times New Roman;" textLength="10.01px" lengthAdjust="spacingAndGlyphs">50</text>
<text x="478.22" y="153.60" text-anchor="middle" style="font-size: 10.00px; fill: #4D4D4D; font-family: Times New Roman;" textLength="10.01px" lengthAdjust="spacingAndGlyphs">75</text>
<text x="495.14" y="153.60" text-anchor="middle" style="font-size: 10.00px; fill: #4D4D4D; font-family: Times New Roman;" textLength="15.01px" lengthAdjust="spacingAndGlyphs">100</text>
<text x="259.29" y="132.45" text-anchor="end" style="font-size: 10.00px; fill: #4D4D4D; font-family: Times New Roman;" textLength="20.84px" lengthAdjust="spacingAndGlyphs">-0.02</text>
<text x="259.29" y="117.42" text-anchor="end" style="font-size: 10.00px; fill: #4D4D4D; font-family: Times New Roman;" textLength="20.84px" lengthAdjust="spacingAndGlyphs">-0.01</text>
<text x="259.29" y="102.38" text-anchor="end" style="font-size: 10.00px; fill: #4D4D4D; font-family: Times New Roman;" textLength="17.51px" lengthAdjust="spacingAndGlyphs">0.00</text>
<text x="259.29" y="87.34" text-anchor="end" style="font-size: 10.00px; fill: #4D4D4D; font-family: Times New Roman;" textLength="17.51px" lengthAdjust="spacingAndGlyphs">0.01</text>
<text x="259.29" y="72.30" text-anchor="end" style="font-size: 10.00px; fill: #4D4D4D; font-family: Times New Roman;" textLength="17.51px" lengthAdjust="spacingAndGlyphs">0.02</text>
<polyline points="261.49,129.14 264.23,129.14 " style="stroke-width: 1.07; stroke: #333333; stroke-linecap: butt;"/>
<polyline points="261.49,114.10 264.23,114.10 " style="stroke-width: 1.07; stroke: #333333; stroke-linecap: butt;"/>
<polyline points="261.49,99.07 264.23,99.07 " style="stroke-width: 1.07; stroke: #333333; stroke-linecap: butt;"/>
<polyline points="261.49,84.03 264.23,84.03 " style="stroke-width: 1.07; stroke: #333333; stroke-linecap: butt;"/>
<polyline points="261.49,68.99 264.23,68.99 " style="stroke-width: 1.07; stroke: #333333; stroke-linecap: butt;"/>
<text x="381.37" y="165.14" text-anchor="middle" style="font-size: 10.00px; font-family: Times New Roman;" textLength="85.75px" lengthAdjust="spacingAndGlyphs">Time (normalized %)</text>
<text transform="translate(231.23,102.14) rotate(-90)" text-anchor="middle" style="font-size: 10.00px; font-family: Times New Roman;" textLength="23.10px" lengthAdjust="spacingAndGlyphs">ΔSoE</text>
<rect x="305.43" y="5.48" width="151.89" height="28.24" style="stroke-width: 1.07; stroke: none; fill: #FFFFFF;"/>
<text x="310.91" y="22.91" style="font-size: 10.00px; font-family: Times New Roman;" textLength="42.24px" lengthAdjust="spacingAndGlyphs">significant</text>
<rect x="357.91" y="10.96" width="17.28" height="17.28" style="stroke-width: 1.07; stroke: none; fill: #FFFFFF;"/>
<rect x="358.62" y="11.67" width="15.86" height="15.86" style="stroke-width: 1.07; stroke: none; stroke-linecap: butt; stroke-linejoin: miter; fill: #6F849C; fill-opacity: 0.30;"/>
<line x1="359.64" y1="19.60" x2="373.46" y2="19.60" style="stroke-width: 2.13; stroke: #6F849C; stroke-linecap: butt;"/>
<rect x="405.72" y="10.96" width="17.28" height="17.28" style="stroke-width: 1.07; stroke: none; fill: #FFFFFF;"/>
<rect x="406.43" y="11.67" width="15.86" height="15.86" style="stroke-width: 1.07; stroke: none; stroke-linecap: butt; stroke-linejoin: miter; fill: #E35760; fill-opacity: 0.30;"/>
<line x1="407.45" y1="19.60" x2="421.27" y2="19.60" style="stroke-width: 2.13; stroke: #E35760; stroke-linecap: butt;"/>
<text x="380.17" y="22.25" style="font-size: 8.00px; font-family: Times New Roman;" textLength="20.89px" lengthAdjust="spacingAndGlyphs">TRUE</text>
<text x="427.98" y="22.25" style="font-size: 8.00px; font-family: Times New Roman;" textLength="23.86px" lengthAdjust="spacingAndGlyphs">FALSE</text>
</g>
</svg>