<svg xmlns="http://www.w3.org/2000/svg" xmlns:xlink="http://www.w3.org/1999/xlink" class="svglite" viewBox="-0.54 -0.54 505.07 173.87">
<defs>
  <style type="text/css"><![CDATA[
    .svglite line, .svglite polyline, .svglite polygon, .svglite path, .svglite rect, .svglite circle {
      fill: none;
      stroke: #000000;
      stroke-linecap: round;
      stroke-linejoin: round;
      stroke-miterlimit: 10.00;
    }
  ]]></style>
</defs>
<rect width="100%" height="100%" style="stroke: none; fill: none;"/>
<defs>
  <clipPath id="cpMC4wMHw1MDQuMDB8MC4wMHwxNzIuODA=">
    <rect x="0.00" y="0.00" width="504.00" height="172.80"/>
  </clipPath>
</defs>
<g clip-path="url(#cpMC4wMHw1MDQuMDB8MC4wMHwxNzIuODA=)">
</g>
<defs>
  <clipPath id="cpMC4wMHwyMTkuMTN8MC4wMHwxNzIuODA=">
    <rect x="0.00" y="0.00" width="219.13" height="172.80"/>
  </clipPath>
</defs>
<g clip-path="url(#cpMC4wMHwyMTkuMTN8MC4wMHwxNzIuODA=)">
<rect x="0.00" y="0.00" width="219.13" height="172.80" style="stroke-width: 1.07; stroke: #FFFFFF; fill: #FFFFFF;"/>
</g>
<g clip-path="url(#cpMC4wMHw1MDQuMDB8MC4wMHwxNzIuODA=)">
</g>
<defs>
  <clipPath id="cpMzEuOTZ8MjEzLjY1fDQ0LjY4fDE0Mi4wNA==">
    <rect x="31.96" y="44.68" width="181.69" height="97.36"/>
  </clipPath>
</defs>
<g clip-path="url(#cpMzEuOTZ8MjEzLjY1fDQ0LjY4fDE0Mi4wNA==)">
<rect x="31.96" y="44.68" width="181.69" height="97.36" style="stroke-width: 1.07; stroke: none; fill: #FFFFFF;"/>
<polygon points="40.22,59.15 47.10,60.08 53.99,60.60 60.87,60.99 67.75,61.59 74.63,62.34 81.51,63.21 88.40,64.29 95.28,65.40 102.16,66.46 109.04,67.53 115.92,68.42 122.81,69.05 129.69,69.49 136.57,69.56 143.45,69.23 150.34,68.58 157.22,67.50 164.10,65.97 170.98,64.13 177.86,61.90 184.75,59.30 191.63,56.41 198.51,53.05 205.39,49.10 205.39,57.89 198.51,60.17 191.63,62.86 184.75,65.64 177.86,68.15 170.98,70.40 164.10,72.31 157.22,73.73 150.34,74.78 143.45,75.48 136.57,75.71 129.69,75.63 122.81,75.27 115.92,74.55 109.04,73.68 102.16,72.71 95.28,71.60 88.40,70.53 81.51,69.55 74.63,68.60 67.75,67.84 60.87,67.33 53.99,67.05 47.10,67.20 40.22,67.94 " style="stroke-width: 0.00; stroke: none; stroke-linecap: butt; fill: #018571; fill-opacity: 0.10;"/>
<polyline points="40.22,59.15 47.10,60.08 53.99,60.60 60.87,60.99 67.75,61.59 74.63,62.34 81.51,63.21 88.40,64.29 95.28,65.40 102.16,66.46 109.04,67.53 115.92,68.42 122.81,69.05 129.69,69.49 136.57,69.56 143.45,69.23 150.34,68.58 157.22,67.50 164.10,65.97 170.98,64.13 177.86,61.90 184.75,59.30 191.63,56.41 198.51,53.05 205.39,49.10 " style="stroke-width: 1.07; stroke: none; stroke-linecap: butt;"/>
<polyline points="205.39,57.89 198.51,60.17 191.63,62.86 184.75,65.64 177.86,68.15 170.98,70.40 164.10,72.31 157.22,73.73 150.34,74.78 143.45,75.48 136.57,75.71 129.69,75.63 122.81,75.27 115.92,74.55 109.04,73.68 102.16,72.71 95.28,71.60 88.40,70.53 81.51,69.55 74.63,68.60 67.75,67.84 60.87,67.33 53.99,67.05 47.10,67.20 40.22,67.94 " style="stroke-width: 1.07; stroke: none; stroke-linecap: butt;"/>
<polygon points="40.22,70.62 47.10,74.78 53.99,78.24 60.87,81.72 67.75,85.90 74.63,90.49 81.51,95.42 88.40,100.84 95.28,106.28 102.16,111.52 109.04,116.63 115.92,121.11 122.81,124.72 129.69,127.52 136.57,129.12 143.45,129.41 150.34,128.58 157.22,126.41 164.10,123.00 170.98,118.72 177.86,113.48 184.75,107.46 191.63,101.08 198.51,93.99 205.39,85.83 205.39,96.84 198.51,102.72 191.63,109.32 184.75,115.90 177.86,121.77 170.98,126.99 164.10,131.38 157.22,134.54 150.34,136.64 143.45,137.62 136.57,137.13 129.69,135.53 122.81,132.90 115.92,129.11 109.04,124.64 102.16,119.71 95.28,114.31 88.40,108.91 81.51,103.72 74.63,98.67 67.75,94.10 60.87,90.07 53.99,86.38 47.10,83.40 40.22,81.49 " style="stroke-width: 0.00; stroke: none; stroke-linecap: butt; fill: #80CDC1; fill-opacity: 0.10;"/>
<polyline points="40.22,70.62 47.10,74.78 53.99,78.24 60.87,81.72 67.75,85.90 74.63,90.49 81.51,95.42 88.40,100.84 95.28,106.28 102.16,111.52 109.04,116.63 115.92,121.11 122.81,124.72 129.69,127.52 136.57,129.12 143.45,129.41 150.34,128.58 157.22,126.41 164.10,123.00 170.98,118.72 177.86,113.48 184.75,107.46 191.63,101.08 198.51,93.99 205.39,85.83 " style="stroke-width: 1.07; stroke: none; stroke-dasharray: 5.69,5.69; stroke-linecap: butt;"/>
<polyline points="205.39,96.84 198.51,102.72 191.63,109.32 184.75,115.90 177.86,121.77 170.98,126.99 164.10,131.38 157.22,134.54 150.34,136.64 143.45,137.62 136.57,137.13 129.69,135.53 122.81,132.90 115.92,129.11 109.04,124.64 102.16,119.71 95.28,114.31 88.40,108.91 81.51,103.72 74.63,98.67 67.75,94.10 60.87,90.07 53.99,86.38 47.10,83.40 40.22,81.49 " style="stroke-width: 1.07; stroke: none; stroke-dasharray: 5.69,5.69; stroke-linecap: butt;"/>
<polygon points="40.22,55.50 47.10,57.73 53.99,59.80 60.87,61.73 67.75,63.63 74.63,65.51 81.51,67.40 88.40,69.37 95.28,71.40 102.16,73.48 109.04,75.65 115.92,77.87 122.81,80.13 129.69,82.47 136.57,84.85 143.45,87.28 150.34,89.79 157.22,92.35 164.10,94.98 170.98,97.71 177.86,100.46 184.75,103.22 191.63,105.96 198.51,108.60 205.39,111.07 205.39,119.84 198.51,116.12 191.63,112.62 184.75,109.36 177.86,106.28 170.98,103.39 164.10,100.65 157.22,98.00 150.34,95.44 143.45,92.97 136.57,90.53 129.69,88.15 122.81,85.84 115.92,83.55 109.04,81.33 102.16,79.17 95.28,77.05 88.40,75.01 81.51,73.07 74.63,71.19 67.75,69.45 60.87,67.87 53.99,66.45 47.10,65.25 40.22,64.27 " style="stroke-width: 0.00; stroke: none; stroke-linecap: butt; fill: #DFC27D; fill-opacity: 0.10;"/>
<polyline points="40.22,55.50 47.10,57.73 53.99,59.80 60.87,61.73 67.75,63.63 74.63,65.51 81.51,67.40 88.40,69.37 95.28,71.40 102.16,73.48 109.04,75.65 115.92,77.87 122.81,80.13 129.69,82.47 136.57,84.85 143.45,87.28 150.34,89.79 157.22,92.35 164.10,94.98 170.98,97.71 177.86,100.46 184.75,103.22 191.63,105.96 198.51,108.60 205.39,111.07 " style="stroke-width: 1.07; stroke: none; stroke-dasharray: 1.42,4.27,5.69,4.27; stroke-linecap: butt;"/>
<polyline points="205.39,119.84 198.51,116.12 191.63,112.62 184.75,109.36 177.86,106.28 170.98,103.39 164.10,100.65 157.22,98.00 150.34,95.44 143.45,92.97 136.57,90.53 129.69,88.15 122.81,85.84 115.92,83.55 109.04,81.33 102.16,79.17 95.28,77.05 88.40,75.01 81.51,73.07 74.63,71.19 67.75,69.45 60.87,67.87 53.99,66.45 47.10,65.25 40.22,64.27 " style="stroke-width: 1.07; stroke: none; stroke-dasharray: 1.42,4.27,5.69,4.27; stroke-linecap: butt;"/>
<polyline points="40.22,63.54 47.10,63.64 53.99,63.82 60.87,64.16 67.75,64.72 74.63,65.47 81.51,66.38 88.40,67.41 95.28,68.50 102.16,69.58 109.04,70.60 115.92,71.49 122.81,72.16 129.69,72.56 136.57,72.63 143.45,72.35 150.34,71.68 157.22,70.61 164.10,69.14 170.98,67.27 177.86,65.03 184.75,62.47 191.63,59.63 198.51,56.61 205.39,53.50 " style="stroke-width: 2.13; stroke: #018571; stroke-linecap: butt;"/>
<polyline points="40.22,76.06 47.10,79.09 53.99,82.31 60.87,85.89 67.75,90.00 74.63,94.58 81.51,99.57 88.40,104.87 95.28,110.29 102.16,115.62 109.04,120.64 115.92,125.11 122.81,128.81 129.69,131.53 136.57,133.13 143.45,133.51 150.34,132.61 157.22,130.48 164.10,127.19 170.98,122.85 177.86,117.62 184.75,111.68 191.63,105.20 198.51,98.35 205.39,91.33 " style="stroke-width: 2.13; stroke: #80CDC1; stroke-dasharray: 11.38,11.38; stroke-linecap: butt;"/>
<polyline points="40.22,59.88 47.10,61.49 53.99,63.12 60.87,64.80 67.75,66.54 74.63,68.35 81.51,70.23 88.40,72.19 95.28,74.22 102.16,76.32 109.04,78.49 115.92,80.71 122.81,82.99 129.69,85.31 136.57,87.69 143.45,90.12 150.34,92.61 157.22,95.18 164.10,97.82 170.98,100.55 177.86,103.37 184.75,106.29 191.63,109.29 198.51,112.36 205.39,115.46 " style="stroke-width: 2.13; stroke: #DFC27D; stroke-dasharray: 2.85,8.54,11.38,8.54; stroke-linecap: butt;"/>
<rect x="31.96" y="44.68" width="181.69" height="97.36" style="stroke-width: 1.07; stroke: #333333;"/>
</g>
<g clip-path="url(#cpMC4wMHw1MDQuMDB8MC4wMHwxNzIuODA=)">
<text x="27.03" y="119.62" text-anchor="end" style="font-size: 10.00px; fill: #4D4D4D; font-family: Times New Roman;" textLength="5.00px" lengthAdjust="spacingAndGlyphs">5</text>
<text x="27.03" y="84.05" text-anchor="end" style="font-size: 10.00px; fill: #4D4D4D; font-family: Times New Roman;" textLength="10.01px" lengthAdjust="spacingAndGlyphs">10</text>
<text x="27.03" y="48.47" text-anchor="end" style="font-size: 10.00px; fill: #4D4D4D; font-family: Times New Roman;" textLength="10.01px" lengthAdjust="spacingAndGlyphs">15</text>
<polyline points="29.22,116.31 31.96,116.31 " style="stroke-width: 1.07; stroke: #333333; stroke-linecap: butt;"/>
<polyline points="29.22,80.73 31.96,80.73 " style="stroke-width: 1.07; stroke: #333333; stroke-linecap: butt;"/>
<polyline points="29.22,45.16 31.96,45.16 " style="stroke-width: 1.07; stroke: #333333; stroke-linecap: butt;"/>
<polyline points="40.22,144.78 40.22,142.04 " style="stroke-width: 1.07; stroke: #333333; stroke-linecap: butt;"/>
<polyline points="81.51,144.78 81.51,142.04 " style="stroke-width: 1.07; stroke: #333333; stroke-linecap: butt;"/>
<polyline points="122.81,144.78 122.81,142.04 " style="stroke-width: 1.07; stroke: #333333; stroke-linecap: butt;"/>
<polyline points="164.10,144.78 164.10,142.04 " style="stroke-width: 1.07; stroke: #333333; stroke-linecap: butt;"/>
<polyline points="205.39,144.78 205.39,142.04 " style="stroke-width: 1.07; stroke: #333333; stroke-linecap: butt;"/>
<text x="40.22" y="153.60" text-anchor="middle" style="font-size: 10.00px; fill: #4D4D4D; font-family: Times New Roman;" textLength="5.00px" lengthAdjust="spacingAndGlyphs">0</text>
<text x="81.51" y="153.60" text-anchor="middle" style="font-size: 10.00px; fill: #4D4D4D; font-family: Times New Roman;" textLength="10.01px" lengthAdjust="spacingAndGlyphs">25</text>
<text x="122.81" y="153.60" text-anchor="middle" style="font-size: 10.00px; fill: #4D4D4D; font-family: Times New Roman;" textLength="10.01px" lengthAdjust="spacingAndGlyphs">50</text>
<text x="164.10" y="153.60" text-anchor="middle" style="font-size: 10.00px; fill: #4D4D4D; font-family: Times New Roman;" textLength="10.01px" lengthAdjust="spacingAndGlyphs">75</text>
<text x="205.39" y="153.60" text-anchor="middle" style="font-size: 10.00px; fill: #4D4D4D; font-family: Times New Roman;" textLength="15.01px" lengthAdjust="spacingAndGlyphs">100</text>
<text x="122.81" y="165.14" text-anchor="middle" style="font-size: 10.00px; font-family: Times New Roman;" textLength="85.75px" lengthAdjust="spacingAndGlyphs">Time (normalized %)</text>
<text transform="translate(12.10,93.36) rotate(-90)" text-anchor="middle" style="font-size: 10.00px; font-family: Times New Roman;" textLength="75.58px" lengthAdjust="spacingAndGlyphs">Residual H1* (dB)</text>
<rect x="30.74" y="5.48" width="184.14" height="28.24" style="stroke-width: 1.07; stroke: none; fill: #FFFFFF;"/>
<rect x="41.20" y="10.96" width="17.28" height="17.28" style="stroke-width: 1.07; stroke: none; fill: #FFFFFF;"/>
<rect x="41.90" y="11.67" width="15.86" height="15.86" style="stroke-width: 1.07; stroke: none; stroke-linecap: butt; stroke-linejoin: miter;"/>
<line x1="42.92" y1="19.60" x2="56.75" y2="19.60" style="stroke-width: 2.13; stroke: #018571; stroke-linecap: butt;"/>
<rect x="89.33" y="10.96" width="17.28" height="17.28" style="stroke-width: 1.07; stroke: none; fill: #FFFFFF;"/>
<rect x="90.04" y="11.67" width="15.86" height="15.86" style="stroke-width: 1.07; stroke: none; stroke-dasharray: 5.69,5.69; stroke-linecap: butt; stroke-linejoin: miter;"/>
<line x1="91.05" y1="19.60" x2="104.88" y2="19.60" style="stroke-width: 2.13; stroke: #80CDC1; stroke-dasharray: 11.38,11.38; stroke-linecap: butt;"/>
<rect x="159.23" y="10.96" width="17.28" height="17.28" style="stroke-width: 1.07; stroke: none; fill: #FFFFFF;"/>
<rect x="159.93" y="11.67" width="15.86" height="15.86" style="stroke-width: 1.07; stroke: none; stroke-dasharray: 1.42,4.27,5.69,4.27; stroke-linecap: butt; stroke-linejoin: miter;"/>
<line x1="160.95" y1="19.60" x2="174.78" y2="19.60" style="stroke-width: 2.13; stroke: #DFC27D; stroke-dasharray: 2.85,8.54,11.38,8.54; stroke-linecap: butt;"/>
<text x="63.46" y="22.25" style="font-size: 8.00px; font-family: Times New Roman;" textLength="20.89px" lengthAdjust="spacingAndGlyphs">Modal</text>
<text x="111.59" y="22.25" style="font-size: 8.00px; font-family: Times New Roman;" textLength="42.65px" lengthAdjust="spacingAndGlyphs">Rearticulated</text>
<text x="181.49" y="22.25" style="font-size: 8.00px; font-family: Times New Roman;" textLength="27.99px" lengthAdjust="spacingAndGlyphs">Checked</text>
</g>
<defs>
  <clipPath id="cpMjE5LjEzfDUwNC4wMHwwLjAwfDE3Mi44MA==">
    <rect x="219.13" y="0.00" width="284.87" height="172.80"/>
  </clipPath>
</defs>
<g clip-path="url(#cpMjE5LjEzfDUwNC4wMHwwLjAwfDE3Mi44MA==)">
<rect x="219.13" y="0.00" width="284.87" height="172.80" style="stroke-width: 1.07; stroke: #FFFFFF; fill: #FFFFFF;"/>
</g>
<g clip-path="url(#cpMC4wMHw1MDQuMDB8MC4wMHwxNzIuODA=)">
</g>
<defs>
  <clipPath id="cpMjUxLjczfDMzMC4zNHw2Mi4yNHwxNDIuMDU=">
    <rect x="251.73" y="62.24" width="78.61" height="79.80"/>
  </clipPath>
</defs>
<g clip-path="url(#cpMjUxLjczfDMzMC4zNHw2Mi4yNHwxNDIuMDU=)">
<rect x="251.73" y="62.24" width="78.61" height="79.80" style="stroke-width: 1.07; stroke: none; fill: #FFFFFF;"/>
<line x1="251.73" y1="107.32" x2="330.34" y2="107.32" style="stroke-width: 1.07; stroke: #8F5F3F; stroke-linecap: butt;"/>
<polygon points="255.30,95.46 256.02,95.29 256.74,95.09 257.46,94.85 258.19,94.57 258.91,94.24 259.63,93.88 260.35,93.48 261.07,93.04 261.80,92.58 262.52,92.09 263.24,91.60 263.96,91.10 264.68,90.60 265.40,90.10 266.13,89.59 266.85,89.08 267.57,88.55 268.29,88.00 269.01,87.44 269.74,86.86 270.46,86.26 271.18,85.65 271.90,85.04 272.62,84.42 273.35,83.81 274.07,83.20 274.79,82.59 275.51,81.98 276.23,81.36 276.95,80.74 277.68,80.11 278.40,79.47 279.12,78.82 279.84,78.17 280.56,77.53 281.29,76.89 282.01,76.27 282.73,75.67 283.45,75.09 284.17,74.52 284.90,73.97 285.62,73.42 286.34,72.89 287.06,72.36 287.78,71.84 288.50,71.33 289.23,70.85 289.95,70.38 290.67,69.95 291.39,69.56 292.11,69.20 292.84,68.87 293.56,68.57 294.28,68.30 295.00,68.05 295.72,67.82 296.45,67.61 297.17,67.43 297.89,67.27 298.61,67.14 299.33,67.05 300.05,66.99 300.78,66.99 301.50,67.02 302.22,67.09 302.94,67.18 303.66,67.30 304.39,67.44 305.11,67.60 305.83,67.78 306.55,67.98 307.27,68.21 308.00,68.47 308.72,68.75 309.44,69.07 310.16,69.43 310.88,69.81 311.60,70.21 312.33,70.63 313.05,71.06 313.77,71.51 314.49,71.96 315.21,72.42 315.94,72.88 316.66,73.37 317.38,73.87 318.10,74.38 318.82,74.92 319.55,75.47 320.27,76.02 320.99,76.57 321.71,77.11 322.43,77.63 323.15,78.11 323.88,78.57 324.60,78.99 325.32,79.37 326.04,79.71 326.76,80.03 326.76,88.60 326.04,87.76 325.32,86.95 324.60,86.18 323.88,85.45 323.15,84.77 322.43,84.12 321.71,83.51 320.99,82.94 320.27,82.38 319.55,81.85 318.82,81.32 318.10,80.80 317.38,80.28 316.66,79.76 315.94,79.24 315.21,78.74 314.49,78.25 313.77,77.79 313.05,77.34 312.33,76.92 311.60,76.53 310.88,76.15 310.16,75.80 309.44,75.46 308.72,75.14 308.00,74.82 307.27,74.53 306.55,74.25 305.83,74.01 305.11,73.79 304.39,73.61 303.66,73.47 302.94,73.37 302.22,73.30 301.50,73.26 300.78,73.25 300.05,73.27 299.33,73.31 298.61,73.37 297.89,73.45 297.17,73.57 296.45,73.73 295.72,73.92 295.00,74.15 294.28,74.42 293.56,74.72 292.84,75.06 292.11,75.42 291.39,75.80 290.67,76.19 289.95,76.61 289.23,77.04 288.50,77.49 287.78,77.96 287.06,78.46 286.34,78.99 285.62,79.54 284.90,80.11 284.17,80.71 283.45,81.31 282.73,81.92 282.01,82.54 281.29,83.15 280.56,83.76 279.84,84.37 279.12,84.99 278.40,85.62 277.68,86.26 276.95,86.90 276.23,87.56 275.51,88.22 274.79,88.87 274.07,89.52 273.35,90.16 272.62,90.77 271.90,91.37 271.18,91.96 270.46,92.53 269.74,93.10 269.01,93.67 268.29,94.24 267.57,94.80 266.85,95.36 266.13,95.91 265.40,96.45 264.68,96.98 263.96,97.48 263.24,97.96 262.52,98.43 261.80,98.89 261.07,99.35 260.35,99.83 259.63,100.32 258.91,100.84 258.19,101.40 257.46,101.99 256.74,102.61 256.02,103.27 255.30,103.96 " style="stroke-width: 0.00; stroke: none; stroke-linecap: butt; fill: #6F849C; fill-opacity: 0.30;"/>
<polyline points="255.30,95.46 256.02,95.29 256.74,95.09 257.46,94.85 258.19,94.57 258.91,94.24 259.63,93.88 260.35,93.48 261.07,93.04 261.80,92.58 262.52,92.09 263.24,91.60 263.96,91.10 264.68,90.60 265.40,90.10 266.13,89.59 266.85,89.08 267.57,88.55 268.29,88.00 269.01,87.44 269.74,86.86 270.46,86.26 271.18,85.65 271.90,85.04 272.62,84.42 273.35,83.81 274.07,83.20 274.79,82.59 275.51,81.98 276.23,81.36 276.95,80.74 277.68,80.11 278.40,79.47 279.12,78.82 279.84,78.17 280.56,77.53 281.29,76.89 282.01,76.27 282.73,75.67 283.45,75.09 284.17,74.52 284.90,73.97 285.62,73.42 286.34,72.89 287.06,72.36 287.78,71.84 288.50,71.33 289.23,70.85 289.95,70.38 290.67,69.95 291.39,69.56 292.11,69.20 292.84,68.87 293.56,68.57 294.28,68.30 295.00,68.05 295.72,67.82 296.45,67.61 297.17,67.43 297.89,67.27 298.61,67.14 299.33,67.05 300.05,66.99 300.78,66.99 301.50,67.02 302.22,67.09 302.94,67.18 303.66,67.30 304.39,67.44 305.11,67.60 305.83,67.78 306.55,67.98 307.27,68.21 308.00,68.47 308.72,68.75 309.44,69.07 310.16,69.43 310.88,69.81 311.60,70.21 312.33,70.63 313.05,71.06 313.77,71.51 314.49,71.96 315.21,72.42 315.94,72.88 316.66,73.37 317.38,73.87 318.10,74.38 318.82,74.92 319.55,75.47 320.27,76.02 320.99,76.57 321.71,77.11 322.43,77.63 323.15,78.11 323.88,78.57 324.60,78.99 325.32,79.37 326.04,79.71 326.76,80.03 " style="stroke-width: 1.07; stroke: none; stroke-linecap: butt;"/>
<polyline points="326.76,88.60 326.04,87.76 325.32,86.95 324.60,86.18 323.88,85.45 323.15,84.77 322.43,84.12 321.71,83.51 320.99,82.94 320.27,82.38 319.55,81.85 318.82,81.32 318.10,80.80 317.38,80.28 316.66,79.76 315.94,79.24 315.21,78.74 314.49,78.25 313.77,77.79 313.05,77.34 312.33,76.92 311.60,76.53 310.88,76.15 310.16,75.80 309.44,75.46 308.72,75.14 308.00,74.82 307.27,74.53 306.55,74.25 305.83,74.01 305.11,73.79 304.39,73.61 303.66,73.47 302.94,73.37 302.22,73.30 301.50,73.26 300.78,73.25 300.05,73.27 299.33,73.31 298.61,73.37 297.89,73.45 297.17,73.57 296.45,73.73 295.72,73.92 295.00,74.15 294.28,74.42 293.56,74.72 292.84,75.06 292.11,75.42 291.39,75.80 290.67,76.19 289.95,76.61 289.23,77.04 288.50,77.49 287.78,77.96 287.06,78.46 286.34,78.99 285.62,79.54 284.90,80.11 284.17,80.71 283.45,81.31 282.73,81.92 282.01,82.54 281.29,83.15 280.56,83.76 279.84,84.37 279.12,84.99 278.40,85.62 277.68,86.26 276.95,86.90 276.23,87.56 275.51,88.22 274.79,88.87 274.07,89.52 273.35,90.16 272.62,90.77 271.90,91.37 271.18,91.96 270.46,92.53 269.74,93.10 269.01,93.67 268.29,94.24 267.57,94.80 266.85,95.36 266.13,95.91 265.40,96.45 264.68,96.98 263.96,97.48 263.24,97.96 262.52,98.43 261.80,98.89 261.07,99.35 260.35,99.83 259.63,100.32 258.91,100.84 258.19,101.40 257.46,101.99 256.74,102.61 256.02,103.27 255.30,103.96 " style="stroke-width: 1.07; stroke: none; stroke-linecap: butt;"/>
<polyline points="255.30,99.71 256.02,99.28 256.74,98.85 257.46,98.42 258.19,97.98 258.91,97.54 259.63,97.10 260.35,96.65 261.07,96.20 261.80,95.73 262.52,95.26 263.24,94.78 263.96,94.29 264.68,93.79 265.40,93.28 266.13,92.75 266.85,92.22 267.57,91.67 268.29,91.12 269.01,90.55 269.74,89.98 270.46,89.40 271.18,88.81 271.90,88.21 272.62,87.60 273.35,86.98 274.07,86.36 274.79,85.73 275.51,85.10 276.23,84.46 276.95,83.82 277.68,83.18 278.40,82.54 279.12,81.91 279.84,81.27 280.56,80.64 281.29,80.02 282.01,79.41 282.73,78.80 283.45,78.20 284.17,77.61 284.90,77.04 285.62,76.48 286.34,75.94 287.06,75.41 287.78,74.90 288.50,74.41 289.23,73.94 289.95,73.50 290.67,73.07 291.39,72.68 292.11,72.31 292.84,71.96 293.56,71.65 294.28,71.36 295.00,71.10 295.72,70.87 296.45,70.67 297.17,70.50 297.89,70.36 298.61,70.25 299.33,70.18 300.05,70.13 300.78,70.12 301.50,70.14 302.22,70.19 302.94,70.27 303.66,70.39 304.39,70.53 305.11,70.70 305.83,70.89 306.55,71.12 307.27,71.37 308.00,71.64 308.72,71.94 309.44,72.27 310.16,72.61 310.88,72.98 311.60,73.37 312.33,73.78 313.05,74.20 313.77,74.65 314.49,75.10 315.21,75.58 315.94,76.06 316.66,76.56 317.38,77.07 318.10,77.59 318.82,78.12 319.55,78.66 320.27,79.20 320.99,79.75 321.71,80.31 322.43,80.87 323.15,81.44 323.88,82.01 324.60,82.58 325.32,83.16 326.04,83.74 326.76,84.32 " style="stroke-width: 2.13; stroke: #6F849C; stroke-linecap: butt;"/>
<rect x="251.73" y="62.24" width="78.61" height="79.80" style="stroke-width: 1.07; stroke: #333333;"/>
</g>
<g clip-path="url(#cpMC4wMHw1MDQuMDB8MC4wMHwxNzIuODA=)">
</g>
<defs>
  <clipPath id="cpMzM1LjgyfDQxNC40M3w2Mi4yNHwxNDIuMDU=">
    <rect x="335.82" y="62.24" width="78.61" height="79.80"/>
  </clipPath>
</defs>
<g clip-path="url(#cpMzM1LjgyfDQxNC40M3w2Mi4yNHwxNDIuMDU=)">
<rect x="335.82" y="62.24" width="78.61" height="79.80" style="stroke-width: 1.07; stroke: none; fill: #FFFFFF;"/>
<line x1="335.82" y1="107.32" x2="414.43" y2="107.32" style="stroke-width: 1.07; stroke: #8F5F3F; stroke-linecap: butt;"/>
<polygon points="339.39,105.77 340.11,105.72 340.83,105.66 341.56,105.59 342.28,105.49 343.00,105.38 343.72,105.26 344.44,105.12 345.17,104.97 345.89,104.81 346.61,104.64 347.33,104.47 348.05,104.31 348.77,104.15 349.50,103.99 350.22,103.84 350.94,103.69 351.66,103.54 352.38,103.39 353.11,103.24 353.83,103.09 354.55,102.94 355.27,102.79 355.99,102.64 356.72,102.50 357.44,102.36 358.16,102.22 358.16,107.38 357.44,107.52 356.72,107.66 355.99,107.80 355.27,107.94 354.55,108.08 353.83,108.23 353.11,108.38 352.38,108.55 351.66,108.72 350.94,108.90 350.22,109.08 349.50,109.28 348.77,109.48 348.05,109.69 347.33,109.91 346.61,110.14 345.89,110.37 345.17,110.63 344.44,110.89 343.72,111.18 343.00,111.49 342.28,111.82 341.56,112.17 340.83,112.53 340.11,112.92 339.39,113.32 " style="stroke-width: 0.00; stroke: none; stroke-linecap: butt; fill: #E35760; fill-opacity: 0.30;"/>
<polyline points="339.39,105.77 340.11,105.72 340.83,105.66 341.56,105.59 342.28,105.49 343.00,105.38 343.72,105.26 344.44,105.12 345.17,104.97 345.89,104.81 346.61,104.64 347.33,104.47 348.05,104.31 348.77,104.15 349.50,103.99 350.22,103.84 350.94,103.69 351.66,103.54 352.38,103.39 353.11,103.24 353.83,103.09 354.55,102.94 355.27,102.79 355.99,102.64 356.72,102.50 357.44,102.36 358.16,102.22 " style="stroke-width: 1.07; stroke: none; stroke-linecap: butt;"/>
<polyline points="358.16,107.38 357.44,107.52 356.72,107.66 355.99,107.80 355.27,107.94 354.55,108.08 353.83,108.23 353.11,108.38 352.38,108.55 351.66,108.72 350.94,108.90 350.22,109.08 349.50,109.28 348.77,109.48 348.05,109.69 347.33,109.91 346.61,110.14 345.89,110.37 345.17,110.63 344.44,110.89 343.72,111.18 343.00,111.49 342.28,111.82 341.56,112.17 340.83,112.53 340.11,112.92 339.39,113.32 " style="stroke-width: 1.07; stroke: none; stroke-linecap: butt;"/>
<polygon points="358.88,102.09 359.60,101.97 360.32,101.84 361.05,101.71 361.77,101.57 362.49,101.43 363.21,101.29 363.93,101.14 364.66,100.98 365.38,100.83 366.10,100.67 366.82,100.51 367.54,100.36 368.27,100.19 368.99,100.02 369.71,99.85 370.43,99.66 371.15,99.46 371.87,99.25 372.60,99.03 373.32,98.79 374.04,98.55 374.76,98.30 375.48,98.04 376.21,97.77 376.93,97.50 377.65,97.21 378.37,96.91 379.09,96.59 379.82,96.25 380.54,95.90 381.26,95.53 381.98,95.14 382.70,94.74 383.42,94.32 384.15,93.89 384.87,93.45 385.59,93.00 386.31,92.53 387.03,92.04 387.76,91.54 388.48,91.01 389.20,90.47 389.92,89.90 390.64,89.32 391.37,88.71 392.09,88.09 392.81,87.46 393.53,86.81 394.25,86.15 394.97,85.47 395.70,84.78 396.42,84.06 397.14,83.33 397.86,82.58 398.58,81.80 399.31,81.01 400.03,80.20 400.75,79.37 401.47,78.53 402.19,77.67 402.92,76.79 403.64,75.91 404.36,75.00 405.08,74.07 405.80,73.13 406.52,72.16 407.25,71.16 407.97,70.15 408.69,69.11 409.41,68.05 410.13,66.97 410.86,65.87 410.86,73.42 410.13,74.16 409.41,74.92 408.69,75.69 407.97,76.47 407.25,77.27 406.52,78.08 405.80,78.90 405.08,79.73 404.36,80.57 403.64,81.40 402.92,82.23 402.19,83.05 401.47,83.86 400.75,84.66 400.03,85.45 399.31,86.22 398.58,86.98 397.86,87.73 397.14,88.47 396.42,89.21 395.70,89.92 394.97,90.63 394.25,91.31 393.53,91.98 392.81,92.63 392.09,93.25 391.37,93.86 390.64,94.44 389.92,95.01 389.20,95.56 388.48,96.10 387.76,96.63 387.03,97.14 386.31,97.64 385.59,98.12 384.87,98.59 384.15,99.03 383.42,99.45 382.70,99.86 381.98,100.25 381.26,100.62 380.54,100.98 379.82,101.32 379.09,101.66 378.37,101.99 377.65,102.30 376.93,102.60 376.21,102.89 375.48,103.17 374.76,103.43 374.04,103.67 373.32,103.90 372.60,104.12 371.87,104.33 371.15,104.53 370.43,104.73 369.71,104.93 368.99,105.12 368.27,105.30 367.54,105.48 366.82,105.65 366.10,105.81 365.38,105.96 364.66,106.11 363.93,106.25 363.21,106.39 362.49,106.53 361.77,106.66 361.05,106.81 360.32,106.95 359.60,107.09 358.88,107.24 " style="stroke-width: 0.00; stroke: none; stroke-linecap: butt; fill: #6F849C; fill-opacity: 0.30;"/>
<polyline points="358.88,102.09 359.60,101.97 360.32,101.84 361.05,101.71 361.77,101.57 362.49,101.43 363.21,101.29 363.93,101.14 364.66,100.98 365.38,100.83 366.10,100.67 366.82,100.51 367.54,100.36 368.27,100.19 368.99,100.02 369.71,99.85 370.43,99.66 371.15,99.46 371.87,99.25 372.60,99.03 373.32,98.79 374.04,98.55 374.76,98.30 375.48,98.04 376.21,97.77 376.93,97.50 377.65,97.21 378.37,96.91 379.09,96.59 379.82,96.25 380.54,95.90 381.26,95.53 381.98,95.14 382.70,94.74 383.42,94.32 384.15,93.89 384.87,93.45 385.59,93.00 386.31,92.53 387.03,92.04 387.76,91.54 388.48,91.01 389.20,90.47 389.92,89.90 390.64,89.32 391.37,88.71 392.09,88.09 392.81,87.46 393.53,86.81 394.25,86.15 394.97,85.47 395.70,84.78 396.42,84.06 397.14,83.33 397.86,82.58 398.58,81.80 399.31,81.01 400.03,80.20 400.75,79.37 401.47,78.53 402.19,77.67 402.92,76.79 403.64,75.91 404.36,75.00 405.08,74.07 405.80,73.13 406.52,72.16 407.25,71.16 407.97,70.15 408.69,69.11 409.41,68.05 410.13,66.97 410.86,65.87 " style="stroke-width: 1.07; stroke: none; stroke-linecap: butt;"/>
<polyline points="410.86,73.42 410.13,74.16 409.41,74.92 408.69,75.69 407.97,76.47 407.25,77.27 406.52,78.08 405.80,78.90 405.08,79.73 404.36,80.57 403.64,81.40 402.92,82.23 402.19,83.05 401.47,83.86 400.75,84.66 400.03,85.45 399.31,86.22 398.58,86.98 397.86,87.73 397.14,88.47 396.42,89.21 395.70,89.92 394.97,90.63 394.25,91.31 393.53,91.98 392.81,92.63 392.09,93.25 391.37,93.86 390.64,94.44 389.92,95.01 389.20,95.56 388.48,96.10 387.76,96.63 387.03,97.14 386.31,97.64 385.59,98.12 384.87,98.59 384.15,99.03 383.42,99.45 382.70,99.86 381.98,100.25 381.26,100.62 380.54,100.98 379.82,101.32 379.09,101.66 378.37,101.99 377.65,102.30 376.93,102.60 376.21,102.89 375.48,103.17 374.76,103.43 374.04,103.67 373.32,103.90 372.60,104.12 371.87,104.33 371.15,104.53 370.43,104.73 369.71,104.93 368.99,105.12 368.27,105.30 367.54,105.48 366.82,105.65 366.10,105.81 365.38,105.96 364.66,106.11 363.93,106.25 363.21,106.39 362.49,106.53 361.77,106.66 361.05,106.81 360.32,106.95 359.60,107.09 358.88,107.24 " style="stroke-width: 1.07; stroke: none; stroke-linecap: butt;"/>
<polyline points="339.39,109.54 340.11,109.32 340.83,109.10 341.56,108.88 342.28,108.65 343.00,108.44 343.72,108.22 344.44,108.01 345.17,107.80 345.89,107.59 346.61,107.39 347.33,107.19 348.05,107.00 348.77,106.81 349.50,106.63 350.22,106.46 350.94,106.29 351.66,106.13 352.38,105.97 353.11,105.81 353.83,105.66 354.55,105.51 355.27,105.36 355.99,105.22 356.72,105.08 357.44,104.94 358.16,104.80 " style="stroke-width: 2.13; stroke: #E35760; stroke-linecap: butt;"/>
<polyline points="358.88,104.67 359.60,104.53 360.32,104.39 361.05,104.26 361.77,104.12 362.49,103.98 363.21,103.84 363.93,103.69 364.66,103.55 365.38,103.39 366.10,103.24 366.82,103.08 367.54,102.92 368.27,102.75 368.99,102.57 369.71,102.39 370.43,102.20 371.15,102.00 371.87,101.79 372.60,101.57 373.32,101.35 374.04,101.11 374.76,100.86 375.48,100.61 376.21,100.33 376.93,100.05 377.65,99.75 378.37,99.45 379.09,99.12 379.82,98.79 380.54,98.44 381.26,98.07 381.98,97.69 382.70,97.30 383.42,96.89 384.15,96.46 384.87,96.02 385.59,95.56 386.31,95.08 387.03,94.59 387.76,94.08 388.48,93.56 389.20,93.02 389.92,92.46 390.64,91.88 391.37,91.28 392.09,90.67 392.81,90.04 393.53,89.40 394.25,88.73 394.97,88.05 395.70,87.35 396.42,86.63 397.14,85.90 397.86,85.16 398.58,84.39 399.31,83.61 400.03,82.82 400.75,82.02 401.47,81.19 402.19,80.36 402.92,79.51 403.64,78.65 404.36,77.78 405.08,76.90 405.80,76.02 406.52,75.12 407.25,74.22 407.97,73.31 408.69,72.40 409.41,71.48 410.13,70.57 410.86,69.65 " style="stroke-width: 2.13; stroke: #6F849C; stroke-linecap: butt;"/>
<rect x="335.82" y="62.24" width="78.61" height="79.80" style="stroke-width: 1.07; stroke: #333333;"/>
</g>
<g clip-path="url(#cpMC4wMHw1MDQuMDB8MC4wMHwxNzIuODA=)">
</g>
<defs>
  <clipPath id="cpNDE5LjkxfDQ5OC41Mnw2Mi4yNHwxNDIuMDU=">
    <rect x="419.91" y="62.24" width="78.61" height="79.80"/>
  </clipPath>
</defs>
<g clip-path="url(#cpNDE5LjkxfDQ5OC41Mnw2Mi4yNHwxNDIuMDU=)">
<rect x="419.91" y="62.24" width="78.61" height="79.80" style="stroke-width: 1.07; stroke: none; fill: #FFFFFF;"/>
<line x1="419.91" y1="107.32" x2="498.52" y2="107.32" style="stroke-width: 1.07; stroke: #8F5F3F; stroke-linecap: butt;"/>
<polygon points="423.48,112.91 424.20,113.34 424.93,113.75 425.65,114.14 426.37,114.50 427.09,114.83 427.81,115.14 428.53,115.43 429.26,115.71 429.98,115.99 430.70,116.27 431.42,116.56 432.14,116.87 432.87,117.20 433.59,117.56 434.31,117.93 435.03,118.32 435.75,118.73 436.48,119.14 437.20,119.55 437.92,119.97 438.64,120.40 439.36,120.84 440.08,121.28 440.81,121.74 441.53,122.22 442.25,122.72 442.97,123.23 443.69,123.74 444.42,124.26 445.14,124.77 445.86,125.28 446.58,125.78 447.30,126.26 448.03,126.74 448.75,127.20 449.47,127.67 450.19,128.12 450.91,128.57 451.63,129.02 452.36,129.45 453.08,129.86 453.80,130.25 454.52,130.61 455.24,130.94 455.97,131.23 456.69,131.49 457.41,131.72 458.13,131.91 458.85,132.08 459.58,132.22 460.30,132.32 461.02,132.40 461.74,132.43 462.46,132.43 463.18,132.37 463.91,132.27 464.63,132.11 465.35,131.90 466.07,131.65 466.79,131.35 467.52,131.00 468.24,130.61 468.96,130.19 469.68,129.72 470.40,129.20 471.13,128.64 471.85,128.03 472.57,127.36 473.29,126.64 474.01,125.87 474.73,125.06 475.46,124.19 476.18,123.29 476.90,122.35 477.62,121.37 478.34,120.37 479.07,119.32 479.79,118.25 480.51,117.13 481.23,115.97 481.95,114.77 482.68,113.54 483.40,112.27 484.12,110.96 484.84,109.63 485.56,108.28 485.56,114.60 484.84,115.91 484.12,117.19 483.40,118.44 482.68,119.67 481.95,120.88 481.23,122.06 480.51,123.22 479.79,124.35 479.07,125.45 478.34,126.51 477.62,127.52 476.90,128.49 476.18,129.41 475.46,130.28 474.73,131.10 474.01,131.89 473.29,132.63 472.57,133.33 471.85,134.00 471.13,134.63 470.40,135.22 469.68,135.76 468.96,136.25 468.24,136.68 467.52,137.06 466.79,137.38 466.07,137.65 465.35,137.88 464.63,138.06 463.91,138.21 463.18,138.31 462.46,138.38 461.74,138.42 461.02,138.41 460.30,138.37 459.58,138.28 458.85,138.14 458.13,137.96 457.41,137.73 456.69,137.48 455.97,137.19 455.24,136.88 454.52,136.55 453.80,136.20 453.08,135.83 452.36,135.45 451.63,135.05 450.91,134.63 450.19,134.18 449.47,133.72 448.75,133.23 448.03,132.74 447.30,132.23 446.58,131.73 445.86,131.23 445.14,130.73 444.42,130.24 443.69,129.76 442.97,129.28 442.25,128.80 441.53,128.33 440.81,127.86 440.08,127.38 439.36,126.92 438.64,126.46 437.92,126.02 437.20,125.60 436.48,125.20 435.75,124.82 435.03,124.46 434.31,124.12 433.59,123.79 432.87,123.48 432.14,123.18 431.42,122.89 430.70,122.62 429.98,122.36 429.26,122.12 428.53,121.91 427.81,121.73 427.09,121.59 426.37,121.48 425.65,121.41 424.93,121.38 424.20,121.38 423.48,121.40 " style="stroke-width: 0.00; stroke: none; stroke-linecap: butt; fill: #6F849C; fill-opacity: 0.30;"/>
<polyline points="423.48,112.91 424.20,113.34 424.93,113.75 425.65,114.14 426.37,114.50 427.09,114.83 427.81,115.14 428.53,115.43 429.26,115.71 429.98,115.99 430.70,116.27 431.42,116.56 432.14,116.87 432.87,117.20 433.59,117.56 434.31,117.93 435.03,118.32 435.75,118.73 436.48,119.14 437.20,119.55 437.92,119.97 438.64,120.40 439.36,120.84 440.08,121.28 440.81,121.74 441.53,122.22 442.25,122.72 442.97,123.23 443.69,123.74 444.42,124.26 445.14,124.77 445.86,125.28 446.58,125.78 447.30,126.26 448.03,126.74 448.75,127.20 449.47,127.67 450.19,128.12 450.91,128.57 451.63,129.02 452.36,129.45 453.08,129.86 453.80,130.25 454.52,130.61 455.24,130.94 455.97,131.23 456.69,131.49 457.41,131.72 458.13,131.91 458.85,132.08 459.58,132.22 460.30,132.32 461.02,132.40 461.74,132.43 462.46,132.43 463.18,132.37 463.91,132.27 464.63,132.11 465.35,131.90 466.07,131.65 466.79,131.35 467.52,131.00 468.24,130.61 468.96,130.19 469.68,129.72 470.40,129.20 471.13,128.64 471.85,128.03 472.57,127.36 473.29,126.64 474.01,125.87 474.73,125.06 475.46,124.19 476.18,123.29 476.90,122.35 477.62,121.37 478.34,120.37 479.07,119.32 479.79,118.25 480.51,117.13 481.23,115.97 481.95,114.77 482.68,113.54 483.40,112.27 484.12,110.96 484.84,109.63 485.56,108.28 " style="stroke-width: 1.07; stroke: none; stroke-linecap: butt;"/>
<polyline points="485.56,114.60 484.84,115.91 484.12,117.19 483.40,118.44 482.68,119.67 481.95,120.88 481.23,122.06 480.51,123.22 479.79,124.35 479.07,125.45 478.34,126.51 477.62,127.52 476.90,128.49 476.18,129.41 475.46,130.28 474.73,131.10 474.01,131.89 473.29,132.63 472.57,133.33 471.85,134.00 471.13,134.63 470.40,135.22 469.68,135.76 468.96,136.25 468.24,136.68 467.52,137.06 466.79,137.38 466.07,137.65 465.35,137.88 464.63,138.06 463.91,138.21 463.18,138.31 462.46,138.38 461.74,138.42 461.02,138.41 460.30,138.37 459.58,138.28 458.85,138.14 458.13,137.96 457.41,137.73 456.69,137.48 455.97,137.19 455.24,136.88 454.52,136.55 453.80,136.20 453.08,135.83 452.36,135.45 451.63,135.05 450.91,134.63 450.19,134.18 449.47,133.72 448.75,133.23 448.03,132.74 447.30,132.23 446.58,131.73 445.86,131.23 445.14,130.73 444.42,130.24 443.69,129.76 442.97,129.28 442.25,128.80 441.53,128.33 440.81,127.86 440.08,127.38 439.36,126.92 438.64,126.46 437.92,126.02 437.20,125.60 436.48,125.20 435.75,124.82 435.03,124.46 434.31,124.12 433.59,123.79 432.87,123.48 432.14,123.18 431.42,122.89 430.70,122.62 429.98,122.36 429.26,122.12 428.53,121.91 427.81,121.73 427.09,121.59 426.37,121.48 425.65,121.41 424.93,121.38 424.20,121.38 423.48,121.40 " style="stroke-width: 1.07; stroke: none; stroke-linecap: butt;"/>
<polygon points="486.28,106.91 487.01,105.52 487.73,104.12 488.45,102.69 489.17,101.24 489.17,107.69 488.45,109.11 487.73,110.51 487.01,111.90 486.28,113.26 " style="stroke-width: 0.00; stroke: none; stroke-linecap: butt; fill: #E35760; fill-opacity: 0.30;"/>
<polyline points="486.28,106.91 487.01,105.52 487.73,104.12 488.45,102.69 489.17,101.24 " style="stroke-width: 1.07; stroke: none; stroke-linecap: butt;"/>
<polyline points="489.17,107.69 488.45,109.11 487.73,110.51 487.01,111.90 486.28,113.26 " style="stroke-width: 1.07; stroke: none; stroke-linecap: butt;"/>
<polygon points="489.89,99.76 490.62,98.24 491.34,96.69 492.06,95.10 492.78,93.47 493.50,91.80 494.23,90.10 494.95,88.37 494.95,96.93 494.23,98.20 493.50,99.48 492.78,100.80 492.06,102.14 491.34,103.50 490.62,104.89 489.89,106.29 " style="stroke-width: 0.00; stroke: none; stroke-linecap: butt; fill: #6F849C; fill-opacity: 0.30;"/>
<polyline points="489.89,99.76 490.62,98.24 491.34,96.69 492.06,95.10 492.78,93.47 493.50,91.80 494.23,90.10 494.95,88.37 " style="stroke-width: 1.07; stroke: none; stroke-linecap: butt;"/>
<polyline points="494.95,96.93 494.23,98.20 493.50,99.48 492.78,100.80 492.06,102.14 491.34,103.50 490.62,104.89 489.89,106.29 " style="stroke-width: 1.07; stroke: none; stroke-linecap: butt;"/>
<polyline points="423.48,117.15 424.20,117.36 424.93,117.57 425.65,117.78 426.37,117.99 427.09,118.21 427.81,118.44 428.53,118.67 429.26,118.92 429.98,119.17 430.70,119.44 431.42,119.73 432.14,120.03 432.87,120.34 433.59,120.68 434.31,121.03 435.03,121.39 435.75,121.77 436.48,122.17 437.20,122.58 437.92,123.00 438.64,123.43 439.36,123.88 440.08,124.33 440.81,124.80 441.53,125.28 442.25,125.76 442.97,126.25 443.69,126.75 444.42,127.25 445.14,127.75 445.86,128.25 446.58,128.75 447.30,129.25 448.03,129.74 448.75,130.22 449.47,130.69 450.19,131.15 450.91,131.60 451.63,132.03 452.36,132.45 453.08,132.85 453.80,133.23 454.52,133.58 455.24,133.91 455.97,134.21 456.69,134.48 457.41,134.73 458.13,134.93 458.85,135.11 459.58,135.25 460.30,135.35 461.02,135.41 461.74,135.43 462.46,135.40 463.18,135.34 463.91,135.24 464.63,135.09 465.35,134.89 466.07,134.65 466.79,134.36 467.52,134.03 468.24,133.65 468.96,133.22 469.68,132.74 470.40,132.21 471.13,131.64 471.85,131.02 472.57,130.35 473.29,129.64 474.01,128.88 474.73,128.08 475.46,127.23 476.18,126.35 476.90,125.42 477.62,124.45 478.34,123.44 479.07,122.39 479.79,121.30 480.51,120.17 481.23,119.02 481.95,117.83 482.68,116.61 483.40,115.36 484.12,114.08 484.84,112.77 485.56,111.44 " style="stroke-width: 2.13; stroke: #6F849C; stroke-linecap: butt;"/>
<polyline points="486.28,110.09 487.01,108.71 487.73,107.31 488.45,105.90 489.17,104.47 " style="stroke-width: 2.13; stroke: #E35760; stroke-linecap: butt;"/>
<polyline points="489.89,103.02 490.62,101.57 491.34,100.10 492.06,98.62 492.78,97.13 493.50,95.64 494.23,94.15 494.95,92.65 " style="stroke-width: 2.13; stroke: #6F849C; stroke-linecap: butt;"/>
<rect x="419.91" y="62.24" width="78.61" height="79.80" style="stroke-width: 1.07; stroke: #333333;"/>
</g>
<g clip-path="url(#cpMC4wMHw1MDQuMDB8MC4wMHwxNzIuODA=)">
</g>
<defs>
  <clipPath id="cpMjUxLjczfDMzMC4zNHw0NC42OHw2Mi4yNA==">
    <rect x="251.73" y="44.68" width="78.61" height="17.57"/>
  </clipPath>
</defs>
<g clip-path="url(#cpMjUxLjczfDMzMC4zNHw0NC42OHw2Mi4yNA==)">
<rect x="251.73" y="44.68" width="78.61" height="17.57" style="stroke-width: 1.07; stroke: #333333; fill: #D9D9D9;"/>
<text x="291.03" y="56.77" text-anchor="middle" style="font-size: 10.00px; fill: #1A1A1A; font-family: Times New Roman;" textLength="18.89px" lengthAdjust="spacingAndGlyphs">M-R</text>
</g>
<g clip-path="url(#cpMC4wMHw1MDQuMDB8MC4wMHwxNzIuODA=)">
</g>
<defs>
  <clipPath id="cpMzM1LjgyfDQxNC40M3w0NC42OHw2Mi4yNA==">
    <rect x="335.82" y="44.68" width="78.61" height="17.57"/>
  </clipPath>
</defs>
<g clip-path="url(#cpMzM1LjgyfDQxNC40M3w0NC42OHw2Mi4yNA==)">
<rect x="335.82" y="44.68" width="78.61" height="17.57" style="stroke-width: 1.07; stroke: #333333; fill: #D9D9D9;"/>
<text x="375.12" y="56.77" text-anchor="middle" style="font-size: 10.00px; fill: #1A1A1A; font-family: Times New Roman;" textLength="18.89px" lengthAdjust="spacingAndGlyphs">M-C</text>
</g>
<g clip-path="url(#cpMC4wMHw1MDQuMDB8MC4wMHwxNzIuODA=)">
</g>
<defs>
  <clipPath id="cpNDE5LjkxfDQ5OC41Mnw0NC42OHw2Mi4yNA==">
    <rect x="419.91" y="44.68" width="78.61" height="17.57"/>
  </clipPath>
</defs>
<g clip-path="url(#cpNDE5LjkxfDQ5OC41Mnw0NC42OHw2Mi4yNA==)">
<rect x="419.91" y="44.68" width="78.61" height="17.57" style="stroke-width: 1.07; stroke: #333333; fill: #D9D9D9;"/>
<text x="459.21" y="56.77" text-anchor="middle" style="font-size: 10.00px; fill: #1A1A1A; font-family: Times New Roman;" textLength="16.67px" lengthAdjust="spacingAndGlyphs">R-C</text>
</g>
<g clip-path="url(#cpMC4wMHw1MDQuMDB8MC4wMHwxNzIuODA=)">
<polyline points="255.30,144.79 255.30,142.05 " style="stroke-width: 1.07; stroke: #333333; stroke-linecap: butt;"/>
<polyline points="273.16,144.79 273.16,142.05 " style="stroke-width: 1.07; stroke: #333333; stroke-linecap: butt;"/>
<polyline points="291.03,144.79 291.03,142.05 " style="stroke-width: 1.07; stroke: #333333; stroke-linecap: butt;"/>
<polyline points="308.90,144.79 308.90,142.05 " style="stroke-width: 1.07; stroke: #333333; stroke-linecap: butt;"/>
<polyline points="326.76,144.79 326.76,142.05 " style="stroke-width: 1.07; stroke: #333333; stroke-linecap: butt;"/>
<text x="255.30" y="153.60" text-anchor="middle" style="font-size: 10.00px; fill: #4D4D4D; font-family: Times New Roman;" textLength="5.00px" lengthAdjust="spacingAndGlyphs">0</text>
<text x="273.16" y="153.60" text-anchor="middle" style="font-size: 10.00px; fill: #4D4D4D; font-family: Times New Roman;" textLength="10.01px" lengthAdjust="spacingAndGlyphs">25</text>
<text x="291.03" y="153.60" text-anchor="middle" style="font-size: 10.00px; fill: #4D4D4D; font-family: Times New Roman;" textLength="10.01px" lengthAdjust="spacingAndGlyphs">50</text>
<text x="308.90" y="153.60" text-anchor="middle" style="font-size: 10.00px; fill: #4D4D4D; font-family: Times New Roman;" textLength="10.01px" lengthAdjust="spacingAndGlyphs">75</text>
<text x="326.76" y="153.60" text-anchor="middle" style="font-size: 10.00px; fill: #4D4D4D; font-family: Times New Roman;" textLength="15.01px" lengthAdjust="spacingAndGlyphs">100</text>
<polyline points="339.39,144.79 339.39,142.05 " style="stroke-width: 1.07; stroke: #333333; stroke-linecap: butt;"/>
<polyline points="357.26,144.79 357.26,142.05 " style="stroke-width: 1.07; stroke: #333333; stroke-linecap: butt;"/>
<polyline points="375.12,144.79 375.12,142.05 " style="stroke-width: 1.07; stroke: #333333; stroke-linecap: butt;"/>
<polyline points="392.99,144.79 392.99,142.05 " style="stroke-width: 1.07; stroke: #333333; stroke-linecap: butt;"/>
<polyline points="410.86,144.79 410.86,142.05 " style="stroke-width: 1.07; stroke: #333333; stroke-linecap: butt;"/>
<text x="339.39" y="153.60" text-anchor="middle" style="font-size: 10.00px; fill: #4D4D4D; font-family: Times New Roman;" textLength="5.00px" lengthAdjust="spacingAndGlyphs">0</text>
<text x="357.26" y="153.60" text-anchor="middle" style="font-size: 10.00px; fill: #4D4D4D; font-family: Times New Roman;" textLength="10.01px" lengthAdjust="spacingAndGlyphs">25</text>
<text x="375.12" y="153.60" text-anchor="middle" style="font-size: 10.00px; fill: #4D4D4D; font-family: Times New Roman;" textLength="10.01px" lengthAdjust="spacingAndGlyphs">50</text>
<text x="392.99" y="153.60" text-anchor="middle" style="font-size: 10.00px; fill: #4D4D4D; font-family: Times New Roman;" textLength="10.01px" lengthAdjust="spacingAndGlyphs">75</text>
<text x="410.86" y="153.60" text-anchor="middle" style="font-size: 10.00px; fill: #4D4D4D; font-family: Times New Roman;" textLength="15.01px" lengthAdjust="spacingAndGlyphs">100</text>
<polyline points="423.48,144.79 423.48,142.05 " style="stroke-width: 1.07; stroke: #333333; stroke-linecap: butt;"/>
<polyline points="441.35,144.79 441.35,142.05 " style="stroke-width: 1.07; stroke: #333333; stroke-linecap: butt;"/>
<polyline points="459.21,144.79 459.21,142.05 " style="stroke-width: 1.07; stroke: #333333; stroke-linecap: butt;"/>
<polyline points="477.08,144.79 477.08,142.05 " style="stroke-width: 1.07; stroke: #333333; stroke-linecap: butt;"/>
<polyline points="494.95,144.79 494.95,142.05 " style="stroke-width: 1.07; stroke: #333333; stroke-linecap: butt;"/>
<text x="423.48" y="153.60" text-anchor="middle" style="font-size: 10.00px; fill: #4D4D4D; font-family: Times New Roman;" textLength="5.00px" lengthAdjust="spacingAndGlyphs">0</text>
<text x="441.35" y="153.60" text-anchor="middle" style="font-size: 10.00px; fill: #4D4D4D; font-family: Times New Roman;" textLength="10.01px" lengthAdjust="spacingAndGlyphs">25</text>
<text x="459.21" y="153.60" text-anchor="middle" style="font-size: 10.00px; fill: #4D4D4D; font-family: Times New Roman;" textLength="10.01px" lengthAdjust="spacingAndGlyphs">50</text>
<text x="477.08" y="153.60" text-anchor="middle" style="font-size: 10.00px; fill: #4D4D4D; font-family: Times New Roman;" textLength="10.01px" lengthAdjust="spacingAndGlyphs">75</text>
<text x="494.95" y="153.60" text-anchor="middle" style="font-size: 10.00px; fill: #4D4D4D; font-family: Times New Roman;" textLength="15.01px" lengthAdjust="spacingAndGlyphs">100</text>
<text x="246.79" y="132.26" text-anchor="end" style="font-size: 10.00px; fill: #4D4D4D; font-family: Times New Roman;" textLength="8.34px" lengthAdjust="spacingAndGlyphs">-5</text>
<text x="246.79" y="110.63" text-anchor="end" style="font-size: 10.00px; fill: #4D4D4D; font-family: Times New Roman;" textLength="5.00px" lengthAdjust="spacingAndGlyphs">0</text>
<text x="246.79" y="89.00" text-anchor="end" style="font-size: 10.00px; fill: #4D4D4D; font-family: Times New Roman;" textLength="5.00px" lengthAdjust="spacingAndGlyphs">5</text>
<text x="246.79" y="67.37" text-anchor="end" style="font-size: 10.00px; fill: #4D4D4D; font-family: Times New Roman;" textLength="10.01px" lengthAdjust="spacingAndGlyphs">10</text>
<polyline points="248.99,128.95 251.73,128.95 " style="stroke-width: 1.07; stroke: #333333; stroke-linecap: butt;"/>
<polyline points="248.99,107.32 251.73,107.32 " style="stroke-width: 1.07; stroke: #333333; stroke-linecap: butt;"/>
<polyline points="248.99,85.69 251.73,85.69 " style="stroke-width: 1.07; stroke: #333333; stroke-linecap: butt;"/>
<polyline points="248.99,64.06 251.73,64.06 " style="stroke-width: 1.07; stroke: #333333; stroke-linecap: butt;"/>
<text x="375.12" y="165.14" text-anchor="middle" style="font-size: 10.00px; font-family: Times New Roman;" textLength="85.75px" lengthAdjust="spacingAndGlyphs">Time (normalized %)</text>
<text transform="translate(231.23,102.14) rotate(-90)" text-anchor="middle" style="font-size: 10.00px; font-family: Times New Roman;" textLength="82.01px" lengthAdjust="spacingAndGlyphs">ΔResidual H1* (dB)</text>
<rect x="299.18" y="5.48" width="151.89" height="28.24" style="stroke-width: 1.07; stroke: none; fill: #FFFFFF;"/>
<text x="304.66" y="22.91" style="font-size: 10.00px; font-family: Times New Roman;" textLength="42.24px" lengthAdjust="spacingAndGlyphs">significant</text>
<rect x="351.66" y="10.96" width="17.28" height="17.28" style="stroke-width: 1.07; stroke: none; fill: #FFFFFF;"/>
<rect x="352.37" y="11.67" width="15.86" height="15.86" style="stroke-width: 1.07; stroke: none; stroke-linecap: butt; stroke-linejoin: miter; fill: #6F849C; fill-opacity: 0.30;"/>
<line x1="353.39" y1="19.60" x2="367.21" y2="19.60" style="stroke-width: 2.13; stroke: #6F849C; stroke-linecap: butt;"/>
<rect x="399.47" y="10.96" width="17.28" height="17.28" style="stroke-width: 1.07; stroke: none; fill: #FFFFFF;"/>
<rect x="400.18" y="11.67" width="15.86" height="15.86" style="stroke-width: 1.07; stroke: none; stroke-linecap: butt; stroke-linejoin: miter; fill: #E35760; fill-opacity: 0.30;"/>
<line x1="401.20" y1="19.60" x2="415.02" y2="19.60" style="stroke-width: 2.13; stroke: #E35760; stroke-linecap: butt;"/>
<text x="373.92" y="22.25" style="font-size: 8.00px; font-family: Times New Roman;" textLength="20.89px" lengthAdjust="spacingAndGlyphs">TRUE</text>
<text x="421.73" y="22.25" style="font-size: 8.00px; font-family: Times New Roman;" textLength="23.86px" lengthAdjust="spacingAndGlyphs">FALSE</text>
</g>
</svg>