<svg xmlns="http://www.w3.org/2000/svg" xmlns:xlink="http://www.w3.org/1999/xlink" version="1.1" width="719.6193pt" height="268.251pt" viewBox="0 0 719.6193 268.251">
<defs>
<clipPath id="clip_0">
<path transform="matrix(.24,0,0,.24,-41.7637,-186.32999)" d="M120.833 120.833H3183.333V2433.333H120.833Z" fill-rule="evenodd"/>
</clipPath>
<clipPath id="clip_1">
<path transform="matrix(.24,0,0,.24,-41.7637,-186.32999)" d="M2070.833 1061.483H2245.833V1161.483H2070.833Z" fill-rule="evenodd"/>
</clipPath>
<clipPath id="clip_2">
<path transform="matrix(.24,0,0,.24,-41.7637,-186.32999)" d="M120.833 120.833H3183.333V2433.333H120.833Z" fill-rule="evenodd"/>
</clipPath>
<clipPath id="clip_3">
<path transform="matrix(.24,0,0,.24,-41.7637,-186.32999)" d="M1530.208 1392.733H1570.833V1433.358H1530.208Z" fill-rule="evenodd"/>
</clipPath>
<clipPath id="clip_4">
<path transform="matrix(.24,0,0,.24,-41.7637,-186.32999)" d="M120.833 120.833H3183.333V2433.333H120.833Z" fill-rule="evenodd"/>
</clipPath>
<clipPath id="clip_5">
<path transform="matrix(.24,0,0,.24,-41.7637,-186.32999)" d="M1739.583 1392.733H1780.208V1433.358H1739.583Z" fill-rule="evenodd"/>
</clipPath>
<clipPath id="clip_6">
<path transform="matrix(.24,0,0,.24,-41.7637,-186.32999)" d="M120.833 120.833H3183.333V2433.333H120.833Z" fill-rule="evenodd"/>
</clipPath>
<clipPath id="clip_7">
<path transform="matrix(.24,0,0,.24,-41.7637,-186.32999)" d="M1564.583 1617.733H1739.583V1717.733H1564.583Z" fill-rule="evenodd"/>
</clipPath>
<clipPath id="clip_8">
<path transform="matrix(.24,0,0,.24,-41.7637,-186.32999)" d="M120.833 120.833H3183.333V2433.333H120.833Z" fill-rule="evenodd"/>
</clipPath>
</defs>
<g clip-path="url(#clip_0)">
<path transform="matrix(.75000008,0,0,.75000008,-12.763697,-157.32999)" d="M0 0H980V740H0Z" fill="#ffffff"/>
<g id="layer_1" data-name="P">
</g>
<g id="layer_1" data-name="P">
</g>
<g id="layer_1" data-name="P">
</g>
<g id="layer_1" data-name="P">
</g>
<g id="layer_1" data-name="P">
</g>
<g id="layer_1" data-name="P">
</g>
<g id="layer_1" data-name="P">
</g>
<text xml:space="preserve" transform="matrix(1 0 -0 1 -41.763704 425.67)" font-size="15.997499" font-family="MicrosoftYaHei"><tspan y="-378.2441" x="340.1914">&#x7b2c;</tspan></text>
<text xml:space="preserve" transform="matrix(1 0 -0 1 -41.763704 425.67)" font-size="15.997499" font-family="ArialMT"><tspan y="-378.2441" x="356.1889 363.89863 372.79325 377.24055 386.13517">11/20</tspan></text>
<text xml:space="preserve" transform="matrix(1 0 -0 1 -41.763704 425.67)" font-size="15.997499" font-family="MicrosoftYaHei"><tspan y="-378.2441" x="395.0298">&#x9898;</tspan></text>
<text xml:space="preserve" transform="matrix(1 0 -0 1 -41.763704 425.67)" font-size="15.997499" font-family="ArialMT"><tspan y="-378.2441" x="411.02729 415.47459 420.80177 429.69639 438.591 447.48564"> (104)</tspan></text>
<text xml:space="preserve" transform="matrix(1 0 -0 1 -41.763704 425.67)" font-size="15.997499" font-family="MicrosoftYaHei"><tspan y="-339.2441" x="253.8004 269.7979 285.7954 301.7929 317.7904 333.7879 349.7854 365.7829 381.7804 397.7779 413.7754 429.7729 445.7704 461.76789">&#x60a8;&#x542c;&#x5230;&#x7684;&#x5f55;&#x97f3;&#x5c5e;&#x4e8e;&#x4ee5;&#x4e0b;&#x54ea;&#x4e2a;&#x8bcd;&#xff1f;</tspan></text>
<text xml:space="preserve" transform="matrix(1 0 -0 1 -41.763704 425.67)" font-size="15.997499" font-family="ArialMT"><tspan y="-339.2441" x="477.76539"> </tspan></text>
</g>
<g clip-path="url(#clip_1)">
<path transform="matrix(.75000008,0,0,.75000008,455.61134,90.55087)" d="M0 0V-27C0-27.265 .051-27.52 .152-27.765 .254-28.01 .398-28.227 .586-28.414 .773-28.602 .99-28.746 1.235-28.848 1.48-28.949 1.735-29 2-29H53C53.265-29 53.52-28.949 53.765-28.848 54.01-28.746 54.227-28.602 54.414-28.414 54.602-28.227 54.746-28.01 54.848-27.765 54.949-27.52 55-27.265 55-27V0C55 .265 54.949 .52 54.848 .765 54.746 1.01 54.602 1.227 54.414 1.414 54.227 1.602 54.01 1.746 53.765 1.848 53.52 1.949 53.265 2 53 2H2C1.735 2 1.48 1.949 1.235 1.848 .99 1.746 .773 1.602 .586 1.414 .398 1.227 .254 1.01 .152 .765 .051 .52 0 .265 0 0Z" fill="#efefef"/>
<path transform="matrix(.75000008,0,0,.75000008,455.61134,90.55087)" stroke-width="1" stroke-linecap="butt" stroke-miterlimit="4" stroke-linejoin="miter" fill="none" stroke="#767676" d="M0 0V-27C0-27.265 .051-27.52 .152-27.765 .254-28.01 .398-28.227 .586-28.414 .773-28.602 .99-28.746 1.235-28.848 1.48-28.949 1.735-29 2-29H53C53.265-29 53.52-28.949 53.765-28.848 54.01-28.746 54.227-28.602 54.414-28.414 54.602-28.227 54.746-28.01 54.848-27.765 54.949-27.52 55-27.265 55-27V0C55 .265 54.949 .52 54.848 .765 54.746 1.01 54.602 1.227 54.414 1.414 54.227 1.602 54.01 1.746 53.765 1.848 53.52 1.949 53.265 2 53 2H2C1.735 2 1.48 1.949 1.235 1.848 .99 1.746 .773 1.602 .586 1.414 .398 1.227 .254 1.01 .152 .765 .051 .52 0 .265 0 0Z"/>
</g>
<g clip-path="url(#clip_2)">
<g id="layer_1" data-name="P">
</g>
<text xml:space="preserve" transform="matrix(.99999997 0 -0 .99999997 -41.7637 425.67)" font-size="15" font-family="MicrosoftYaHei"><tspan y="-339.2441" x="503.1992 518.1992">&#x91cd;&#x64ad;</tspan></text>
<text xml:space="preserve" transform="matrix(.99999997 0 -0 .99999997 -41.7637 425.67)" font-size="13.995" font-family="MicrosoftYaHei"><tspan y="-283.7441" x="357.2537 371.2487">&#x94c1;&#x677f;</tspan></text>
</g>
<g clip-path="url(#clip_3)">
<path transform="matrix(.75000008,0,0,.75000008,325.63633,152.80088)" d="M0 0V0C0-.414 .04-.823 .121-1.229 .202-1.635 .321-2.029 .479-2.411 .638-2.793 .832-3.156 1.062-3.5 1.292-3.844 1.553-4.162 1.845-4.455 2.138-4.747 2.456-5.008 2.8-5.238 3.144-5.468 3.507-5.662 3.889-5.82 4.271-5.979 4.665-6.098 5.071-6.179 5.477-6.26 5.886-6.3 6.3-6.3 6.714-6.3 7.123-6.26 7.529-6.179 7.935-6.098 8.329-5.979 8.711-5.82 9.093-5.662 9.456-5.468 9.8-5.238 10.144-5.008 10.462-4.747 10.755-4.455 11.047-4.162 11.308-3.844 11.538-3.5 11.768-3.156 11.962-2.793 12.12-2.411 12.279-2.029 12.398-1.635 12.479-1.229 12.56-.823 12.6-.414 12.6 0 12.6 .414 12.56 .823 12.479 1.229 12.398 1.635 12.279 2.029 12.12 2.411 11.962 2.793 11.768 3.156 11.538 3.5 11.308 3.844 11.047 4.162 10.755 4.455 10.462 4.747 10.144 5.008 9.8 5.238 9.456 5.468 9.093 5.662 8.711 5.82 8.329 5.979 7.935 6.098 7.529 6.179 7.123 6.26 6.714 6.3 6.3 6.3 5.886 6.3 5.477 6.26 5.071 6.179 4.665 6.098 4.271 5.979 3.889 5.82 3.507 5.662 3.144 5.468 2.8 5.238 2.456 5.008 2.138 4.747 1.845 4.455 1.553 4.162 1.292 3.844 1.062 3.5 .832 3.156 .638 2.793 .479 2.411 .321 2.029 .202 1.635 .121 1.229 .04 .823 0 .414 0 0Z" fill="#ffffff"/>
<path transform="matrix(.75000008,0,0,.75000008,334.86134,152.80088)" stroke-width="1" stroke-linecap="butt" stroke-miterlimit="4" stroke-linejoin="miter" fill="none" stroke="#767676" d="M0 0C0 .394-.038 .784-.115 1.171-.192 1.557-.306 1.932-.457 2.296-.608 2.66-.792 3.006-1.011 3.333-1.23 3.661-1.479 3.964-1.757 4.243-2.036 4.521-2.339 4.77-2.667 4.989-2.994 5.208-3.34 5.392-3.704 5.543-4.068 5.694-4.443 5.808-4.829 5.885-5.216 5.962-5.606 6-6 6-6.394 6-6.784 5.962-7.171 5.885-7.557 5.808-7.932 5.694-8.296 5.543-8.66 5.392-9.006 5.208-9.333 4.989-9.661 4.77-9.964 4.521-10.243 4.243-10.521 3.964-10.77 3.661-10.989 3.333-11.208 3.006-11.393 2.66-11.543 2.296-11.694 1.932-11.808 1.557-11.885 1.171-11.962 .784-12 .394-12 0-12-.394-11.962-.784-11.885-1.171-11.808-1.557-11.694-1.932-11.543-2.296-11.393-2.66-11.208-3.006-10.989-3.333-10.77-3.661-10.521-3.964-10.243-4.243-9.964-4.521-9.661-4.77-9.333-4.989-9.006-5.208-8.66-5.393-8.296-5.543-7.932-5.694-7.557-5.808-7.171-5.885-6.784-5.962-6.394-6-6-6-5.606-6-5.216-5.962-4.829-5.885-4.443-5.808-4.068-5.694-3.704-5.543-3.34-5.393-2.994-5.208-2.667-4.989-2.339-4.77-2.036-4.521-1.757-4.243-1.479-3.964-1.23-3.661-1.011-3.333-.792-3.006-.608-2.66-.457-2.296-.306-1.932-.192-1.557-.115-1.171-.038-.784 0-.394 0 0Z"/>
</g>
<g clip-path="url(#clip_4)">
<text xml:space="preserve" transform="matrix(.99999997 0 -0 .99999997 -41.7637 425.67)" font-size="13.995" font-family="MicrosoftYaHei"><tspan y="-283.7441" x="407.75 421.745">&#x66ff;&#x8865;</tspan></text>
</g>
<g clip-path="url(#clip_5)">
<path transform="matrix(.75000008,0,0,.75000008,375.88633,152.80088)" d="M0 0V0C0-.414 .04-.823 .121-1.229 .202-1.635 .321-2.029 .479-2.411 .638-2.793 .832-3.156 1.062-3.5 1.292-3.844 1.553-4.162 1.845-4.455 2.138-4.747 2.456-5.008 2.8-5.238 3.144-5.468 3.507-5.662 3.889-5.82 4.271-5.979 4.665-6.098 5.071-6.179 5.477-6.26 5.886-6.3 6.3-6.3 6.714-6.3 7.123-6.26 7.529-6.179 7.935-6.098 8.329-5.979 8.711-5.82 9.093-5.662 9.456-5.468 9.8-5.238 10.144-5.008 10.462-4.747 10.755-4.455 11.047-4.162 11.308-3.844 11.538-3.5 11.768-3.156 11.962-2.793 12.12-2.411 12.279-2.029 12.398-1.635 12.479-1.229 12.56-.823 12.6-.414 12.6 0 12.6 .414 12.56 .823 12.479 1.229 12.398 1.635 12.279 2.029 12.12 2.411 11.962 2.793 11.768 3.156 11.538 3.5 11.308 3.844 11.047 4.162 10.755 4.455 10.462 4.747 10.144 5.008 9.8 5.238 9.456 5.468 9.093 5.662 8.711 5.82 8.329 5.979 7.935 6.098 7.529 6.179 7.123 6.26 6.714 6.3 6.3 6.3 5.886 6.3 5.477 6.26 5.071 6.179 4.665 6.098 4.271 5.979 3.889 5.82 3.507 5.662 3.144 5.468 2.8 5.238 2.456 5.008 2.138 4.747 1.845 4.455 1.553 4.162 1.292 3.844 1.062 3.5 .832 3.156 .638 2.793 .479 2.411 .321 2.029 .202 1.635 .121 1.229 .04 .823 0 .414 0 0Z" fill="#ffffff"/>
<path transform="matrix(.75000008,0,0,.75000008,385.11134,152.80088)" stroke-width="1" stroke-linecap="butt" stroke-miterlimit="4" stroke-linejoin="miter" fill="none" stroke="#767676" d="M0 0C0 .394-.038 .784-.115 1.171-.192 1.557-.306 1.932-.457 2.296-.608 2.66-.792 3.006-1.011 3.333-1.23 3.661-1.479 3.964-1.757 4.243-2.036 4.521-2.339 4.77-2.667 4.989-2.994 5.208-3.34 5.392-3.704 5.543-4.068 5.694-4.443 5.808-4.829 5.885-5.216 5.962-5.606 6-6 6-6.394 6-6.784 5.962-7.171 5.885-7.557 5.808-7.932 5.694-8.296 5.543-8.66 5.392-9.006 5.208-9.333 4.989-9.661 4.77-9.964 4.521-10.243 4.243-10.521 3.964-10.77 3.661-10.989 3.333-11.208 3.006-11.393 2.66-11.543 2.296-11.694 1.932-11.808 1.557-11.885 1.171-11.962 .784-12 .394-12 0-12-.394-11.962-.784-11.885-1.171-11.808-1.557-11.694-1.932-11.543-2.296-11.393-2.66-11.208-3.006-10.989-3.333-10.77-3.661-10.521-3.964-10.243-4.243-9.964-4.521-9.661-4.77-9.333-4.989-9.006-5.208-8.66-5.393-8.296-5.543-7.932-5.694-7.557-5.808-7.171-5.885-6.784-5.962-6.394-6-6-6-5.606-6-5.216-5.962-4.829-5.885-4.443-5.808-4.068-5.694-3.704-5.543-3.34-5.393-2.994-5.208-2.667-4.989-2.339-4.77-2.036-4.521-1.757-4.243-1.479-3.964-1.23-3.661-1.011-3.333-.792-3.006-.608-2.66-.457-2.296-.306-1.932-.192-1.557-.115-1.171-.038-.784 0-.394 0 0Z"/>
</g>
<g clip-path="url(#clip_6)">
<g id="layer_1" data-name="P">
<g id="layer_2" data-name="Span">
</g>
</g>
<g id="layer_1" data-name="P">
<g id="layer_2" data-name="Span">
</g>
</g>
</g>
<g clip-path="url(#clip_7)">
<path transform="matrix(.75000008,0,0,.75000008,334.11134,224.05088)" d="M0 0V-27C0-27.265 .051-27.52 .152-27.765 .254-28.01 .398-28.227 .586-28.414 .773-28.602 .99-28.746 1.235-28.848 1.48-28.949 1.735-29 2-29H53C53.265-29 53.52-28.949 53.765-28.848 54.01-28.746 54.227-28.602 54.414-28.414 54.602-28.227 54.746-28.01 54.848-27.765 54.949-27.52 55-27.265 55-27V0C55 .265 54.949 .52 54.848 .765 54.746 1.01 54.602 1.227 54.414 1.414 54.227 1.602 54.01 1.746 53.765 1.848 53.52 1.949 53.265 2 53 2H2C1.735 2 1.48 1.949 1.235 1.848 .99 1.746 .773 1.602 .586 1.414 .398 1.227 .254 1.01 .152 .765 .051 .52 0 .265 0 0Z" fill="#efefef"/>
<path transform="matrix(.75000008,0,0,.75000008,334.11134,224.05088)" stroke-width="1" stroke-linecap="butt" stroke-miterlimit="4" stroke-linejoin="miter" fill="none" stroke="#767676" d="M0 0V-27C0-27.265 .051-27.52 .152-27.765 .254-28.01 .398-28.227 .586-28.414 .773-28.602 .99-28.746 1.235-28.848 1.48-28.949 1.735-29 2-29H53C53.265-29 53.52-28.949 53.765-28.848 54.01-28.746 54.227-28.602 54.414-28.414 54.602-28.227 54.746-28.01 54.848-27.765 54.949-27.52 55-27.265 55-27V0C55 .265 54.949 .52 54.848 .765 54.746 1.01 54.602 1.227 54.414 1.414 54.227 1.602 54.01 1.746 53.765 1.848 53.52 1.949 53.265 2 53 2H2C1.735 2 1.48 1.949 1.235 1.848 .99 1.746 .773 1.602 .586 1.414 .398 1.227 .254 1.01 .152 .765 .051 .52 0 .265 0 0Z"/>
</g>
<g clip-path="url(#clip_8)">
<g id="layer_1" data-name="P">
</g>
<text xml:space="preserve" transform="matrix(.99999997 0 -0 .99999997 -41.7637 425.67)" font-size="15" font-family="MicrosoftYaHei"><tspan y="-205.7441" x="381.5 396.5">&#x63d0;&#x4ea4;</tspan></text>
</g>
<text fill="#0000ff" xml:space="preserve" transform="matrix(1 0 -0 1 -41.7637 425.67)" font-size="15.997" font-family="ArialMT"><tspan y="-338.93" x="60.661 75.76217 84.6565 88.20783 96.20633 105.10066 109.54783 121.097667 129.992 135.319 144.21334 148.66049 157.55483 161.10616 170.00049 174.44766 182.44617 191.3405 200.23484 204.682 213.57634 222.47068 231.365 236.692">Which word did you hear?</tspan></text>
<g id="layer_1" data-name="TouchUp_TextEdit">
</g>
<text fill="#0000ff" xml:space="preserve" transform="matrix(1 0 -0 1 -41.7637 425.67)" font-size="15.997" font-family="ArialMT"><tspan y="-249.388" x="286.259 290.70619 295.15336 301.2802 310.17457 314.62174 323.51606 327.96324 336.85755 345.7519 349.30323 358.19758 362.64476 371.53907 380.4334">/t&#x02b0;e 5 pain 42/</tspan></text>
<g id="layer_1" data-name="TouchUp_TextEdit">
</g>
<text fill="#0000ff" xml:space="preserve" transform="matrix(1 0 -0 1 -41.7637 425.67)" font-size="15.997" font-family="ArialMT"><tspan y="-249.704" x="407.956 412.40318 416.85035 422.9772 431.87153 436.3187 445.213 454.10737 458.55455 467.44886 476.3432 480.79039 489.6847 498.57905">/t&#x02b0;e 35 po 42/</tspan></text>
<g id="layer_1" data-name="TouchUp_TextEdit">
</g>
<text fill="#0000ff" xml:space="preserve" transform="matrix(1 0 -0 1 -41.7637 425.67)" font-size="15" font-family="MicrosoftYaHei"><tspan y="-340.323" x="547.717 557.51199 566.01699 575.602">Repl</tspan></text>
<text fill="#0000ff" xml:space="preserve" transform="matrix(1 0 -0 1 -41.7637 425.67)" font-size="15" font-family="MicrosoftYaHei"><tspan y="-340.323" x="579.592">a</tspan></text>
<text fill="#0000ff" xml:space="preserve" transform="matrix(1 0 -0 1 -41.7637 425.67)" font-size="15" font-family="MicrosoftYaHei"><tspan y="-340.323" x="587.88699">y</tspan></text>
<g id="layer_1" data-name="TouchUp_TextEdit">
</g>
<text fill="#0000ff" xml:space="preserve" transform="matrix(1 0 -0 1 -41.7637 425.67)" font-size="15" font-family="MicrosoftYaHei"><tspan y="-181.539" x="371.951 380.606 389.84599 399.43098 413.48597 417.47596">Submit</tspan></text>
</svg>
