<?xml version="1.0" encoding="UTF-8" standalone="no"?>
<!DOCTYPE svg PUBLIC "-//W3C//DTD SVG 1.1//EN" "http://www.w3.org/Graphics/SVG/1.1/DTD/svg11.dtd">
<svg xmlns="http://www.w3.org/2000/svg" xmlns:xlink="http://www.w3.org/1999/xlink" version="1.1" width="612.1466pt" height="217.093pt" viewBox="0 0 612.1466 217.093">
<g enable-background="new">
<clipPath id="cp0">
<path transform="matrix(.24,0,0,.24,-93.2304,-142.22299)" d="M 120.833 120.833 L 3183.333 120.833 L 3183.333 2433.333 L 120.833 2433.333 Z " fill-rule="evenodd"/>
</clipPath>
<g clip-path="url(#cp0)">
<path transform="matrix(.75000008,0,0,.75000008,-64.2304,-113.22299)" d="M 0 0 L 980 0 L 980 740 L 0 740 Z " fill="#ffffff"/>
<g id="Layer-1" data-name="P">
</g>
<g id="Layer-1" data-name="P">
</g>
<g id="Layer-1" data-name="P">
</g>
<g id="Layer-1" data-name="P">
</g>
<g id="Layer-1" data-name="P">
</g>
<g id="Layer-1" data-name="P">
</g>
<g id="Layer-1" data-name="P">
</g>
<text xml:space="preserve" transform="matrix(1 0 -0 1 -93.23041 469.777)" font-size="15.997499" font-family="MicrosoftYaHei"><tspan y="-442" x="348.4883">&#x7b2c;</tspan></text>
<text xml:space="preserve" transform="matrix(1 0 -0 1 -93.23041 469.777)" font-size="15.997499" font-family="ArialMT"><tspan y="-442" x="364.4858 373.38044 377.82774 386.72236">1/40</tspan></text>
<text xml:space="preserve" transform="matrix(1 0 -0 1 -93.23041 469.777)" font-size="15.997499" font-family="MicrosoftYaHei"><tspan y="-442" x="395.61698">&#x9898;</tspan></text>
<text xml:space="preserve" transform="matrix(1 0 -0 1 -93.23041 469.777)" font-size="15.997499" font-family="ArialMT"><tspan y="-442" x="411.61448 416.06178 421.38896 430.28358 439.1782"> (10)</tspan></text>
<text xml:space="preserve" transform="matrix(1 0 -0 1 -93.23041 469.777)" font-size="15.997499" font-family="MicrosoftYaHei"><tspan y="-403" x="285.79283 301.7903 317.7878 333.7853 349.7828 365.7803 381.7778 397.7753 413.7728 429.7703">&#x60a8;&#x542c;&#x5230;&#x4e86;&#x4ee5;&#x4e0b;&#x54ea;&#x4e2a;&#x5b57;&#xff1f;</tspan></text>
<text xml:space="preserve" transform="matrix(1 0 -0 1 -93.23041 469.777)" font-size="15.997499" font-family="ArialMT"><tspan y="-403" x="445.7678"> </tspan></text>
</g>
<clipPath id="cp1">
<path transform="matrix(.24,0,0,.24,-93.2304,-142.22299)" d="M 1939.583 795.833 L 2114.583 795.833 L 2114.583 895.833 L 1939.583 895.833 Z " fill-rule="evenodd"/>
</clipPath>
<g clip-path="url(#cp1)">
<path transform="matrix(.75000008,0,0,.75000008,372.64463,70.90201)" d="M 0 0 L 0 -27 C 0 -27.265 .051 -27.52 .152 -27.765 C .254 -28.01 .398 -28.227 .586 -28.414 C .773 -28.602 .99 -28.746 1.235 -28.848 C 1.48 -28.949 1.735 -29 2 -29 L 53 -29 C 53.265 -29 53.52 -28.949 53.765 -28.848 C 54.01 -28.746 54.227 -28.602 54.414 -28.414 C 54.602 -28.227 54.746 -28.01 54.848 -27.765 C 54.949 -27.52 55 -27.265 55 -27 L 55 0 C 55 .265 54.949 .52 54.848 .765 C 54.746 1.01 54.602 1.227 54.414 1.414 C 54.227 1.602 54.01 1.746 53.765 1.848 C 53.52 1.949 53.265 2 53 2 L 2 2 C 1.735 2 1.48 1.949 1.235 1.848 C .99 1.746 .773 1.602 .586 1.414 C .398 1.227 .254 1.01 .152 .765 C .051 .52 0 .265 0 0 Z " fill="#efefef"/>
<path transform="matrix(.75000008,0,0,.75000008,372.64463,70.90201)" stroke-width="1" stroke-linecap="butt" stroke-miterlimit="4" stroke-linejoin="miter" fill="none" stroke="#767676" d="M 0 0 L 0 -27 C 0 -27.265 .051 -27.52 .152 -27.765 C .254 -28.01 .398 -28.227 .586 -28.414 C .773 -28.602 .99 -28.746 1.235 -28.848 C 1.48 -28.949 1.735 -29 2 -29 L 53 -29 C 53.265 -29 53.52 -28.949 53.765 -28.848 C 54.01 -28.746 54.227 -28.602 54.414 -28.414 C 54.602 -28.227 54.746 -28.01 54.848 -27.765 C 54.949 -27.52 55 -27.265 55 -27 L 55 0 C 55 .265 54.949 .52 54.848 .765 C 54.746 1.01 54.602 1.227 54.414 1.414 C 54.227 1.602 54.01 1.746 53.765 1.848 C 53.52 1.949 53.265 2 53 2 L 2 2 C 1.735 2 1.48 1.949 1.235 1.848 C .99 1.746 .773 1.602 .586 1.414 C .398 1.227 .254 1.01 .152 .765 C .051 .52 0 .265 0 0 Z "/>
</g>
<clipPath id="cp2">
<path transform="matrix(.24,0,0,.24,-93.2304,-142.22299)" d="M 120.833 120.833 L 3183.333 120.833 L 3183.333 2433.333 L 120.833 2433.333 Z " fill-rule="evenodd"/>
</clipPath>
<g clip-path="url(#cp2)">
<g id="Layer-1" data-name="P">
</g>
<text xml:space="preserve" transform="matrix(.99999997 0 -0 .99999997 -93.2304 469.777)" font-size="15" font-family="MicrosoftYaHei"><tspan y="-403" x="471.207 486.207">&#x91cd;&#x64ad;</tspan></text>
</g>
<clipPath id="cp3">
<path transform="matrix(.24,0,0,.24,-93.2304,-142.22299)" d="M 1158.333 1127.083 L 1198.958 1127.083 L 1198.958 1167.708 L 1158.333 1167.708 Z " fill-rule="evenodd"/>
</clipPath>
<g clip-path="url(#cp3)">
<path transform="matrix(.75000008,0,0,.75000008,194.3696,133.15201)" d="M 0 0 C 0 .414 -.04 .823 -.121 1.229 C -.202 1.635 -.321 2.029 -.48 2.411 C -.638 2.793 -.832 3.156 -1.062 3.5 C -1.292 3.844 -1.553 4.162 -1.845 4.455 C -2.138 4.747 -2.456 5.008 -2.8 5.238 C -3.144 5.468 -3.507 5.662 -3.889 5.82 C -4.271 5.979 -4.665 6.098 -5.071 6.179 C -5.477 6.26 -5.886 6.3 -6.3 6.3 C -6.714 6.3 -7.123 6.26 -7.529 6.179 C -7.935 6.098 -8.329 5.979 -8.711 5.82 C -9.093 5.662 -9.456 5.468 -9.8 5.238 C -10.144 5.008 -10.462 4.747 -10.755 4.455 C -11.047 4.162 -11.308 3.844 -11.538 3.5 C -11.768 3.156 -11.962 2.793 -12.12 2.411 C -12.279 2.029 -12.398 1.635 -12.479 1.229 C -12.56 .823 -12.6 .414 -12.6 0 C -12.6 -.414 -12.56 -.823 -12.479 -1.229 C -12.398 -1.635 -12.279 -2.029 -12.12 -2.411 C -11.962 -2.793 -11.768 -3.156 -11.538 -3.5 C -11.308 -3.844 -11.047 -4.162 -10.755 -4.455 C -10.462 -4.747 -10.144 -5.008 -9.8 -5.238 C -9.456 -5.468 -9.093 -5.662 -8.711 -5.82 C -8.329 -5.979 -7.935 -6.098 -7.529 -6.179 C -7.123 -6.26 -6.714 -6.3 -6.3 -6.3 C -5.886 -6.3 -5.477 -6.26 -5.071 -6.179 C -4.665 -6.098 -4.271 -5.979 -3.889 -5.82 C -3.507 -5.662 -3.144 -5.468 -2.8 -5.238 C -2.456 -5.008 -2.138 -4.747 -1.845 -4.455 C -1.553 -4.162 -1.292 -3.844 -1.062 -3.5 C -.832 -3.156 -.638 -2.793 -.48 -2.411 C -.321 -2.029 -.202 -1.635 -.121 -1.229 C -.04 -.823 0 -.414 0 0 Z " fill="#ffffff"/>
<path transform="matrix(.75000008,0,0,.75000008,194.14459,133.15201)" stroke-width="1" stroke-linecap="butt" stroke-miterlimit="4" stroke-linejoin="miter" fill="none" stroke="#767676" d="M 0 0 C 0 .394 -.038 .784 -.115 1.171 C -.192 1.557 -.306 1.932 -.457 2.296 C -.608 2.66 -.792 3.006 -1.011 3.333 C -1.23 3.661 -1.479 3.964 -1.757 4.243 C -2.036 4.521 -2.339 4.77 -2.667 4.989 C -2.994 5.208 -3.34 5.392 -3.704 5.543 C -4.068 5.694 -4.443 5.808 -4.829 5.885 C -5.216 5.962 -5.606 6 -6 6 C -6.394 6 -6.784 5.962 -7.171 5.885 C -7.557 5.808 -7.932 5.694 -8.296 5.543 C -8.66 5.392 -9.006 5.208 -9.333 4.989 C -9.661 4.77 -9.964 4.521 -10.243 4.243 C -10.521 3.964 -10.77 3.661 -10.989 3.333 C -11.208 3.006 -11.393 2.66 -11.543 2.296 C -11.694 1.932 -11.808 1.557 -11.885 1.171 C -11.962 .784 -12 .394 -12 0 C -12 -.394 -11.962 -.784 -11.885 -1.171 C -11.808 -1.557 -11.694 -1.932 -11.543 -2.296 C -11.393 -2.66 -11.208 -3.006 -10.989 -3.333 C -10.77 -3.661 -10.521 -3.964 -10.243 -4.243 C -9.964 -4.521 -9.661 -4.77 -9.333 -4.989 C -9.006 -5.208 -8.66 -5.393 -8.296 -5.543 C -7.932 -5.694 -7.557 -5.808 -7.171 -5.885 C -6.784 -5.962 -6.394 -6 -6 -6 C -5.606 -6 -5.216 -5.962 -4.829 -5.885 C -4.443 -5.808 -4.068 -5.694 -3.704 -5.543 C -3.34 -5.393 -2.994 -5.208 -2.667 -4.989 C -2.339 -4.77 -2.036 -4.521 -1.757 -4.243 C -1.479 -3.964 -1.23 -3.661 -1.011 -3.333 C -.792 -3.006 -.608 -2.66 -.457 -2.296 C -.306 -1.932 -.192 -1.557 -.115 -1.171 C -.038 -.784 0 -.394 0 0 Z "/>
</g>
<clipPath id="cp4">
<path transform="matrix(.24,0,0,.24,-93.2304,-142.22299)" d="M 1317.708 1127.083 L 1358.333 1127.083 L 1358.333 1167.708 L 1317.708 1167.708 Z " fill-rule="evenodd"/>
</clipPath>
<g clip-path="url(#cp4)">
<path transform="matrix(.75000008,0,0,.75000008,223.16959,133.15201)" d="M 0 0 L 0 0 C 0 -.414 .04 -.823 .121 -1.229 C .202 -1.635 .321 -2.029 .48 -2.411 C .638 -2.793 .832 -3.156 1.062 -3.5 C 1.292 -3.844 1.553 -4.162 1.845 -4.455 C 2.138 -4.747 2.456 -5.008 2.8 -5.238 C 3.144 -5.468 3.507 -5.662 3.889 -5.82 C 4.271 -5.979 4.665 -6.098 5.071 -6.179 C 5.477 -6.26 5.886 -6.3 6.3 -6.3 C 6.714 -6.3 7.123 -6.26 7.529 -6.179 C 7.935 -6.098 8.329 -5.979 8.711 -5.82 C 9.093 -5.662 9.456 -5.468 9.8 -5.238 C 10.144 -5.008 10.462 -4.747 10.755 -4.455 C 11.047 -4.162 11.308 -3.844 11.538 -3.5 C 11.768 -3.156 11.962 -2.793 12.12 -2.411 C 12.279 -2.029 12.398 -1.635 12.479 -1.229 C 12.56 -.823 12.6 -.414 12.6 0 C 12.6 .414 12.56 .823 12.479 1.229 C 12.398 1.635 12.279 2.029 12.12 2.411 C 11.962 2.793 11.768 3.156 11.538 3.5 C 11.308 3.844 11.047 4.162 10.755 4.455 C 10.462 4.747 10.144 5.008 9.8 5.238 C 9.456 5.468 9.093 5.662 8.711 5.82 C 8.329 5.979 7.935 6.098 7.529 6.179 C 7.123 6.26 6.714 6.3 6.3 6.3 C 5.886 6.3 5.477 6.26 5.071 6.179 C 4.665 6.098 4.271 5.979 3.889 5.82 C 3.507 5.662 3.144 5.468 2.8 5.238 C 2.456 5.008 2.138 4.747 1.845 4.455 C 1.553 4.162 1.292 3.844 1.062 3.5 C .832 3.156 .638 2.793 .48 2.411 C .321 2.029 .202 1.635 .121 1.229 C .04 .823 0 .414 0 0 Z " fill="#ffffff"/>
<path transform="matrix(.75000008,0,0,.75000008,232.39459,133.15201)" stroke-width="1" stroke-linecap="butt" stroke-miterlimit="4" stroke-linejoin="miter" fill="none" stroke="#767676" d="M 0 0 C 0 .394 -.038 .784 -.115 1.171 C -.192 1.557 -.306 1.932 -.457 2.296 C -.608 2.66 -.792 3.006 -1.011 3.333 C -1.23 3.661 -1.479 3.964 -1.757 4.243 C -2.036 4.521 -2.339 4.77 -2.667 4.989 C -2.994 5.208 -3.34 5.392 -3.704 5.543 C -4.068 5.694 -4.443 5.808 -4.829 5.885 C -5.216 5.962 -5.606 6 -6 6 C -6.394 6 -6.784 5.962 -7.171 5.885 C -7.557 5.808 -7.932 5.694 -8.296 5.543 C -8.66 5.392 -9.006 5.208 -9.333 4.989 C -9.661 4.77 -9.964 4.521 -10.243 4.243 C -10.521 3.964 -10.77 3.661 -10.989 3.333 C -11.208 3.006 -11.393 2.66 -11.543 2.296 C -11.694 1.932 -11.808 1.557 -11.885 1.171 C -11.962 .784 -12 .394 -12 0 C -12 -.394 -11.962 -.784 -11.885 -1.171 C -11.808 -1.557 -11.694 -1.932 -11.543 -2.296 C -11.393 -2.66 -11.208 -3.006 -10.989 -3.333 C -10.77 -3.661 -10.521 -3.964 -10.243 -4.243 C -9.964 -4.521 -9.661 -4.77 -9.333 -4.989 C -9.006 -5.208 -8.66 -5.393 -8.296 -5.543 C -7.932 -5.694 -7.557 -5.808 -7.171 -5.885 C -6.784 -5.962 -6.394 -6 -6 -6 C -5.606 -6 -5.216 -5.962 -4.829 -5.885 C -4.443 -5.808 -4.068 -5.694 -3.704 -5.543 C -3.34 -5.393 -2.994 -5.208 -2.667 -4.989 C -2.339 -4.77 -2.036 -4.521 -1.757 -4.243 C -1.479 -3.964 -1.23 -3.661 -1.011 -3.333 C -.792 -3.006 -.608 -2.66 -.457 -2.296 C -.306 -1.932 -.192 -1.557 -.115 -1.171 C -.038 -.784 0 -.394 0 0 Z "/>
</g>
<clipPath id="cp5">
<path transform="matrix(.24,0,0,.24,-93.2304,-142.22299)" d="M 1477.083 1127.083 L 1517.708 1127.083 L 1517.708 1167.708 L 1477.083 1167.708 Z " fill-rule="evenodd"/>
</clipPath>
<g clip-path="url(#cp5)">
<path transform="matrix(.75000008,0,0,.75000008,261.4196,133.15201)" d="M 0 0 L 0 0 C 0 -.414 .04 -.823 .121 -1.229 C .202 -1.635 .321 -2.029 .48 -2.411 C .638 -2.793 .832 -3.156 1.062 -3.5 C 1.292 -3.844 1.553 -4.162 1.845 -4.455 C 2.138 -4.747 2.456 -5.008 2.8 -5.238 C 3.144 -5.468 3.507 -5.662 3.889 -5.82 C 4.271 -5.979 4.665 -6.098 5.071 -6.179 C 5.477 -6.26 5.886 -6.3 6.3 -6.3 C 6.714 -6.3 7.123 -6.26 7.529 -6.179 C 7.935 -6.098 8.329 -5.979 8.711 -5.82 C 9.093 -5.662 9.456 -5.468 9.8 -5.238 C 10.144 -5.008 10.462 -4.747 10.755 -4.455 C 11.047 -4.162 11.308 -3.844 11.538 -3.5 C 11.768 -3.156 11.962 -2.793 12.12 -2.411 C 12.279 -2.029 12.398 -1.635 12.479 -1.229 C 12.56 -.823 12.6 -.414 12.6 0 C 12.6 .414 12.56 .823 12.479 1.229 C 12.398 1.635 12.279 2.029 12.12 2.411 C 11.962 2.793 11.768 3.156 11.538 3.5 C 11.308 3.844 11.047 4.162 10.755 4.455 C 10.462 4.747 10.144 5.008 9.8 5.238 C 9.456 5.468 9.093 5.662 8.711 5.82 C 8.329 5.979 7.935 6.098 7.529 6.179 C 7.123 6.26 6.714 6.3 6.3 6.3 C 5.886 6.3 5.477 6.26 5.071 6.179 C 4.665 6.098 4.271 5.979 3.889 5.82 C 3.507 5.662 3.144 5.468 2.8 5.238 C 2.456 5.008 2.138 4.747 1.845 4.455 C 1.553 4.162 1.292 3.844 1.062 3.5 C .832 3.156 .638 2.793 .48 2.411 C .321 2.029 .202 1.635 .121 1.229 C .04 .823 0 .414 0 0 Z " fill="#ffffff"/>
<path transform="matrix(.75000008,0,0,.75000008,270.6446,133.15201)" stroke-width="1" stroke-linecap="butt" stroke-miterlimit="4" stroke-linejoin="miter" fill="none" stroke="#767676" d="M 0 0 C 0 .394 -.038 .784 -.115 1.171 C -.192 1.557 -.306 1.932 -.457 2.296 C -.608 2.66 -.792 3.006 -1.011 3.333 C -1.23 3.661 -1.479 3.964 -1.757 4.243 C -2.036 4.521 -2.339 4.77 -2.667 4.989 C -2.994 5.208 -3.34 5.392 -3.704 5.543 C -4.068 5.694 -4.443 5.808 -4.829 5.885 C -5.216 5.962 -5.606 6 -6 6 C -6.394 6 -6.784 5.962 -7.171 5.885 C -7.557 5.808 -7.932 5.694 -8.296 5.543 C -8.66 5.392 -9.006 5.208 -9.333 4.989 C -9.661 4.77 -9.964 4.521 -10.243 4.243 C -10.521 3.964 -10.77 3.661 -10.989 3.333 C -11.208 3.006 -11.393 2.66 -11.543 2.296 C -11.694 1.932 -11.808 1.557 -11.885 1.171 C -11.962 .784 -12 .394 -12 0 C -12 -.394 -11.962 -.784 -11.885 -1.171 C -11.808 -1.557 -11.694 -1.932 -11.543 -2.296 C -11.393 -2.66 -11.208 -3.006 -10.989 -3.333 C -10.77 -3.661 -10.521 -3.964 -10.243 -4.243 C -9.964 -4.521 -9.661 -4.77 -9.333 -4.989 C -9.006 -5.208 -8.66 -5.393 -8.296 -5.543 C -7.932 -5.694 -7.557 -5.808 -7.171 -5.885 C -6.784 -5.962 -6.394 -6 -6 -6 C -5.606 -6 -5.216 -5.962 -4.829 -5.885 C -4.443 -5.808 -4.068 -5.694 -3.704 -5.543 C -3.34 -5.393 -2.994 -5.208 -2.667 -4.989 C -2.339 -4.77 -2.036 -4.521 -1.757 -4.243 C -1.479 -3.964 -1.23 -3.661 -1.011 -3.333 C -.792 -3.006 -.608 -2.66 -.457 -2.296 C -.306 -1.932 -.192 -1.557 -.115 -1.171 C -.038 -.784 0 -.394 0 0 Z "/>
</g>
<clipPath id="cp6">
<path transform="matrix(.24,0,0,.24,-93.2304,-142.22299)" d="M 1636.458 1127.083 L 1677.083 1127.083 L 1677.083 1167.708 L 1636.458 1167.708 Z " fill-rule="evenodd"/>
</clipPath>
<g clip-path="url(#cp6)">
<path transform="matrix(.75000008,0,0,.75000008,299.66963,133.15201)" d="M 0 0 L 0 0 C 0 -.414 .04 -.823 .121 -1.229 C .202 -1.635 .321 -2.029 .479 -2.411 C .638 -2.793 .832 -3.156 1.062 -3.5 C 1.291 -3.844 1.553 -4.162 1.845 -4.455 C 2.138 -4.747 2.456 -5.008 2.8 -5.238 C 3.144 -5.468 3.507 -5.662 3.889 -5.82 C 4.271 -5.979 4.665 -6.098 5.071 -6.179 C 5.477 -6.26 5.886 -6.3 6.3 -6.3 C 6.714 -6.3 7.123 -6.26 7.529 -6.179 C 7.935 -6.098 8.329 -5.979 8.711 -5.82 C 9.093 -5.662 9.456 -5.468 9.8 -5.238 C 10.144 -5.008 10.462 -4.747 10.755 -4.455 C 11.047 -4.162 11.308 -3.844 11.538 -3.5 C 11.768 -3.156 11.962 -2.793 12.12 -2.411 C 12.279 -2.029 12.398 -1.635 12.479 -1.229 C 12.56 -.823 12.6 -.414 12.6 0 C 12.6 .414 12.56 .823 12.479 1.229 C 12.398 1.635 12.279 2.029 12.12 2.411 C 11.962 2.793 11.768 3.156 11.538 3.5 C 11.308 3.844 11.047 4.162 10.755 4.455 C 10.462 4.747 10.144 5.008 9.8 5.238 C 9.456 5.468 9.093 5.662 8.711 5.82 C 8.329 5.979 7.935 6.098 7.529 6.179 C 7.123 6.26 6.714 6.3 6.3 6.3 C 5.886 6.3 5.477 6.26 5.071 6.179 C 4.665 6.098 4.271 5.979 3.889 5.82 C 3.507 5.662 3.144 5.468 2.8 5.238 C 2.456 5.008 2.138 4.747 1.845 4.455 C 1.553 4.162 1.291 3.844 1.062 3.5 C .832 3.156 .638 2.793 .479 2.411 C .321 2.029 .202 1.635 .121 1.229 C .04 .823 0 .414 0 0 Z " fill="#ffffff"/>
<path transform="matrix(.75000008,0,0,.75000008,308.89463,133.15201)" stroke-width="1" stroke-linecap="butt" stroke-miterlimit="4" stroke-linejoin="miter" fill="none" stroke="#767676" d="M 0 0 C 0 .394 -.038 .784 -.115 1.171 C -.192 1.557 -.306 1.932 -.457 2.296 C -.608 2.66 -.792 3.006 -1.011 3.333 C -1.23 3.661 -1.479 3.964 -1.757 4.243 C -2.036 4.521 -2.339 4.77 -2.667 4.989 C -2.994 5.208 -3.34 5.392 -3.704 5.543 C -4.068 5.694 -4.443 5.808 -4.829 5.885 C -5.216 5.962 -5.606 6 -6 6 C -6.394 6 -6.784 5.962 -7.171 5.885 C -7.557 5.808 -7.932 5.694 -8.296 5.543 C -8.66 5.392 -9.006 5.208 -9.333 4.989 C -9.661 4.77 -9.964 4.521 -10.243 4.243 C -10.521 3.964 -10.77 3.661 -10.989 3.333 C -11.208 3.006 -11.393 2.66 -11.543 2.296 C -11.694 1.932 -11.808 1.557 -11.885 1.171 C -11.962 .784 -12 .394 -12 0 C -12 -.394 -11.962 -.784 -11.885 -1.171 C -11.808 -1.557 -11.694 -1.932 -11.543 -2.296 C -11.393 -2.66 -11.208 -3.006 -10.989 -3.333 C -10.77 -3.661 -10.521 -3.964 -10.243 -4.243 C -9.964 -4.521 -9.661 -4.77 -9.333 -4.989 C -9.006 -5.208 -8.66 -5.393 -8.296 -5.543 C -7.932 -5.694 -7.557 -5.808 -7.171 -5.885 C -6.784 -5.962 -6.394 -6 -6 -6 C -5.606 -6 -5.216 -5.962 -4.829 -5.885 C -4.443 -5.808 -4.068 -5.694 -3.704 -5.543 C -3.34 -5.393 -2.994 -5.208 -2.667 -4.989 C -2.339 -4.77 -2.036 -4.521 -1.757 -4.243 C -1.479 -3.964 -1.23 -3.661 -1.011 -3.333 C -.792 -3.006 -.608 -2.66 -.457 -2.296 C -.306 -1.932 -.192 -1.557 -.115 -1.171 C -.038 -.784 0 -.394 0 0 Z "/>
</g>
<clipPath id="cp7">
<path transform="matrix(.24,0,0,.24,-93.2304,-142.22299)" d="M 1795.833 1127.083 L 1836.458 1127.083 L 1836.458 1167.708 L 1795.833 1167.708 Z " fill-rule="evenodd"/>
</clipPath>
<g clip-path="url(#cp7)">
<path transform="matrix(.75000008,0,0,.75000008,337.91963,133.15201)" d="M 0 0 L 0 0 C 0 -.414 .04 -.823 .121 -1.229 C .202 -1.635 .321 -2.029 .48 -2.411 C .638 -2.793 .832 -3.156 1.062 -3.5 C 1.292 -3.844 1.553 -4.162 1.845 -4.455 C 2.138 -4.747 2.456 -5.008 2.8 -5.238 C 3.144 -5.468 3.507 -5.662 3.889 -5.82 C 4.271 -5.979 4.665 -6.098 5.071 -6.179 C 5.477 -6.26 5.886 -6.3 6.3 -6.3 C 6.714 -6.3 7.123 -6.26 7.529 -6.179 C 7.935 -6.098 8.329 -5.979 8.711 -5.82 C 9.093 -5.662 9.456 -5.468 9.8 -5.238 C 10.144 -5.008 10.462 -4.747 10.755 -4.455 C 11.047 -4.162 11.308 -3.844 11.538 -3.5 C 11.768 -3.156 11.962 -2.793 12.12 -2.411 C 12.279 -2.029 12.398 -1.635 12.479 -1.229 C 12.56 -.823 12.6 -.414 12.6 0 C 12.6 .414 12.56 .823 12.479 1.229 C 12.398 1.635 12.279 2.029 12.12 2.411 C 11.962 2.793 11.768 3.156 11.538 3.5 C 11.308 3.844 11.047 4.162 10.755 4.455 C 10.462 4.747 10.144 5.008 9.8 5.238 C 9.456 5.468 9.093 5.662 8.711 5.82 C 8.329 5.979 7.935 6.098 7.529 6.179 C 7.123 6.26 6.714 6.3 6.3 6.3 C 5.886 6.3 5.477 6.26 5.071 6.179 C 4.665 6.098 4.271 5.979 3.889 5.82 C 3.507 5.662 3.144 5.468 2.8 5.238 C 2.456 5.008 2.138 4.747 1.845 4.455 C 1.553 4.162 1.292 3.844 1.062 3.5 C .832 3.156 .638 2.793 .48 2.411 C .321 2.029 .202 1.635 .121 1.229 C .04 .823 0 .414 0 0 Z " fill="#ffffff"/>
<path transform="matrix(.75000008,0,0,.75000008,347.14463,133.15201)" stroke-width="1" stroke-linecap="butt" stroke-miterlimit="4" stroke-linejoin="miter" fill="none" stroke="#767676" d="M 0 0 C 0 .394 -.038 .784 -.115 1.171 C -.192 1.557 -.306 1.932 -.457 2.296 C -.608 2.66 -.792 3.006 -1.011 3.333 C -1.23 3.661 -1.479 3.964 -1.757 4.243 C -2.036 4.521 -2.339 4.77 -2.667 4.989 C -2.994 5.208 -3.34 5.392 -3.704 5.543 C -4.068 5.694 -4.443 5.808 -4.829 5.885 C -5.216 5.962 -5.606 6 -6 6 C -6.394 6 -6.784 5.962 -7.171 5.885 C -7.557 5.808 -7.932 5.694 -8.296 5.543 C -8.66 5.392 -9.006 5.208 -9.333 4.989 C -9.661 4.77 -9.964 4.521 -10.243 4.243 C -10.521 3.964 -10.77 3.661 -10.989 3.333 C -11.208 3.006 -11.393 2.66 -11.543 2.296 C -11.694 1.932 -11.808 1.557 -11.885 1.171 C -11.962 .784 -12 .394 -12 0 C -12 -.394 -11.962 -.784 -11.885 -1.171 C -11.808 -1.557 -11.694 -1.932 -11.543 -2.296 C -11.393 -2.66 -11.208 -3.006 -10.989 -3.333 C -10.77 -3.661 -10.521 -3.964 -10.243 -4.243 C -9.964 -4.521 -9.661 -4.77 -9.333 -4.989 C -9.006 -5.208 -8.66 -5.393 -8.296 -5.543 C -7.932 -5.694 -7.557 -5.808 -7.171 -5.885 C -6.784 -5.962 -6.394 -6 -6 -6 C -5.606 -6 -5.216 -5.962 -4.829 -5.885 C -4.443 -5.808 -4.068 -5.694 -3.704 -5.543 C -3.34 -5.393 -2.994 -5.208 -2.667 -4.989 C -2.339 -4.77 -2.036 -4.521 -1.757 -4.243 C -1.479 -3.964 -1.23 -3.661 -1.011 -3.333 C -.792 -3.006 -.608 -2.66 -.457 -2.296 C -.306 -1.932 -.192 -1.557 -.115 -1.171 C -.038 -.784 0 -.394 0 0 Z "/>
</g>
<clipPath id="cp8">
<path transform="matrix(.24,0,0,.24,-93.2304,-142.22299)" d="M 1955.208 1127.083 L 1995.833 1127.083 L 1995.833 1167.708 L 1955.208 1167.708 Z " fill-rule="evenodd"/>
</clipPath>
<g clip-path="url(#cp8)">
<path transform="matrix(.75000008,0,0,.75000008,376.16963,133.15201)" d="M 0 0 L 0 0 C 0 -.414 .04 -.823 .121 -1.229 C .202 -1.635 .321 -2.029 .479 -2.411 C .638 -2.793 .832 -3.156 1.062 -3.5 C 1.291 -3.844 1.553 -4.162 1.845 -4.455 C 2.138 -4.747 2.456 -5.008 2.8 -5.238 C 3.144 -5.468 3.507 -5.662 3.889 -5.82 C 4.271 -5.979 4.665 -6.098 5.071 -6.179 C 5.477 -6.26 5.886 -6.3 6.3 -6.3 C 6.714 -6.3 7.123 -6.26 7.529 -6.179 C 7.935 -6.098 8.329 -5.979 8.711 -5.82 C 9.093 -5.662 9.456 -5.468 9.8 -5.238 C 10.144 -5.008 10.462 -4.747 10.755 -4.455 C 11.047 -4.162 11.308 -3.844 11.538 -3.5 C 11.768 -3.156 11.962 -2.793 12.12 -2.411 C 12.279 -2.029 12.398 -1.635 12.479 -1.229 C 12.56 -.823 12.6 -.414 12.6 0 C 12.6 .414 12.56 .823 12.479 1.229 C 12.398 1.635 12.279 2.029 12.12 2.411 C 11.962 2.793 11.768 3.156 11.538 3.5 C 11.308 3.844 11.047 4.162 10.755 4.455 C 10.462 4.747 10.144 5.008 9.8 5.238 C 9.456 5.468 9.093 5.662 8.711 5.82 C 8.329 5.979 7.935 6.098 7.529 6.179 C 7.123 6.26 6.714 6.3 6.3 6.3 C 5.886 6.3 5.477 6.26 5.071 6.179 C 4.665 6.098 4.271 5.979 3.889 5.82 C 3.507 5.662 3.144 5.468 2.8 5.238 C 2.456 5.008 2.138 4.747 1.845 4.455 C 1.553 4.162 1.291 3.844 1.062 3.5 C .832 3.156 .638 2.793 .479 2.411 C .321 2.029 .202 1.635 .121 1.229 C .04 .823 0 .414 0 0 Z " fill="#ffffff"/>
<path transform="matrix(.75000008,0,0,.75000008,385.39463,133.15201)" stroke-width="1" stroke-linecap="butt" stroke-miterlimit="4" stroke-linejoin="miter" fill="none" stroke="#767676" d="M 0 0 C 0 .394 -.038 .784 -.115 1.171 C -.192 1.557 -.306 1.932 -.457 2.296 C -.608 2.66 -.792 3.006 -1.011 3.333 C -1.23 3.661 -1.479 3.964 -1.757 4.243 C -2.036 4.521 -2.339 4.77 -2.667 4.989 C -2.994 5.208 -3.34 5.392 -3.704 5.543 C -4.068 5.694 -4.443 5.808 -4.829 5.885 C -5.216 5.962 -5.606 6 -6 6 C -6.394 6 -6.784 5.962 -7.171 5.885 C -7.557 5.808 -7.932 5.694 -8.296 5.543 C -8.66 5.392 -9.006 5.208 -9.333 4.989 C -9.661 4.77 -9.964 4.521 -10.243 4.243 C -10.521 3.964 -10.77 3.661 -10.989 3.333 C -11.208 3.006 -11.393 2.66 -11.543 2.296 C -11.694 1.932 -11.808 1.557 -11.885 1.171 C -11.962 .784 -12 .394 -12 0 C -12 -.394 -11.962 -.784 -11.885 -1.171 C -11.808 -1.557 -11.694 -1.932 -11.543 -2.296 C -11.393 -2.66 -11.208 -3.006 -10.989 -3.333 C -10.77 -3.661 -10.521 -3.964 -10.243 -4.243 C -9.964 -4.521 -9.661 -4.77 -9.333 -4.989 C -9.006 -5.208 -8.66 -5.393 -8.296 -5.543 C -7.932 -5.694 -7.557 -5.808 -7.171 -5.885 C -6.784 -5.962 -6.394 -6 -6 -6 C -5.606 -6 -5.216 -5.962 -4.83 -5.885 C -4.443 -5.808 -4.068 -5.694 -3.704 -5.543 C -3.34 -5.393 -2.994 -5.208 -2.667 -4.989 C -2.339 -4.77 -2.036 -4.521 -1.757 -4.243 C -1.479 -3.964 -1.23 -3.661 -1.011 -3.333 C -.792 -3.006 -.608 -2.66 -.457 -2.296 C -.306 -1.932 -.192 -1.557 -.115 -1.171 C -.038 -.784 0 -.394 0 0 Z "/>
</g>
<clipPath id="cp9">
<path transform="matrix(.24,0,0,.24,-93.2304,-142.22299)" d="M 2114.583 1127.083 L 2155.208 1127.083 L 2155.208 1167.708 L 2114.583 1167.708 Z " fill-rule="evenodd"/>
</clipPath>
<g clip-path="url(#cp9)">
<path transform="matrix(.75000008,0,0,.75000008,414.41963,133.15201)" d="M 0 0 L 0 0 C 0 -.414 .04 -.823 .121 -1.229 C .202 -1.635 .321 -2.029 .479 -2.411 C .638 -2.793 .832 -3.156 1.062 -3.5 C 1.292 -3.844 1.553 -4.162 1.845 -4.455 C 2.138 -4.747 2.456 -5.008 2.8 -5.238 C 3.144 -5.468 3.507 -5.662 3.889 -5.82 C 4.271 -5.979 4.665 -6.098 5.071 -6.179 C 5.477 -6.26 5.886 -6.3 6.3 -6.3 C 6.714 -6.3 7.123 -6.26 7.529 -6.179 C 7.935 -6.098 8.329 -5.979 8.711 -5.82 C 9.093 -5.662 9.456 -5.468 9.8 -5.238 C 10.144 -5.008 10.462 -4.747 10.755 -4.455 C 11.047 -4.162 11.308 -3.844 11.538 -3.5 C 11.768 -3.156 11.962 -2.793 12.12 -2.411 C 12.279 -2.029 12.398 -1.635 12.479 -1.229 C 12.56 -.823 12.6 -.414 12.6 0 C 12.6 .414 12.56 .823 12.479 1.229 C 12.398 1.635 12.279 2.029 12.12 2.411 C 11.962 2.793 11.768 3.156 11.538 3.5 C 11.308 3.844 11.047 4.162 10.755 4.455 C 10.462 4.747 10.144 5.008 9.8 5.238 C 9.456 5.468 9.093 5.662 8.711 5.82 C 8.329 5.979 7.935 6.098 7.529 6.179 C 7.123 6.26 6.714 6.3 6.3 6.3 C 5.886 6.3 5.477 6.26 5.071 6.179 C 4.665 6.098 4.271 5.979 3.889 5.82 C 3.507 5.662 3.144 5.468 2.8 5.238 C 2.456 5.008 2.138 4.747 1.845 4.455 C 1.553 4.162 1.292 3.844 1.062 3.5 C .832 3.156 .638 2.793 .479 2.411 C .321 2.029 .202 1.635 .121 1.229 C .04 .823 0 .414 0 0 Z " fill="#ffffff"/>
<path transform="matrix(.75000008,0,0,.75000008,423.64463,133.15201)" stroke-width="1" stroke-linecap="butt" stroke-miterlimit="4" stroke-linejoin="miter" fill="none" stroke="#767676" d="M 0 0 C 0 .394 -.039 .784 -.115 1.171 C -.192 1.557 -.306 1.932 -.457 2.296 C -.608 2.66 -.792 3.006 -1.011 3.333 C -1.23 3.661 -1.479 3.964 -1.757 4.243 C -2.036 4.521 -2.339 4.77 -2.667 4.989 C -2.994 5.208 -3.34 5.392 -3.704 5.543 C -4.068 5.694 -4.443 5.808 -4.829 5.885 C -5.216 5.962 -5.606 6 -6 6 C -6.394 6 -6.784 5.962 -7.171 5.885 C -7.557 5.808 -7.932 5.694 -8.296 5.543 C -8.66 5.392 -9.006 5.208 -9.333 4.989 C -9.661 4.77 -9.964 4.521 -10.243 4.243 C -10.521 3.964 -10.77 3.661 -10.989 3.333 C -11.208 3.006 -11.393 2.66 -11.543 2.296 C -11.694 1.932 -11.808 1.557 -11.885 1.171 C -11.962 .784 -12 .394 -12 0 C -12 -.394 -11.962 -.784 -11.885 -1.171 C -11.808 -1.557 -11.694 -1.932 -11.543 -2.296 C -11.393 -2.66 -11.208 -3.006 -10.989 -3.333 C -10.77 -3.661 -10.521 -3.964 -10.243 -4.243 C -9.964 -4.521 -9.661 -4.77 -9.333 -4.989 C -9.006 -5.208 -8.66 -5.393 -8.296 -5.543 C -7.932 -5.694 -7.557 -5.808 -7.171 -5.885 C -6.784 -5.962 -6.394 -6 -6 -6 C -5.606 -6 -5.216 -5.962 -4.829 -5.885 C -4.443 -5.808 -4.068 -5.694 -3.704 -5.543 C -3.34 -5.393 -2.994 -5.208 -2.667 -4.989 C -2.339 -4.77 -2.036 -4.521 -1.757 -4.243 C -1.479 -3.964 -1.23 -3.661 -1.011 -3.333 C -.792 -3.006 -.608 -2.66 -.457 -2.296 C -.306 -1.932 -.192 -1.557 -.115 -1.171 C -.039 -.784 0 -.394 0 0 Z "/>
</g>
<clipPath id="cp10">
<path transform="matrix(.24,0,0,.24,-93.2304,-142.22299)" d="M 120.833 120.833 L 3183.333 120.833 L 3183.333 2433.333 L 120.833 2433.333 Z " fill-rule="evenodd"/>
</clipPath>
<g clip-path="url(#cp10)">
<g id="Layer-1" data-name="P">
</g>
<g id="Layer-1" data-name="P">
</g>
<g id="Layer-1" data-name="P">
</g>
<g id="Layer-1" data-name="P">
</g>
<g id="Layer-1" data-name="P">
</g>
<g id="Layer-1" data-name="P">
</g>
<g id="Layer-1" data-name="P">
</g>
<g id="Layer-1" data-name="P">
</g>
<g id="Layer-1" data-name="P">
</g>
<g id="Layer-1" data-name="P">
</g>
<g id="Layer-1" data-name="P">
</g>
<g id="Layer-1" data-name="P">
</g>
<g id="Layer-1" data-name="P">
</g>
<g id="Layer-1" data-name="P">
</g>
<g id="Layer-1" data-name="P">
</g>
<text xml:space="preserve" transform="matrix(.99999997 0 -0 .99999997 -93.2304 469.777)" font-size="13.995" font-family="Arial" font-weight="bold"><tspan y="-232.75" x="425.2347 450.7347">45</tspan></text>
<text xml:space="preserve" transform="matrix(.99999997 0 -0 .99999997 -93.2304 469.777)" font-size="13.995" font-family="MicrosoftYaHei"><tspan y="-211" x="198.4302 212.4252 226.4202 240.41519 254.41019 268.40519 282.40019 296.39518 310.39018 324.38517">&#x5f55;&#x97f3;&#x548c;&#x9009;&#x7684;&#x5b57;&#x975e;&#x5e38;&#x4e0d;&#x914d;</tspan></text>
</g>
<clipPath id="cp11">
<path transform="matrix(.24,0,0,.24,-93.2304,-142.22299)" d="M 1452.083 1630.208 L 1492.708 1630.208 L 1492.708 1670.833 L 1452.083 1670.833 Z " fill-rule="evenodd"/>
</clipPath>
<g clip-path="url(#cp11)">
<path transform="matrix(.75000008,0,0,.75000008,264.8696,253.90201)" d="M 0 0 C 0 .414 -.04 .823 -.121 1.229 C -.202 1.635 -.321 2.029 -.48 2.411 C -.638 2.793 -.832 3.156 -1.062 3.5 C -1.292 3.844 -1.553 4.162 -1.845 4.455 C -2.138 4.747 -2.456 5.008 -2.8 5.238 C -3.144 5.468 -3.507 5.662 -3.889 5.82 C -4.271 5.979 -4.665 6.098 -5.071 6.179 C -5.477 6.26 -5.886 6.3 -6.3 6.3 C -6.714 6.3 -7.123 6.26 -7.529 6.179 C -7.935 6.098 -8.329 5.979 -8.711 5.82 C -9.093 5.662 -9.456 5.468 -9.8 5.238 C -10.144 5.008 -10.462 4.747 -10.755 4.455 C -11.047 4.162 -11.308 3.844 -11.538 3.5 C -11.768 3.156 -11.962 2.793 -12.12 2.411 C -12.279 2.029 -12.398 1.635 -12.479 1.229 C -12.56 .823 -12.6 .414 -12.6 0 C -12.6 -.414 -12.56 -.823 -12.479 -1.229 C -12.398 -1.635 -12.279 -2.029 -12.12 -2.411 C -11.962 -2.793 -11.768 -3.156 -11.538 -3.5 C -11.308 -3.844 -11.047 -4.162 -10.755 -4.455 C -10.462 -4.747 -10.144 -5.008 -9.8 -5.238 C -9.456 -5.468 -9.093 -5.662 -8.711 -5.82 C -8.329 -5.979 -7.935 -6.098 -7.529 -6.179 C -7.123 -6.26 -6.714 -6.3 -6.3 -6.3 C -5.886 -6.3 -5.477 -6.26 -5.071 -6.179 C -4.665 -6.098 -4.271 -5.979 -3.889 -5.82 C -3.507 -5.662 -3.144 -5.468 -2.8 -5.238 C -2.456 -5.008 -2.138 -4.747 -1.845 -4.455 C -1.553 -4.162 -1.292 -3.844 -1.062 -3.5 C -.832 -3.156 -.638 -2.793 -.48 -2.411 C -.321 -2.029 -.202 -1.635 -.121 -1.229 C -.04 -.823 0 -.414 0 0 Z " fill="#ffffff"/>
<path transform="matrix(.75000008,0,0,.75000008,264.6446,253.90201)" stroke-width="1" stroke-linecap="butt" stroke-miterlimit="4" stroke-linejoin="miter" fill="none" stroke="#767676" d="M 0 0 C 0 .394 -.038 .784 -.115 1.17 C -.192 1.557 -.306 1.932 -.457 2.296 C -.608 2.66 -.792 3.006 -1.011 3.333 C -1.23 3.661 -1.479 3.964 -1.757 4.243 C -2.036 4.521 -2.339 4.77 -2.667 4.989 C -2.994 5.208 -3.34 5.392 -3.704 5.543 C -4.068 5.694 -4.443 5.808 -4.829 5.885 C -5.216 5.962 -5.606 6 -6 6 C -6.394 6 -6.784 5.962 -7.171 5.885 C -7.557 5.808 -7.932 5.694 -8.296 5.543 C -8.66 5.392 -9.006 5.208 -9.333 4.989 C -9.661 4.77 -9.964 4.521 -10.243 4.243 C -10.521 3.964 -10.77 3.661 -10.989 3.333 C -11.208 3.006 -11.393 2.66 -11.543 2.296 C -11.694 1.932 -11.808 1.557 -11.885 1.17 C -11.962 .784 -12 .394 -12 0 C -12 -.394 -11.962 -.784 -11.885 -1.171 C -11.808 -1.557 -11.694 -1.932 -11.543 -2.296 C -11.393 -2.66 -11.208 -3.006 -10.989 -3.333 C -10.77 -3.661 -10.521 -3.964 -10.243 -4.243 C -9.964 -4.521 -9.661 -4.77 -9.333 -4.989 C -9.006 -5.208 -8.66 -5.393 -8.296 -5.543 C -7.932 -5.694 -7.557 -5.808 -7.171 -5.885 C -6.784 -5.962 -6.394 -6 -6 -6 C -5.606 -6 -5.216 -5.962 -4.829 -5.885 C -4.443 -5.808 -4.068 -5.694 -3.704 -5.543 C -3.34 -5.393 -2.994 -5.208 -2.667 -4.989 C -2.339 -4.77 -2.036 -4.521 -1.757 -4.243 C -1.479 -3.964 -1.23 -3.661 -1.011 -3.333 C -.792 -3.006 -.608 -2.66 -.457 -2.296 C -.306 -1.932 -.192 -1.557 -.115 -1.171 C -.038 -.784 0 -.394 0 0 Z "/>
</g>
<clipPath id="cp12">
<path transform="matrix(.24,0,0,.24,-93.2304,-142.22299)" d="M 1558.333 1630.208 L 1598.958 1630.208 L 1598.958 1670.833 L 1558.333 1670.833 Z " fill-rule="evenodd"/>
</clipPath>
<g clip-path="url(#cp12)">
<path transform="matrix(.75000008,0,0,.75000008,290.36964,253.90201)" d="M 0 0 C 0 .414 -.04 .823 -.121 1.229 C -.202 1.635 -.321 2.029 -.48 2.411 C -.638 2.793 -.832 3.156 -1.062 3.5 C -1.292 3.844 -1.553 4.162 -1.845 4.455 C -2.138 4.747 -2.456 5.008 -2.8 5.238 C -3.144 5.468 -3.507 5.662 -3.889 5.82 C -4.271 5.979 -4.665 6.098 -5.071 6.179 C -5.477 6.26 -5.886 6.3 -6.3 6.3 C -6.714 6.3 -7.123 6.26 -7.529 6.179 C -7.935 6.098 -8.329 5.979 -8.711 5.82 C -9.093 5.662 -9.456 5.468 -9.8 5.238 C -10.144 5.008 -10.462 4.747 -10.755 4.455 C -11.047 4.162 -11.308 3.844 -11.538 3.5 C -11.768 3.156 -11.962 2.793 -12.12 2.411 C -12.279 2.029 -12.398 1.635 -12.479 1.229 C -12.56 .823 -12.6 .414 -12.6 0 C -12.6 -.414 -12.56 -.823 -12.479 -1.229 C -12.398 -1.635 -12.279 -2.029 -12.12 -2.411 C -11.962 -2.793 -11.768 -3.156 -11.538 -3.5 C -11.308 -3.844 -11.047 -4.162 -10.755 -4.455 C -10.462 -4.747 -10.144 -5.008 -9.8 -5.238 C -9.456 -5.468 -9.093 -5.662 -8.711 -5.82 C -8.329 -5.979 -7.935 -6.098 -7.529 -6.179 C -7.123 -6.26 -6.714 -6.3 -6.3 -6.3 C -5.886 -6.3 -5.477 -6.26 -5.071 -6.179 C -4.665 -6.098 -4.271 -5.979 -3.889 -5.82 C -3.507 -5.662 -3.144 -5.468 -2.8 -5.238 C -2.456 -5.008 -2.138 -4.747 -1.845 -4.455 C -1.553 -4.162 -1.292 -3.844 -1.062 -3.5 C -.832 -3.156 -.638 -2.793 -.48 -2.411 C -.321 -2.029 -.202 -1.635 -.121 -1.229 C -.04 -.823 0 -.414 0 0 Z " fill="#ffffff"/>
<path transform="matrix(.75000008,0,0,.75000008,290.14463,253.90201)" stroke-width="1" stroke-linecap="butt" stroke-miterlimit="4" stroke-linejoin="miter" fill="none" stroke="#767676" d="M 0 0 C 0 .394 -.038 .784 -.115 1.17 C -.192 1.557 -.306 1.932 -.457 2.296 C -.608 2.66 -.792 3.006 -1.011 3.333 C -1.23 3.661 -1.479 3.964 -1.757 4.243 C -2.036 4.521 -2.339 4.77 -2.667 4.989 C -2.994 5.208 -3.34 5.392 -3.704 5.543 C -4.068 5.694 -4.443 5.808 -4.829 5.885 C -5.216 5.962 -5.606 6 -6 6 C -6.394 6 -6.784 5.962 -7.171 5.885 C -7.557 5.808 -7.932 5.694 -8.296 5.543 C -8.66 5.392 -9.006 5.208 -9.333 4.989 C -9.661 4.77 -9.964 4.521 -10.243 4.243 C -10.521 3.964 -10.77 3.661 -10.989 3.333 C -11.208 3.006 -11.393 2.66 -11.543 2.296 C -11.694 1.932 -11.808 1.557 -11.885 1.17 C -11.962 .784 -12 .394 -12 0 C -12 -.394 -11.962 -.784 -11.885 -1.171 C -11.808 -1.557 -11.694 -1.932 -11.543 -2.296 C -11.393 -2.66 -11.208 -3.006 -10.989 -3.333 C -10.77 -3.661 -10.521 -3.964 -10.243 -4.243 C -9.964 -4.521 -9.661 -4.77 -9.333 -4.989 C -9.006 -5.208 -8.66 -5.393 -8.296 -5.543 C -7.932 -5.694 -7.557 -5.808 -7.171 -5.885 C -6.784 -5.962 -6.394 -6 -6 -6 C -5.606 -6 -5.216 -5.962 -4.829 -5.885 C -4.443 -5.808 -4.068 -5.694 -3.704 -5.543 C -3.34 -5.393 -2.994 -5.208 -2.667 -4.989 C -2.339 -4.77 -2.036 -4.521 -1.757 -4.243 C -1.479 -3.964 -1.23 -3.661 -1.011 -3.333 C -.792 -3.006 -.608 -2.66 -.457 -2.296 C -.306 -1.932 -.192 -1.557 -.115 -1.171 C -.038 -.784 0 -.394 0 0 Z "/>
</g>
<clipPath id="cp13">
<path transform="matrix(.24,0,0,.24,-93.2304,-142.22299)" d="M 1664.583 1630.208 L 1705.208 1630.208 L 1705.208 1670.833 L 1664.583 1670.833 Z " fill-rule="evenodd"/>
</clipPath>
<g clip-path="url(#cp13)">
<path transform="matrix(.75000008,0,0,.75000008,315.86964,253.90201)" d="M 0 0 C 0 .414 -.04 .823 -.121 1.229 C -.202 1.635 -.321 2.029 -.48 2.411 C -.638 2.793 -.832 3.156 -1.062 3.5 C -1.292 3.844 -1.553 4.162 -1.845 4.455 C -2.138 4.747 -2.456 5.008 -2.8 5.238 C -3.144 5.468 -3.507 5.662 -3.889 5.82 C -4.271 5.979 -4.665 6.098 -5.071 6.179 C -5.477 6.26 -5.886 6.3 -6.3 6.3 C -6.714 6.3 -7.123 6.26 -7.529 6.179 C -7.935 6.098 -8.329 5.979 -8.711 5.82 C -9.093 5.662 -9.456 5.468 -9.8 5.238 C -10.144 5.008 -10.462 4.747 -10.755 4.455 C -11.047 4.162 -11.308 3.844 -11.538 3.5 C -11.768 3.156 -11.962 2.793 -12.12 2.411 C -12.279 2.029 -12.398 1.635 -12.479 1.229 C -12.56 .823 -12.6 .414 -12.6 0 C -12.6 -.414 -12.56 -.823 -12.479 -1.229 C -12.398 -1.635 -12.279 -2.029 -12.12 -2.411 C -11.962 -2.793 -11.768 -3.156 -11.538 -3.5 C -11.308 -3.844 -11.047 -4.162 -10.755 -4.455 C -10.462 -4.747 -10.144 -5.008 -9.8 -5.238 C -9.456 -5.468 -9.093 -5.662 -8.711 -5.82 C -8.329 -5.979 -7.935 -6.098 -7.529 -6.179 C -7.123 -6.26 -6.714 -6.3 -6.3 -6.3 C -5.886 -6.3 -5.477 -6.26 -5.071 -6.179 C -4.665 -6.098 -4.271 -5.979 -3.889 -5.82 C -3.507 -5.662 -3.144 -5.468 -2.8 -5.238 C -2.456 -5.008 -2.138 -4.747 -1.845 -4.455 C -1.553 -4.162 -1.292 -3.844 -1.062 -3.5 C -.832 -3.156 -.638 -2.793 -.48 -2.411 C -.321 -2.029 -.202 -1.635 -.121 -1.229 C -.04 -.823 0 -.414 0 0 Z " fill="#ffffff"/>
<path transform="matrix(.75000008,0,0,.75000008,315.64463,253.90201)" stroke-width="1" stroke-linecap="butt" stroke-miterlimit="4" stroke-linejoin="miter" fill="none" stroke="#767676" d="M 0 0 C 0 .394 -.038 .784 -.115 1.17 C -.192 1.557 -.306 1.932 -.457 2.296 C -.608 2.66 -.792 3.006 -1.011 3.333 C -1.23 3.661 -1.479 3.964 -1.757 4.243 C -2.036 4.521 -2.339 4.77 -2.667 4.989 C -2.994 5.208 -3.34 5.392 -3.704 5.543 C -4.068 5.694 -4.443 5.808 -4.829 5.885 C -5.216 5.962 -5.606 6 -6 6 C -6.394 6 -6.784 5.962 -7.171 5.885 C -7.557 5.808 -7.932 5.694 -8.296 5.543 C -8.66 5.392 -9.006 5.208 -9.333 4.989 C -9.661 4.77 -9.964 4.521 -10.243 4.243 C -10.521 3.964 -10.77 3.661 -10.989 3.333 C -11.208 3.006 -11.393 2.66 -11.543 2.296 C -11.694 1.932 -11.808 1.557 -11.885 1.17 C -11.962 .784 -12 .394 -12 0 C -12 -.394 -11.962 -.784 -11.885 -1.171 C -11.808 -1.557 -11.694 -1.932 -11.543 -2.296 C -11.393 -2.66 -11.208 -3.006 -10.989 -3.333 C -10.77 -3.661 -10.521 -3.964 -10.243 -4.243 C -9.964 -4.521 -9.661 -4.77 -9.333 -4.989 C -9.006 -5.208 -8.66 -5.393 -8.296 -5.543 C -7.932 -5.694 -7.557 -5.808 -7.171 -5.885 C -6.784 -5.962 -6.394 -6 -6 -6 C -5.606 -6 -5.216 -5.962 -4.829 -5.885 C -4.443 -5.808 -4.068 -5.694 -3.704 -5.543 C -3.34 -5.393 -2.994 -5.208 -2.667 -4.989 C -2.339 -4.77 -2.036 -4.521 -1.757 -4.243 C -1.479 -3.964 -1.23 -3.661 -1.011 -3.333 C -.792 -3.006 -.608 -2.66 -.457 -2.296 C -.306 -1.932 -.192 -1.557 -.115 -1.171 C -.038 -.784 0 -.394 0 0 Z "/>
</g>
<clipPath id="cp14">
<path transform="matrix(.24,0,0,.24,-93.2304,-142.22299)" d="M 1770.833 1630.208 L 1811.458 1630.208 L 1811.458 1670.833 L 1770.833 1670.833 Z " fill-rule="evenodd"/>
</clipPath>
<g clip-path="url(#cp14)">
<path transform="matrix(.75000008,0,0,.75000008,341.36964,253.90201)" d="M 0 0 C 0 .414 -.04 .823 -.121 1.229 C -.202 1.635 -.321 2.029 -.48 2.411 C -.638 2.793 -.832 3.156 -1.062 3.5 C -1.292 3.844 -1.553 4.162 -1.845 4.455 C -2.138 4.747 -2.456 5.008 -2.8 5.238 C -3.144 5.468 -3.507 5.662 -3.889 5.82 C -4.271 5.979 -4.665 6.098 -5.071 6.179 C -5.477 6.26 -5.886 6.3 -6.3 6.3 C -6.714 6.3 -7.123 6.26 -7.529 6.179 C -7.935 6.098 -8.329 5.979 -8.711 5.82 C -9.093 5.662 -9.456 5.468 -9.8 5.238 C -10.144 5.008 -10.462 4.747 -10.755 4.455 C -11.047 4.162 -11.308 3.844 -11.538 3.5 C -11.768 3.156 -11.962 2.793 -12.121 2.411 C -12.279 2.029 -12.398 1.635 -12.479 1.229 C -12.56 .823 -12.6 .414 -12.6 0 C -12.6 -.414 -12.56 -.823 -12.479 -1.229 C -12.398 -1.635 -12.279 -2.029 -12.121 -2.411 C -11.962 -2.793 -11.768 -3.156 -11.538 -3.5 C -11.308 -3.844 -11.047 -4.162 -10.755 -4.455 C -10.462 -4.747 -10.144 -5.008 -9.8 -5.238 C -9.456 -5.468 -9.093 -5.662 -8.711 -5.82 C -8.329 -5.979 -7.935 -6.098 -7.529 -6.179 C -7.123 -6.26 -6.714 -6.3 -6.3 -6.3 C -5.886 -6.3 -5.477 -6.26 -5.071 -6.179 C -4.665 -6.098 -4.271 -5.979 -3.889 -5.82 C -3.507 -5.662 -3.144 -5.468 -2.8 -5.238 C -2.456 -5.008 -2.138 -4.747 -1.845 -4.455 C -1.553 -4.162 -1.292 -3.844 -1.062 -3.5 C -.832 -3.156 -.638 -2.793 -.48 -2.411 C -.321 -2.029 -.202 -1.635 -.121 -1.229 C -.04 -.823 0 -.414 0 0 Z " fill="#ffffff"/>
<path transform="matrix(.75000008,0,0,.75000008,341.14463,253.90201)" stroke-width="1" stroke-linecap="butt" stroke-miterlimit="4" stroke-linejoin="miter" fill="none" stroke="#767676" d="M 0 0 C 0 .394 -.038 .784 -.115 1.17 C -.192 1.557 -.306 1.932 -.457 2.296 C -.608 2.66 -.792 3.006 -1.011 3.333 C -1.23 3.661 -1.479 3.964 -1.757 4.243 C -2.036 4.521 -2.339 4.77 -2.667 4.989 C -2.994 5.208 -3.34 5.392 -3.704 5.543 C -4.068 5.694 -4.443 5.808 -4.829 5.885 C -5.216 5.962 -5.606 6 -6 6 C -6.394 6 -6.784 5.962 -7.171 5.885 C -7.557 5.808 -7.932 5.694 -8.296 5.543 C -8.66 5.392 -9.006 5.208 -9.333 4.989 C -9.661 4.77 -9.964 4.521 -10.243 4.243 C -10.521 3.964 -10.77 3.661 -10.989 3.333 C -11.208 3.006 -11.393 2.66 -11.543 2.296 C -11.694 1.932 -11.808 1.557 -11.885 1.17 C -11.962 .784 -12 .394 -12 0 C -12 -.394 -11.962 -.784 -11.885 -1.171 C -11.808 -1.557 -11.694 -1.932 -11.543 -2.296 C -11.393 -2.66 -11.208 -3.006 -10.989 -3.333 C -10.77 -3.661 -10.521 -3.964 -10.243 -4.243 C -9.964 -4.521 -9.661 -4.77 -9.333 -4.989 C -9.006 -5.208 -8.66 -5.393 -8.296 -5.543 C -7.932 -5.694 -7.557 -5.808 -7.171 -5.885 C -6.784 -5.962 -6.394 -6 -6 -6 C -5.606 -6 -5.216 -5.962 -4.829 -5.885 C -4.443 -5.808 -4.068 -5.694 -3.704 -5.543 C -3.34 -5.393 -2.994 -5.208 -2.667 -4.989 C -2.339 -4.77 -2.036 -4.521 -1.757 -4.243 C -1.479 -3.964 -1.23 -3.661 -1.011 -3.333 C -.792 -3.006 -.608 -2.66 -.457 -2.296 C -.306 -1.932 -.192 -1.557 -.115 -1.171 C -.038 -.784 0 -.394 0 0 Z "/>
</g>
<clipPath id="cp15">
<path transform="matrix(.24,0,0,.24,-93.2304,-142.22299)" d="M 1877.083 1630.208 L 1917.708 1630.208 L 1917.708 1670.833 L 1877.083 1670.833 Z " fill-rule="evenodd"/>
</clipPath>
<g clip-path="url(#cp15)">
<path transform="matrix(.75000008,0,0,.75000008,366.86964,253.90201)" d="M 0 0 C 0 .414 -.04 .823 -.121 1.229 C -.202 1.635 -.321 2.029 -.48 2.411 C -.638 2.793 -.832 3.156 -1.062 3.5 C -1.292 3.844 -1.553 4.162 -1.845 4.455 C -2.138 4.747 -2.456 5.008 -2.8 5.238 C -3.144 5.468 -3.507 5.662 -3.889 5.82 C -4.271 5.979 -4.665 6.098 -5.071 6.179 C -5.477 6.26 -5.886 6.3 -6.3 6.3 C -6.714 6.3 -7.123 6.26 -7.529 6.179 C -7.935 6.098 -8.329 5.979 -8.711 5.82 C -9.093 5.662 -9.456 5.468 -9.8 5.238 C -10.144 5.008 -10.462 4.747 -10.755 4.455 C -11.047 4.162 -11.308 3.844 -11.538 3.5 C -11.768 3.156 -11.962 2.793 -12.12 2.411 C -12.279 2.029 -12.398 1.635 -12.479 1.229 C -12.56 .823 -12.6 .414 -12.6 0 C -12.6 -.414 -12.56 -.823 -12.479 -1.229 C -12.398 -1.635 -12.279 -2.029 -12.12 -2.411 C -11.962 -2.793 -11.768 -3.156 -11.538 -3.5 C -11.308 -3.844 -11.047 -4.162 -10.755 -4.455 C -10.462 -4.747 -10.144 -5.008 -9.8 -5.238 C -9.456 -5.468 -9.093 -5.662 -8.711 -5.82 C -8.329 -5.979 -7.935 -6.098 -7.529 -6.179 C -7.123 -6.26 -6.714 -6.3 -6.3 -6.3 C -5.886 -6.3 -5.477 -6.26 -5.071 -6.179 C -4.665 -6.098 -4.271 -5.979 -3.889 -5.82 C -3.507 -5.662 -3.144 -5.468 -2.8 -5.238 C -2.456 -5.008 -2.138 -4.747 -1.845 -4.455 C -1.553 -4.162 -1.292 -3.844 -1.062 -3.5 C -.832 -3.156 -.638 -2.793 -.48 -2.411 C -.321 -2.029 -.202 -1.635 -.121 -1.229 C -.04 -.823 0 -.414 0 0 Z " fill="#ffffff"/>
<path transform="matrix(.75000008,0,0,.75000008,366.64463,253.90201)" stroke-width="1" stroke-linecap="butt" stroke-miterlimit="4" stroke-linejoin="miter" fill="none" stroke="#767676" d="M 0 0 C 0 .394 -.038 .784 -.115 1.17 C -.192 1.557 -.306 1.932 -.457 2.296 C -.608 2.66 -.792 3.006 -1.011 3.333 C -1.23 3.661 -1.479 3.964 -1.757 4.243 C -2.036 4.521 -2.339 4.77 -2.667 4.989 C -2.994 5.208 -3.34 5.392 -3.704 5.543 C -4.068 5.694 -4.443 5.808 -4.829 5.885 C -5.216 5.962 -5.606 6 -6 6 C -6.394 6 -6.784 5.962 -7.171 5.885 C -7.557 5.808 -7.932 5.694 -8.296 5.543 C -8.66 5.392 -9.006 5.208 -9.333 4.989 C -9.661 4.77 -9.964 4.521 -10.243 4.243 C -10.521 3.964 -10.77 3.661 -10.989 3.333 C -11.208 3.006 -11.393 2.66 -11.543 2.296 C -11.694 1.932 -11.808 1.557 -11.885 1.17 C -11.962 .784 -12 .394 -12 0 C -12 -.394 -11.962 -.784 -11.885 -1.171 C -11.808 -1.557 -11.694 -1.932 -11.543 -2.296 C -11.393 -2.66 -11.208 -3.006 -10.989 -3.333 C -10.77 -3.661 -10.521 -3.964 -10.243 -4.243 C -9.964 -4.521 -9.661 -4.77 -9.333 -4.989 C -9.006 -5.208 -8.66 -5.393 -8.296 -5.543 C -7.932 -5.694 -7.557 -5.808 -7.171 -5.885 C -6.784 -5.962 -6.394 -6 -6 -6 C -5.606 -6 -5.216 -5.962 -4.829 -5.885 C -4.443 -5.808 -4.068 -5.694 -3.704 -5.543 C -3.34 -5.393 -2.994 -5.208 -2.667 -4.989 C -2.339 -4.77 -2.036 -4.521 -1.757 -4.243 C -1.479 -3.964 -1.23 -3.661 -1.011 -3.333 C -.792 -3.006 -.608 -2.66 -.457 -2.296 C -.306 -1.932 -.192 -1.557 -.115 -1.171 C -.038 -.784 0 -.394 0 0 Z "/>
</g>
<clipPath id="cp16">
<path transform="matrix(.24,0,0,.24,-93.2304,-142.22299)" d="M 120.833 120.833 L 3183.333 120.833 L 3183.333 2433.333 L 120.833 2433.333 Z " fill-rule="evenodd"/>
</clipPath>
<g clip-path="url(#cp16)">
<g id="Layer-1" data-name="P">
</g>
<text xml:space="preserve" transform="matrix(.99999997 0 -0 .99999997 -93.2304 469.777)" font-size="13.995" font-family="MicrosoftYaHei"><tspan y="-211" x="468.875 482.87 496.865 510.86 524.855 538.85 552.845 566.83999 580.83499">&#x5f55;&#x97f3;&#x548c;&#x9009;&#x7684;&#x5b57;&#x975e;&#x5e38;&#x914d;</tspan></text>
</g>
<clipPath id="cp17">
<path transform="matrix(.2400055,0,0,.2400055,-93.49145,-275.4603)" d="M 1564.583 1883.333 L 1739.583 1883.333 L 1739.583 1983.333 L 1564.583 1983.333 Z " fill-rule="evenodd"/>
</clipPath>
<g clip-path="url(#cp17)">
<path transform="matrix(.75,0,0,.75,282.38359,198.66474)" d="M 0 0 L 0 -27 C 0 -27.265 .051 -27.52 .152 -27.765 C .254 -28.01 .398 -28.227 .586 -28.414 C .773 -28.602 .99 -28.746 1.235 -28.848 C 1.48 -28.949 1.735 -29 2 -29 L 53 -29 C 53.265 -29 53.52 -28.949 53.765 -28.848 C 54.01 -28.746 54.227 -28.602 54.414 -28.414 C 54.602 -28.227 54.746 -28.01 54.848 -27.765 C 54.949 -27.52 55 -27.265 55 -27 L 55 0 C 55 .265 54.949 .52 54.848 .765 C 54.746 1.01 54.602 1.227 54.414 1.414 C 54.227 1.602 54.01 1.746 53.765 1.848 C 53.52 1.949 53.265 2 53 2 L 2 2 C 1.735 2 1.48 1.949 1.235 1.848 C .99 1.746 .773 1.602 .586 1.414 C .398 1.227 .254 1.01 .152 .765 C .051 .52 0 .265 0 0 Z " fill="#efefef"/>
</g>
<clipPath id="cp18">
<path transform="matrix(.2400055,0,0,.2400055,-93.2304,-275.223)" d="M 1564.583 1883.333 L 1739.583 1883.333 L 1739.583 1983.333 L 1564.583 1983.333 Z " fill-rule="evenodd"/>
</clipPath>
<g clip-path="url(#cp18)">
<path transform="matrix(.75,0,0,.75,282.64463,198.90204)" stroke-width="1" stroke-linecap="butt" stroke-miterlimit="4" stroke-linejoin="miter" fill="none" stroke="#767676" d="M 0 0 L 0 -27 C 0 -27.265 .051 -27.52 .152 -27.765 C .254 -28.01 .398 -28.227 .586 -28.414 C .773 -28.602 .99 -28.746 1.235 -28.848 C 1.48 -28.949 1.735 -29 2 -29 L 53 -29 C 53.265 -29 53.52 -28.949 53.765 -28.848 C 54.01 -28.746 54.227 -28.602 54.414 -28.414 C 54.602 -28.227 54.746 -28.01 54.848 -27.765 C 54.949 -27.52 55 -27.265 55 -27 L 55 0 C 55 .265 54.949 .52 54.848 .765 C 54.746 1.01 54.602 1.227 54.414 1.414 C 54.227 1.602 54.01 1.746 53.765 1.848 C 53.52 1.949 53.265 2 53 2 L 2 2 C 1.735 2 1.48 1.949 1.235 1.848 C .99 1.746 .773 1.602 .586 1.414 C .398 1.227 .254 1.01 .152 .765 C .051 .52 0 .265 0 0 Z "/>
</g>
<clipPath id="cp19">
<path transform="matrix(.24,0,0,.24,-93.2304,-142.22299)" d="M 120.833 120.833 L 3183.333 120.833 L 3183.333 2433.333 L 120.833 2433.333 Z " fill-rule="evenodd"/>
</clipPath>
<g clip-path="url(#cp19)">
<g id="Layer-1" data-name="P">
</g>
<text xml:space="preserve" transform="matrix(1 0 -0 1 -93.2304 469.777)" font-size="15" font-family="MicrosoftYaHei"><tspan y="-275.7032" x="381.7048 396.7048">&#x63d0;&#x4ea4;</tspan></text>
</g>
<text fill="#0000ff" xml:space="preserve" transform="matrix(1 0 -0 1 -93.2304 469.777)" font-size="15.997" font-family="Arial"><tspan y="-402.591" x="97.637 112.73817 121.6325 125.18383 133.18233 142.07666 146.52384 158.07367 166.968 172.295 181.18933 185.6365 194.53084 198.08217 206.9765 211.42368 219.42218 228.31652 237.21085 241.65802 250.55236 259.4467 268.341 273.668">Which word did you hear?</tspan></text>
<g id="Layer-1" data-name="TouchUp_TextEdit">
</g>
<g id="Layer-1" data-name="TouchUp_TextEdit">
</g>
<g id="Layer-1" data-name="TouchUp_TextEdit">
</g>
<g id="Layer-1" data-name="TouchUp_TextEdit">
</g>
<g id="Layer-1" data-name="TouchUp_TextEdit">
</g>
<g id="Layer-1" data-name="TouchUp_TextEdit">
</g>
<g id="Layer-1" data-name="TouchUp_TextEdit">
</g>
<g id="Layer-1" data-name="TouchUp_TextEdit">
</g>
<text fill="#0000ff" xml:space="preserve" transform="matrix(1 0 -0 1 -93.2304 469.777)" font-size="14" font-family="Arial"><tspan y="-370.381" x="250.939 254.831 262.615 265.723 269.615 277.399 285.18299">/&#x03b8;i 35/</tspan></text>
<text fill="#0000ff" xml:space="preserve" transform="matrix(1 0 -0 1 -93.2304 469.777)" font-size="14" font-family="ArialMT"><tspan y="-370.381" x="289.07499"> </tspan></text>
<text fill="#0000ff" xml:space="preserve" transform="matrix(1 0 -0 1 -93.2304 469.777)" font-size="14" font-family="Arial"><tspan y="-370.381" x="294.94 298.832 306.616 309.724 316.724 320.616 328.4">/&#x03b8;i&#x0294; 5/</tspan></text>
<text fill="#0000ff" xml:space="preserve" transform="matrix(1 0 -0 1 -93.2304 469.777)" font-size="14" font-family="ArialMT"><tspan y="-370.381" x="332.292"> </tspan></text>
<text fill="#0000ff" xml:space="preserve" transform="matrix(1 0 -0 1 -93.2304 469.777)" font-size="14" font-family="Arial"><tspan y="-370.381" x="335.94 339.832 347.616 350.724 357.724 361.616 369.4">/&#x03b8;i&#x0294; 2/</tspan></text>
<text fill="#0000ff" xml:space="preserve" transform="matrix(1 0 -0 1 -93.2304 469.777)" font-size="14" font-family="ArialMT"><tspan y="-370.381" x="373.292"> </tspan></text>
<text fill="#0000ff" xml:space="preserve" transform="matrix(1 0 -0 1 -93.2304 469.777)" font-size="14" font-family="Arial"><tspan y="-370.381" x="381.939 385.831 393.615 396.723 400.615 408.399 416.18299 421.938 425.83 433.61399 436.722 440.61399 448.39799 456.18199">/&#x03b8;i 42//&#x03b8;i 23/</tspan></text>
<text fill="#0000ff" xml:space="preserve" transform="matrix(1 0 -0 1 -93.2304 469.777)" font-size="14" font-family="ArialMT"><tspan y="-370.381" x="460.07398"> </tspan></text>
<text fill="#0000ff" xml:space="preserve" transform="matrix(1 0 -0 1 -93.2304 469.777)" font-size="14" font-family="Arial"><tspan y="-369.78303" x="462.44 466.332 474.116 477.224 481.116 488.9 496.684">/&#x03b8;i 11/</tspan></text>
<text fill="#0000ff" xml:space="preserve" transform="matrix(1 0 -0 1 -93.2304 469.777)" font-size="14" font-family="ArialMT"><tspan y="-369.78303" x="500.576"> </tspan></text>
<text fill="#0000ff" xml:space="preserve" transform="matrix(1 0 -0 1 -93.2304 469.777)" font-size="14" font-family="Arial"><tspan y="-369.78303" x="503.441 507.333 515.117 518.225 522.117 529.901 537.685">/&#x03b8;i 44/</tspan></text>
<text xml:space="preserve" transform="matrix(1 0 -0 1 -93.2304 469.777)" font-size="13.995" font-family="MicrosoftYaHei"><tspan y="-347.50004" x="272.94404">&#x56db;</tspan></text>
<text xml:space="preserve" transform="matrix(1 0 -0 1 -93.2304 469.777)" font-size="13.995" font-family="MicrosoftYaHei"><tspan y="-347.5" x="286.939"> </tspan></text>
<text xml:space="preserve" transform="matrix(1 0 -0 1 -93.2304 469.777)" font-size="13.995" font-family="MicrosoftYaHei"><tspan y="-347.5" x="311.194">&#x6e7f;</tspan></text>
<text xml:space="preserve" transform="matrix(1 0 -0 1 -93.2304 469.777)" font-size="13.995" font-family="MicrosoftYaHei"><tspan y="-347.5" x="325.189"> </tspan></text>
<text xml:space="preserve" transform="matrix(1 0 -0 1 -93.2304 469.777)" font-size="13.995" font-family="MicrosoftYaHei"><tspan y="-347.5" x="349.444">&#x5b9e;</tspan></text>
<text xml:space="preserve" transform="matrix(1 0 -0 1 -93.2304 469.777)" font-size="13.995" font-family="MicrosoftYaHei"><tspan y="-347.5" x="363.439"> </tspan></text>
<text xml:space="preserve" transform="matrix(1 0 -0 1 -93.2304 469.777)" font-size="13.995" font-family="MicrosoftYaHei"><tspan y="-347.5" x="387.694">&#x6b7b;</tspan></text>
<text xml:space="preserve" transform="matrix(1 0 -0 1 -93.2304 469.777)" font-size="13.995" font-family="MicrosoftYaHei"><tspan y="-347.5" x="401.689"> </tspan></text>
<text xml:space="preserve" transform="matrix(1 0 -0 1 -93.2304 469.777)" font-size="13.995" font-family="MicrosoftYaHei"><tspan y="-347.5" x="425.944">&#x662f;</tspan></text>
<text xml:space="preserve" transform="matrix(1 0 -0 1 -93.2304 469.777)" font-size="13.995" font-family="MicrosoftYaHei"><tspan y="-347.5" x="439.939"> </tspan></text>
<text xml:space="preserve" transform="matrix(1 0 -0 1 -93.2304 469.777)" font-size="13.995" font-family="MicrosoftYaHei"><tspan y="-347.5" x="464.194">&#x65f6;</tspan></text>
<text xml:space="preserve" transform="matrix(1 0 -0 1 -93.2304 469.777)" font-size="13.995" font-family="MicrosoftYaHei"><tspan y="-347.5" x="478.189"> </tspan></text>
<text xml:space="preserve" transform="matrix(1 0 -0 1 -93.2304 469.777)" font-size="13.995" font-family="MicrosoftYaHei"><tspan y="-347.5" x="502.444">&#x8bd7;</tspan></text>
<g id="Layer-1" data-name="TouchUp_TextEdit">
</g>
<text fill="#0000ff" xml:space="preserve" transform="matrix(1 0 -0 1 -93.2304 469.777)" font-size="14" font-family="MicrosoftYaHei"><tspan y="-191.98" x="123.668 132.81 140.748 147.76201 156.66602 162.01403 170.97403 174.69803 183.32202 192.28203 196.42603 205.38603 214.29004 222.22805 228.71004 232.85404 241.47803 250.38204 255.60404 259.74806 264.60606 268.33006 273.55207 277.69609 282.9181 291.54209 299.48008 303.62409 314.68409 323.58808 328.93608">Recording does not fit the word</tspan></text>
<g id="Layer-1" data-name="TouchUp_TextEdit">
</g>
<text fill="#0000ff" xml:space="preserve" transform="matrix(1 0 -0 1 -93.2304 469.777)" font-size="14" font-family="MicrosoftYaHei"><tspan y="-191.98" x="468.668 477.81 485.748 492.762 501.666 507.01399 515.974 519.698 528.322 537.28207 541.426 546.284 550.008 555.23 561.712 565.85598 571.07797 579.70199 587.63998 591.78396 602.84396 611.7479 617.09597 626.05599 630.19998 637.5499 645.4879 650.83596 658.24197 662.3859 673.4459 681.3839 685.1079">Recording fits the word very well</tspan></text>
<g id="Layer-1" data-name="TouchUp_TextEdit">
</g>
<text fill="#0000ff" xml:space="preserve" transform="matrix(1 0 -0 1 -93.2304 469.777)" font-size="15.997" font-family="ArialMT"><tspan y="-402.416" x="514.504 526.05386 534.9482 543.8425 547.39389 556.2882">Replay</tspan></text>
<g id="Layer-1" data-name="TouchUp_TextEdit">
</g>
<text fill="#0000ff" xml:space="preserve" transform="matrix(1 0 -0 1 -93.2304 469.777)" font-size="15.997" font-family="ArialMT"><tspan y="-275.732" x="421.554 432.224 441.11836 450.0127 463.3382 466.88954">Submit</tspan></text>
<g id="Layer-1" data-name="TouchUp_TextEdit">
</g>
<text fill="#0000ff" xml:space="preserve" transform="matrix(1 0 -0 1 -93.2304 469.777)" font-size="14" font-family="ArialMT"><tspan y="-313.381" x="250.939 254.831 258.723 262.615 266.507 270.399 274.291 278.18299 285.96699 293.75099">      four</tspan><tspan y="-312.78303" x="298.401 302.293 306.185 310.077 320.185 327.969 331.861 335.753 342.753 350.537 358.32099 365.32099 369.98298 377.76698 381.65898 389.44297 393.33497 401.11897 404.22697 412.01097 415.90296 419.79496 423.68696 427.57896 435.36296 443.14695 447.03895 450.93095 454.82295 458.71495 462.60694 466.49894 469.60694 481.26893 489.05293 492.94493 496.8369 504.6209 512.4049 520.1889">   wet concrete die    be     time  poem</tspan></text>
</g>
</svg>
