<svg width="2310" height="825" xmlns="http://www.w3.org/2000/svg" xmlns:xlink="http://www.w3.org/1999/xlink" xml:space="preserve" overflow="hidden"><defs><clipPath id="clip0"><rect x="822" y="698" width="2310" height="825"/></clipPath><clipPath id="clip1"><rect x="1001" y="855" width="297" height="631"/></clipPath><clipPath id="clip2"><rect x="1322" y="855" width="296" height="631"/></clipPath><clipPath id="clip3"><rect x="1643" y="855" width="296" height="631"/></clipPath><clipPath id="clip4"><rect x="1963" y="855" width="297" height="631"/></clipPath><clipPath id="clip5"><rect x="2284" y="855" width="297" height="631"/></clipPath><clipPath id="clip6"><rect x="1001" y="723" width="297" height="133"/></clipPath><clipPath id="clip7"><rect x="1322" y="723" width="296" height="133"/></clipPath><clipPath id="clip8"><rect x="1643" y="723" width="296" height="133"/></clipPath><clipPath id="clip9"><rect x="1963" y="723" width="297" height="133"/></clipPath><clipPath id="clip10"><rect x="2284" y="723" width="297" height="133"/></clipPath></defs><g clip-path="url(#clip0)" transform="translate(-822 -698)"><path d="M822 698 3132 698 3132 1523 822 1523Z" stroke="#FFFFFF" stroke-width="4.90417" stroke-linecap="round" stroke-linejoin="round" stroke-miterlimit="10" fill="#FFFFFF"/><g clip-path="url(#clip1)"><path d="M1001.25 855.254 1297.02 855.254 1297.02 1485.33 1001.25 1485.33Z" fill="#FFFFFF"/><path d="M1011.84 1237.69 1075.23 1237.69 1075.23 1456.68 1011.84 1456.68Z" fill="#C2E699"/><path d="M1082.24 1170.31 1145.63 1170.31 1145.63 1456.73 1082.24 1456.73Z" fill="#78C679"/><path d="M1152.69 1136.63 1216.07 1136.63 1216.07 1456.73 1152.69 1456.73Z" fill="#31A354"/><path d="M1223.09 1052.38 1286.47 1052.38 1286.47 1456.68 1223.09 1456.68Z" fill="#006837"/><text font-family="Arial,Arial_MSFontService,sans-serif" font-weight="400" font-size="6" transform="matrix(4.58333 0 0 4.58333 1011.43 1234)">38</text><text font-family="Arial,Arial_MSFontService,sans-serif" font-weight="400" font-size="6" transform="matrix(4.58333 0 0 4.58333 1038.93 1234)">.</text><text font-family="Arial,Arial_MSFontService,sans-serif" font-weight="400" font-size="6" transform="matrix(4.58333 0 0 4.58333 1048.1 1234)">24</text><text font-family="Arial,Arial_MSFontService,sans-serif" font-weight="400" font-size="6" transform="matrix(4.58333 0 0 4.58333 1100.21 1167)">50</text><text font-family="Arial,Arial_MSFontService,sans-serif" font-weight="400" font-size="6" transform="matrix(4.58333 0 0 4.58333 1152.27 1133)">55</text><text font-family="Arial,Arial_MSFontService,sans-serif" font-weight="400" font-size="6" transform="matrix(4.58333 0 0 4.58333 1179.77 1133)">.</text><text font-family="Arial,Arial_MSFontService,sans-serif" font-weight="400" font-size="6" transform="matrix(4.58333 0 0 4.58333 1188.94 1133)">88</text><text font-family="Arial,Arial_MSFontService,sans-serif" font-weight="400" font-size="6" transform="matrix(4.58333 0 0 4.58333 1222.72 1049)">70</text><text font-family="Arial,Arial_MSFontService,sans-serif" font-weight="400" font-size="6" transform="matrix(4.58333 0 0 4.58333 1250.22 1049)">.</text><text font-family="Arial,Arial_MSFontService,sans-serif" font-weight="400" font-size="6" transform="matrix(4.58333 0 0 4.58333 1259.39 1049)">59</text><path d="M1001.25 855.254 1297.02 855.254 1297.02 1485.33 1001.25 1485.33Z" stroke="#333333" stroke-width="4.90417" stroke-linecap="round" stroke-linejoin="round" stroke-miterlimit="10" fill="none"/></g><g clip-path="url(#clip2)"><path d="M1322.18 855.254 1617.94 855.254 1617.94 1485.33 1322.18 1485.33Z" fill="#FFFFFF"/><path d="M1332.72 1372.44 1396.11 1372.44 1396.11 1456.68 1332.72 1456.68Z" fill="#C2E699"/><path d="M1403.17 1136.63 1466.55 1136.63 1466.55 1456.73 1403.17 1456.73Z" fill="#78C679"/><path d="M1473.57 1035.52 1536.95 1035.52 1536.95 1456.68 1473.57 1456.68Z" fill="#31A354"/><path d="M1544.01 1035.52 1607.4 1035.52 1607.4 1456.68 1544.01 1456.68Z" fill="#006837"/><text font-family="Arial,Arial_MSFontService,sans-serif" font-weight="400" font-size="6" transform="matrix(4.58333 0 0 4.58333 1332.31 1369)">14</text><text font-family="Arial,Arial_MSFontService,sans-serif" font-weight="400" font-size="6" transform="matrix(4.58333 0 0 4.58333 1359.81 1369)">.</text><text font-family="Arial,Arial_MSFontService,sans-serif" font-weight="400" font-size="6" transform="matrix(4.58333 0 0 4.58333 1368.97 1369)">71</text><text font-family="Arial,Arial_MSFontService,sans-serif" font-weight="400" font-size="6" transform="matrix(4.58333 0 0 4.58333 1402.75 1133)">55</text><text font-family="Arial,Arial_MSFontService,sans-serif" font-weight="400" font-size="6" transform="matrix(4.58333 0 0 4.58333 1430.25 1133)">.</text><text font-family="Arial,Arial_MSFontService,sans-serif" font-weight="400" font-size="6" transform="matrix(4.58333 0 0 4.58333 1439.42 1133)">88</text><text font-family="Arial,Arial_MSFontService,sans-serif" font-weight="400" font-size="6" transform="matrix(4.58333 0 0 4.58333 1473.15 1032)">73</text><text font-family="Arial,Arial_MSFontService,sans-serif" font-weight="400" font-size="6" transform="matrix(4.58333 0 0 4.58333 1500.65 1032)">.</text><text font-family="Arial,Arial_MSFontService,sans-serif" font-weight="400" font-size="6" transform="matrix(4.58333 0 0 4.58333 1509.82 1032)">53</text><text font-family="Arial,Arial_MSFontService,sans-serif" font-weight="400" font-size="6" transform="matrix(4.58333 0 0 4.58333 1543.6 1032)">73</text><text font-family="Arial,Arial_MSFontService,sans-serif" font-weight="400" font-size="6" transform="matrix(4.58333 0 0 4.58333 1571.1 1032)">.</text><text font-family="Arial,Arial_MSFontService,sans-serif" font-weight="400" font-size="6" transform="matrix(4.58333 0 0 4.58333 1580.27 1032)">53</text><path d="M1322.18 855.254 1617.94 855.254 1617.94 1485.33 1322.18 1485.33Z" stroke="#333333" stroke-width="4.90417" stroke-linecap="round" stroke-linejoin="round" stroke-miterlimit="10" fill="none"/></g><g clip-path="url(#clip3)"><path d="M1643.06 855.254 1938.82 855.254 1938.82 1485.33 1643.06 1485.33Z" fill="#FFFFFF"/><path d="M1724.05 1406.17 1787.43 1406.17 1787.43 1456.73 1724.05 1456.73Z" fill="#78C679"/><path d="M1794.45 1321.93 1857.83 1321.93 1857.83 1456.68 1794.45 1456.68Z" fill="#31A354"/><path d="M1864.89 1422.99 1928.28 1422.99 1928.28 1456.68 1864.89 1456.68Z" fill="#006837"/><text font-family="Arial,Arial_MSFontService,sans-serif" font-weight="400" font-size="6" transform="matrix(4.58333 0 0 4.58333 1678.44 1453)">0</text><text font-family="Arial,Arial_MSFontService,sans-serif" font-weight="400" font-size="6" transform="matrix(4.58333 0 0 4.58333 1730.51 1402)">8</text><text font-family="Arial,Arial_MSFontService,sans-serif" font-weight="400" font-size="6" transform="matrix(4.58333 0 0 4.58333 1744.26 1402)">.</text><text font-family="Arial,Arial_MSFontService,sans-serif" font-weight="400" font-size="6" transform="matrix(4.58333 0 0 4.58333 1753.42 1402)">82</text><text font-family="Arial,Arial_MSFontService,sans-serif" font-weight="400" font-size="6" transform="matrix(4.58333 0 0 4.58333 1794.08 1318)">23</text><text font-family="Arial,Arial_MSFontService,sans-serif" font-weight="400" font-size="6" transform="matrix(4.58333 0 0 4.58333 1821.58 1318)">.</text><text font-family="Arial,Arial_MSFontService,sans-serif" font-weight="400" font-size="6" transform="matrix(4.58333 0 0 4.58333 1830.75 1318)">53</text><text font-family="Arial,Arial_MSFontService,sans-serif" font-weight="400" font-size="6" transform="matrix(4.58333 0 0 4.58333 1871.35 1419)">5</text><text font-family="Arial,Arial_MSFontService,sans-serif" font-weight="400" font-size="6" transform="matrix(4.58333 0 0 4.58333 1885.1 1419)">.</text><text font-family="Arial,Arial_MSFontService,sans-serif" font-weight="400" font-size="6" transform="matrix(4.58333 0 0 4.58333 1894.27 1419)">88</text><path d="M1643.06 855.254 1938.82 855.254 1938.82 1485.33 1643.06 1485.33Z" stroke="#333333" stroke-width="4.90417" stroke-linecap="round" stroke-linejoin="round" stroke-miterlimit="10" fill="none"/></g><g clip-path="url(#clip4)"><path d="M1963.94 855.254 2259.7 855.254 2259.7 1485.33 1963.94 1485.33Z" fill="#FFFFFF"/><path d="M2185.77 1422.99 2249.16 1422.99 2249.16 1456.68 2185.77 1456.68Z" fill="#006837"/><text font-family="Arial,Arial_MSFontService,sans-serif" font-weight="400" font-size="6" transform="matrix(4.58333 0 0 4.58333 1999.32 1453)">0</text><text font-family="Arial,Arial_MSFontService,sans-serif" font-weight="400" font-size="6" transform="matrix(4.58333 0 0 4.58333 2069.72 1453)">0</text><text font-family="Arial,Arial_MSFontService,sans-serif" font-weight="400" font-size="6" transform="matrix(4.58333 0 0 4.58333 2140.17 1453)">0</text><text font-family="Arial,Arial_MSFontService,sans-serif" font-weight="400" font-size="6" transform="matrix(4.58333 0 0 4.58333 2192.23 1419)">5</text><text font-family="Arial,Arial_MSFontService,sans-serif" font-weight="400" font-size="6" transform="matrix(4.58333 0 0 4.58333 2205.98 1419)">.</text><text font-family="Arial,Arial_MSFontService,sans-serif" font-weight="400" font-size="6" transform="matrix(4.58333 0 0 4.58333 2215.15 1419)">88</text><path d="M1963.94 855.254 2259.7 855.254 2259.7 1485.33 1963.94 1485.33Z" stroke="#333333" stroke-width="4.90417" stroke-linecap="round" stroke-linejoin="round" stroke-miterlimit="10" fill="none"/></g><g clip-path="url(#clip5)"><path d="M2284.82 855.254 2580.58 855.254 2580.58 1485.33 2284.82 1485.33Z" fill="#FFFFFF"/><path d="M2295.4 1439.86 2358.79 1439.86 2358.79 1456.73 2295.4 1456.73Z" fill="#C2E699"/><path d="M2365.8 1439.86 2429.19 1439.86 2429.19 1456.73 2365.8 1456.73Z" fill="#78C679"/><path d="M2436.25 1439.86 2499.64 1439.86 2499.64 1456.73 2436.25 1456.73Z" fill="#31A354"/><text font-family="Arial,Arial_MSFontService,sans-serif" font-weight="400" font-size="6" transform="matrix(4.58333 0 0 4.58333 2301.87 1436)">2</text><text font-family="Arial,Arial_MSFontService,sans-serif" font-weight="400" font-size="6" transform="matrix(4.58333 0 0 4.58333 2315.62 1436)">.</text><text font-family="Arial,Arial_MSFontService,sans-serif" font-weight="400" font-size="6" transform="matrix(4.58333 0 0 4.58333 2324.78 1436)">94</text><text font-family="Arial,Arial_MSFontService,sans-serif" font-weight="400" font-size="6" transform="matrix(4.58333 0 0 4.58333 2372.31 1436)">2</text><text font-family="Arial,Arial_MSFontService,sans-serif" font-weight="400" font-size="6" transform="matrix(4.58333 0 0 4.58333 2386.06 1436)">.</text><text font-family="Arial,Arial_MSFontService,sans-serif" font-weight="400" font-size="6" transform="matrix(4.58333 0 0 4.58333 2395.23 1436)">94</text><text font-family="Arial,Arial_MSFontService,sans-serif" font-weight="400" font-size="6" transform="matrix(4.58333 0 0 4.58333 2442.71 1436)">2</text><text font-family="Arial,Arial_MSFontService,sans-serif" font-weight="400" font-size="6" transform="matrix(4.58333 0 0 4.58333 2456.46 1436)">.</text><text font-family="Arial,Arial_MSFontService,sans-serif" font-weight="400" font-size="6" transform="matrix(4.58333 0 0 4.58333 2465.63 1436)">94</text><text font-family="Arial,Arial_MSFontService,sans-serif" font-weight="400" font-size="6" transform="matrix(4.58333 0 0 4.58333 2531.49 1453)">0</text><path d="M2284.82 855.254 2580.58 855.254 2580.58 1485.33 2284.82 1485.33Z" stroke="#333333" stroke-width="4.90417" stroke-linecap="round" stroke-linejoin="round" stroke-miterlimit="10" fill="none"/></g><g clip-path="url(#clip6)"><path d="M1001.25 723.117 1297.02 723.117 1297.02 855.254 1001.25 855.254Z" stroke="#333333" stroke-width="4.90417" stroke-linecap="round" stroke-linejoin="round" stroke-miterlimit="10" fill="#D9D9D9"/><text fill="#1A1A1A" font-family="Arial,Arial_MSFontService,sans-serif" font-weight="400" font-size="10" transform="matrix(4.58333 0 0 4.58333 1029.99 781)">Low</text><text fill="#1A1A1A" font-family="Arial,Arial_MSFontService,sans-serif" font-weight="400" font-size="10" transform="matrix(4.58333 0 0 4.58333 1117.07 781)">-</text><text fill="#1A1A1A" font-family="Arial,Arial_MSFontService,sans-serif" font-weight="400" font-size="10" transform="matrix(4.58333 0 0 4.58333 1130.82 781)">falling</text><text fill="#1A1A1A" font-family="Arial,Arial_MSFontService,sans-serif" font-weight="400" font-size="10" transform="matrix(4.58333 0 0 4.58333 1075.82 830)">T</text><text fill="#1A1A1A" font-family="Arial,Arial_MSFontService,sans-serif" font-weight="400" font-size="10" transform="matrix(4.58333 0 0 4.58333 1107.91 830)">2</text><text fill="#1A1A1A" font-family="Arial,Arial_MSFontService,sans-serif" font-weight="400" font-size="10" transform="matrix(4.58333 0 0 4.58333 1135.41 830)">-</text><text fill="#1A1A1A" font-family="Arial,Arial_MSFontService,sans-serif" font-weight="400" font-size="10" transform="matrix(4.58333 0 0 4.58333 1149.16 830)">like</text></g><g clip-path="url(#clip7)"><path d="M1322.18 723.117 1617.94 723.117 1617.94 855.254 1322.18 855.254Z" stroke="#333333" stroke-width="4.90417" stroke-linecap="round" stroke-linejoin="round" stroke-miterlimit="10" fill="#D9D9D9"/><text fill="#1A1A1A" font-family="Arial,Arial_MSFontService,sans-serif" font-weight="400" font-size="10" transform="matrix(4.58333 0 0 4.58333 1366.91 781)">Low</text><text fill="#1A1A1A" font-family="Arial,Arial_MSFontService,sans-serif" font-weight="400" font-size="10" transform="matrix(4.58333 0 0 4.58333 1454 781)">-</text><text fill="#1A1A1A" font-family="Arial,Arial_MSFontService,sans-serif" font-weight="400" font-size="10" transform="matrix(4.58333 0 0 4.58333 1467.75 781)">level</text><text fill="#1A1A1A" font-family="Arial,Arial_MSFontService,sans-serif" font-weight="400" font-size="10" transform="matrix(4.58333 0 0 4.58333 1385.25 830)">T</text><text fill="#1A1A1A" font-family="Arial,Arial_MSFontService,sans-serif" font-weight="400" font-size="10" transform="matrix(4.58333 0 0 4.58333 1417.33 830)">11</text><text fill="#1A1A1A" font-family="Arial,Arial_MSFontService,sans-serif" font-weight="400" font-size="10" transform="matrix(4.58333 0 0 4.58333 1467.75 830)">-</text><text fill="#1A1A1A" font-family="Arial,Arial_MSFontService,sans-serif" font-weight="400" font-size="10" transform="matrix(4.58333 0 0 4.58333 1481.5 830)">like</text></g><g clip-path="url(#clip8)"><path d="M1643.06 723.117 1938.82 723.117 1938.82 855.254 1643.06 855.254Z" stroke="#333333" stroke-width="4.90417" stroke-linecap="round" stroke-linejoin="round" stroke-miterlimit="10" fill="#D9D9D9"/><text fill="#1A1A1A" font-family="Arial,Arial_MSFontService,sans-serif" font-weight="400" font-size="10" transform="matrix(4.58333 0 0 4.58333 1690.08 781)">Mid</text><text fill="#1A1A1A" font-family="Arial,Arial_MSFontService,sans-serif" font-weight="400" font-size="10" transform="matrix(4.58333 0 0 4.58333 1772.58 781)">-</text><text fill="#1A1A1A" font-family="Arial,Arial_MSFontService,sans-serif" font-weight="400" font-size="10" transform="matrix(4.58333 0 0 4.58333 1786.33 781)">level</text><text fill="#1A1A1A" font-family="Arial,Arial_MSFontService,sans-serif" font-weight="400" font-size="10" transform="matrix(4.58333 0 0 4.58333 1703.83 830)">T</text><text fill="#1A1A1A" font-family="Arial,Arial_MSFontService,sans-serif" font-weight="400" font-size="10" transform="matrix(4.58333 0 0 4.58333 1735.92 830)">44</text><text fill="#1A1A1A" font-family="Arial,Arial_MSFontService,sans-serif" font-weight="400" font-size="10" transform="matrix(4.58333 0 0 4.58333 1790.92 830)">-</text><text fill="#1A1A1A" font-family="Arial,Arial_MSFontService,sans-serif" font-weight="400" font-size="10" transform="matrix(4.58333 0 0 4.58333 1804.67 830)">like</text></g><g clip-path="url(#clip9)"><path d="M1963.94 723.117 2259.7 723.117 2259.7 855.254 1963.94 855.254Z" stroke="#333333" stroke-width="4.90417" stroke-linecap="round" stroke-linejoin="round" stroke-miterlimit="10" fill="#D9D9D9"/><text fill="#1A1A1A" font-family="Arial,Arial_MSFontService,sans-serif" font-weight="400" font-size="10" transform="matrix(4.58333 0 0 4.58333 1994.97 781)">Mid</text><text fill="#1A1A1A" font-family="Arial,Arial_MSFontService,sans-serif" font-weight="400" font-size="10" transform="matrix(4.58333 0 0 4.58333 2077.47 781)">-</text><text fill="#1A1A1A" font-family="Arial,Arial_MSFontService,sans-serif" font-weight="400" font-size="10" transform="matrix(4.58333 0 0 4.58333 2091.22 781)">falling</text><text fill="#1A1A1A" font-family="Arial,Arial_MSFontService,sans-serif" font-weight="400" font-size="10" transform="matrix(4.58333 0 0 4.58333 2024.76 830)">T</text><text fill="#1A1A1A" font-family="Arial,Arial_MSFontService,sans-serif" font-weight="400" font-size="10" transform="matrix(4.58333 0 0 4.58333 2056.84 830)">42</text><text fill="#1A1A1A" font-family="Arial,Arial_MSFontService,sans-serif" font-weight="400" font-size="10" transform="matrix(4.58333 0 0 4.58333 2111.84 830)">-</text><text fill="#1A1A1A" font-family="Arial,Arial_MSFontService,sans-serif" font-weight="400" font-size="10" transform="matrix(4.58333 0 0 4.58333 2125.59 830)">like</text></g><g clip-path="url(#clip10)"><path d="M2284.82 723.117 2580.58 723.117 2580.58 855.254 2284.82 855.254Z" stroke="#333333" stroke-width="4.90417" stroke-linecap="round" stroke-linejoin="round" stroke-miterlimit="10" fill="#D9D9D9"/><text fill="#1A1A1A" font-family="Arial,Arial_MSFontService,sans-serif" font-weight="400" font-size="10" transform="matrix(4.58333 0 0 4.58333 2306.68 781)">High</text><text fill="#1A1A1A" font-family="Arial,Arial_MSFontService,sans-serif" font-weight="400" font-size="10" transform="matrix(4.58333 0 0 4.58333 2407.51 781)">-</text><text fill="#1A1A1A" font-family="Arial,Arial_MSFontService,sans-serif" font-weight="400" font-size="10" transform="matrix(4.58333 0 0 4.58333 2421.26 781)">falling</text><text fill="#1A1A1A" font-family="Arial,Arial_MSFontService,sans-serif" font-weight="400" font-size="10" transform="matrix(4.58333 0 0 4.58333 2359.39 830)">T</text><text fill="#1A1A1A" font-family="Arial,Arial_MSFontService,sans-serif" font-weight="400" font-size="10" transform="matrix(4.58333 0 0 4.58333 2391.47 830)">5</text><text fill="#1A1A1A" font-family="Arial,Arial_MSFontService,sans-serif" font-weight="400" font-size="10" transform="matrix(4.58333 0 0 4.58333 2418.97 830)">-</text><text fill="#1A1A1A" font-family="Arial,Arial_MSFontService,sans-serif" font-weight="400" font-size="10" transform="matrix(4.58333 0 0 4.58333 2432.72 830)">like</text></g><text fill="#4D4D4D" font-family="Arial,Arial_MSFontService,sans-serif" font-weight="400" font-size="10" transform="matrix(4.58333 0 0 4.58333 951.158 1473)">0</text><text fill="#4D4D4D" font-family="Arial,Arial_MSFontService,sans-serif" font-weight="400" font-size="10" transform="matrix(4.58333 0 0 4.58333 923.658 1359)">20</text><text fill="#4D4D4D" font-family="Arial,Arial_MSFontService,sans-serif" font-weight="400" font-size="10" transform="matrix(4.58333 0 0 4.58333 923.658 1244)">40</text><text fill="#4D4D4D" font-family="Arial,Arial_MSFontService,sans-serif" font-weight="400" font-size="10" transform="matrix(4.58333 0 0 4.58333 923.658 1129)">60</text><text fill="#4D4D4D" font-family="Arial,Arial_MSFontService,sans-serif" font-weight="400" font-size="10" transform="matrix(4.58333 0 0 4.58333 923.658 1015)">80</text><text fill="#4D4D4D" font-family="Arial,Arial_MSFontService,sans-serif" font-weight="400" font-size="10" transform="matrix(4.58333 0 0 4.58333 896.158 900)">100</text><text font-family="Arial,Arial_MSFontService,sans-serif" font-weight="400" font-size="10" transform="matrix(2.80648e-16 -4.58333 4.58333 2.80648e-16 879.933 1365)">% </text><text font-family="Arial,Arial_MSFontService,sans-serif" font-weight="400" font-size="10" transform="matrix(2.80648e-16 -4.58333 4.58333 2.80648e-16 879.933 1310)">of T</text><text font-family="Arial,Arial_MSFontService,sans-serif" font-weight="400" font-size="10" transform="matrix(2.80648e-16 -4.58333 4.58333 2.80648e-16 879.933 1223)">2 </text><text font-family="Arial,Arial_MSFontService,sans-serif" font-weight="400" font-size="10" transform="matrix(2.80648e-16 -4.58333 4.58333 2.80648e-16 879.933 1182)">responses</text><path d="M2630.81 954.117 3106.88 954.117 3106.88 1386.46 2630.81 1386.46Z" fill="#FFFFFF"/><text font-family="Arial,Arial_MSFontService,sans-serif" font-weight="400" font-size="10" transform="matrix(4.58333 0 0 4.58333 2655.93 1017)">Condition</text><path d="M2655.93 1044.55 2735.13 1044.55 2735.13 1123.75 2655.93 1123.75Z" fill="#FFFFFF"/><path d="M2659.18 1047.8 2731.88 1047.8 2731.88 1120.49 2659.18 1120.49Z" fill="#C2E699"/><path d="M2655.93 1123.75 2735.13 1123.75 2735.13 1202.95 2655.93 1202.95Z" fill="#FFFFFF"/><path d="M2659.18 1127 2731.88 1127 2731.88 1199.69 2659.18 1199.69Z" fill="#78C679"/><path d="M2655.93 1202.95 2735.13 1202.95 2735.13 1282.15 2655.93 1282.15Z" fill="#FFFFFF"/><path d="M2659.18 1206.2 2731.88 1206.2 2731.88 1278.89 2659.18 1278.89Z" fill="#31A354"/><path d="M2655.93 1282.15 2735.13 1282.15 2735.13 1361.35 2655.93 1361.35Z" fill="#FFFFFF"/><path d="M2659.18 1285.4 2731.88 1285.4 2731.88 1358.09 2659.18 1358.09Z" fill="#006837"/><text font-family="Arial,Arial_MSFontService,sans-serif" font-weight="400" font-size="10" transform="matrix(4.58333 0 0 4.58333 2757.95 1101)">long</text><text font-family="Arial,Arial_MSFontService,sans-serif" font-weight="400" font-size="10" transform="matrix(4.58333 0 0 4.58333 2854.2 1101)">-</text><text font-family="Arial,Arial_MSFontService,sans-serif" font-weight="400" font-size="10" transform="matrix(4.58333 0 0 4.58333 2867.95 1101)">modal</text><text font-family="Arial,Arial_MSFontService,sans-serif" font-weight="400" font-size="10" transform="matrix(4.58333 0 0 4.58333 2757.95 1180)">long</text><text font-family="Arial,Arial_MSFontService,sans-serif" font-weight="400" font-size="10" transform="matrix(4.58333 0 0 4.58333 2854.2 1180)">-</text><text font-family="Arial,Arial_MSFontService,sans-serif" font-weight="400" font-size="10" transform="matrix(4.58333 0 0 4.58333 2867.95 1180)">glottalized</text><text font-family="Arial,Arial_MSFontService,sans-serif" font-weight="400" font-size="10" transform="matrix(4.58333 0 0 4.58333 2757.95 1259)">short</text><text font-family="Arial,Arial_MSFontService,sans-serif" font-weight="400" font-size="10" transform="matrix(4.58333 0 0 4.58333 2858.79 1259)">-</text><text font-family="Arial,Arial_MSFontService,sans-serif" font-weight="400" font-size="10" transform="matrix(4.58333 0 0 4.58333 2872.54 1259)">modal</text><text font-family="Arial,Arial_MSFontService,sans-serif" font-weight="400" font-size="10" transform="matrix(4.58333 0 0 4.58333 2757.95 1338)">short</text><text font-family="Arial,Arial_MSFontService,sans-serif" font-weight="400" font-size="10" transform="matrix(4.58333 0 0 4.58333 2858.79 1338)">-</text><text font-family="Arial,Arial_MSFontService,sans-serif" font-weight="400" font-size="10" transform="matrix(4.58333 0 0 4.58333 2872.54 1338)">glottalized</text><rect x="1638" y="714" width="946" height="780" fill="#FFFFFF"/></g></svg>