<svg width="2310" height="838" xmlns="http://www.w3.org/2000/svg" xmlns:xlink="http://www.w3.org/1999/xlink" xml:space="preserve" overflow="hidden"><defs><clipPath id="clip0"><rect x="1045" y="812" width="2310" height="838"/></clipPath><clipPath id="clip1"><rect x="1045" y="825" width="2310" height="825"/></clipPath><clipPath id="clip2"><rect x="1045" y="825" width="2310" height="825"/></clipPath><clipPath id="clip3"><rect x="1045" y="825" width="2310" height="825"/></clipPath><clipPath id="clip4"><rect x="1045" y="825" width="2310" height="825"/></clipPath><clipPath id="clip5"><rect x="1224" y="982" width="297" height="631"/></clipPath><clipPath id="clip6"><rect x="1545" y="982" width="296" height="631"/></clipPath><clipPath id="clip7"><rect x="1866" y="982" width="296" height="631"/></clipPath><clipPath id="clip8"><rect x="2186" y="982" width="297" height="631"/></clipPath><clipPath id="clip9"><rect x="2507" y="982" width="297" height="631"/></clipPath><clipPath id="clip10"><rect x="1224" y="850" width="297" height="133"/></clipPath><clipPath id="clip11"><rect x="1545" y="850" width="296" height="133"/></clipPath><clipPath id="clip12"><rect x="1866" y="850" width="296" height="133"/></clipPath><clipPath id="clip13"><rect x="2186" y="850" width="297" height="133"/></clipPath><clipPath id="clip14"><rect x="2507" y="850" width="297" height="133"/></clipPath><clipPath id="clip15"><rect x="1045" y="825" width="2310" height="825"/></clipPath></defs><g clip-path="url(#clip0)" transform="translate(-1045 -812)"><g clip-path="url(#clip1)"><g clip-path="url(#clip2)"><g clip-path="url(#clip3)"><g clip-path="url(#clip4)"><path d="M1045 825 3355 825 3355 1650 1045 1650Z" stroke="#FFFFFF" stroke-width="4.90417" stroke-linecap="round" stroke-linejoin="round" stroke-miterlimit="10" fill="#FFFFFF"/></g><g clip-path="url(#clip5)"><path d="M1224.25 982.254 1520.02 982.254 1520.02 1612.32 1224.25 1612.32Z" fill="#FFFFFF"/><path d="M1305.24 1566.86 1368.63 1566.86 1368.63 1583.72 1305.24 1583.72Z" fill="#78C679"/><path d="M1375.69 1549.99 1439.08 1549.99 1439.08 1583.68 1375.69 1583.68Z" fill="#31A354"/><path d="M1446.09 1549.99 1509.48 1549.99 1509.48 1583.68 1446.09 1583.68Z" fill="#006837"/><text font-family="Arial,Arial_MSFontService,sans-serif" font-weight="400" font-size="6" transform="matrix(4.58333 0 0 4.58333 1259.64 1580)">0</text><text font-family="Arial,Arial_MSFontService,sans-serif" font-weight="400" font-size="6" transform="matrix(4.58333 0 0 4.58333 1311.75 1563)">2</text><text font-family="Arial,Arial_MSFontService,sans-serif" font-weight="400" font-size="6" transform="matrix(4.58333 0 0 4.58333 1325.5 1563)">.</text><text font-family="Arial,Arial_MSFontService,sans-serif" font-weight="400" font-size="6" transform="matrix(4.58333 0 0 4.58333 1334.67 1563)">94</text><text font-family="Arial,Arial_MSFontService,sans-serif" font-weight="400" font-size="6" transform="matrix(4.58333 0 0 4.58333 1382.15 1546)">5</text><text font-family="Arial,Arial_MSFontService,sans-serif" font-weight="400" font-size="6" transform="matrix(4.58333 0 0 4.58333 1395.9 1546)">.</text><text font-family="Arial,Arial_MSFontService,sans-serif" font-weight="400" font-size="6" transform="matrix(4.58333 0 0 4.58333 1405.07 1546)">88</text><text font-family="Arial,Arial_MSFontService,sans-serif" font-weight="400" font-size="6" transform="matrix(4.58333 0 0 4.58333 1452.6 1546)">5</text><text font-family="Arial,Arial_MSFontService,sans-serif" font-weight="400" font-size="6" transform="matrix(4.58333 0 0 4.58333 1466.35 1546)">.</text><text font-family="Arial,Arial_MSFontService,sans-serif" font-weight="400" font-size="6" transform="matrix(4.58333 0 0 4.58333 1475.51 1546)">88</text><path d="M1224.25 982.254 1520.02 982.254 1520.02 1612.32 1224.25 1612.32Z" stroke="#333333" stroke-width="4.90417" stroke-linecap="round" stroke-linejoin="round" stroke-miterlimit="10" fill="none"/></g><g clip-path="url(#clip6)"><path d="M1545.18 982.254 1840.94 982.254 1840.94 1612.32 1545.18 1612.32Z" fill="#FFFFFF"/><path d="M1767.01 1566.86 1830.4 1566.86 1830.4 1583.72 1767.01 1583.72Z" fill="#006837"/><text font-family="Arial,Arial_MSFontService,sans-serif" font-weight="400" font-size="6" transform="matrix(4.58333 0 0 4.58333 1580.52 1580)">0</text><text font-family="Arial,Arial_MSFontService,sans-serif" font-weight="400" font-size="6" transform="matrix(4.58333 0 0 4.58333 1650.96 1580)">0</text><text font-family="Arial,Arial_MSFontService,sans-serif" font-weight="400" font-size="6" transform="matrix(4.58333 0 0 4.58333 1721.36 1580)">0</text><text font-family="Arial,Arial_MSFontService,sans-serif" font-weight="400" font-size="6" transform="matrix(4.58333 0 0 4.58333 1773.47 1563)">2</text><text font-family="Arial,Arial_MSFontService,sans-serif" font-weight="400" font-size="6" transform="matrix(4.58333 0 0 4.58333 1787.22 1563)">.</text><text font-family="Arial,Arial_MSFontService,sans-serif" font-weight="400" font-size="6" transform="matrix(4.58333 0 0 4.58333 1796.39 1563)">94</text><path d="M1545.18 982.254 1840.94 982.254 1840.94 1612.32 1545.18 1612.32Z" stroke="#333333" stroke-width="4.90417" stroke-linecap="round" stroke-linejoin="round" stroke-miterlimit="10" fill="none"/></g><g clip-path="url(#clip7)"><path d="M1866.06 982.254 2161.82 982.254 2161.82 1612.32 1866.06 1612.32Z" fill="#FFFFFF"/><path d="M1947.05 1398.38 2010.43 1398.38 2010.43 1583.68 1947.05 1583.68Z" fill="#78C679"/><path d="M2017.45 1465.75 2080.83 1465.75 2080.83 1583.68 2017.45 1583.68Z" fill="#31A354"/><path d="M2087.89 1229.89 2151.28 1229.89 2151.28 1583.68 2087.89 1583.68Z" fill="#006837"/><text font-family="Arial,Arial_MSFontService,sans-serif" font-weight="400" font-size="6" transform="matrix(4.58333 0 0 4.58333 1901.44 1580)">0</text><text font-family="Arial,Arial_MSFontService,sans-serif" font-weight="400" font-size="6" transform="matrix(4.58333 0 0 4.58333 1946.63 1395)">32</text><text font-family="Arial,Arial_MSFontService,sans-serif" font-weight="400" font-size="6" transform="matrix(4.58333 0 0 4.58333 1974.13 1395)">.</text><text font-family="Arial,Arial_MSFontService,sans-serif" font-weight="400" font-size="6" transform="matrix(4.58333 0 0 4.58333 1983.3 1395)">35</text><text font-family="Arial,Arial_MSFontService,sans-serif" font-weight="400" font-size="6" transform="matrix(4.58333 0 0 4.58333 2017.08 1462)">20</text><text font-family="Arial,Arial_MSFontService,sans-serif" font-weight="400" font-size="6" transform="matrix(4.58333 0 0 4.58333 2044.58 1462)">.</text><text font-family="Arial,Arial_MSFontService,sans-serif" font-weight="400" font-size="6" transform="matrix(4.58333 0 0 4.58333 2053.75 1462)">59</text><text font-family="Arial,Arial_MSFontService,sans-serif" font-weight="400" font-size="6" transform="matrix(4.58333 0 0 4.58333 2087.48 1226)">61</text><text font-family="Arial,Arial_MSFontService,sans-serif" font-weight="400" font-size="6" transform="matrix(4.58333 0 0 4.58333 2114.98 1226)">.</text><text font-family="Arial,Arial_MSFontService,sans-serif" font-weight="400" font-size="6" transform="matrix(4.58333 0 0 4.58333 2124.15 1226)">76</text><path d="M1866.06 982.254 2161.82 982.254 2161.82 1612.32 1866.06 1612.32Z" stroke="#333333" stroke-width="4.90417" stroke-linecap="round" stroke-linejoin="round" stroke-miterlimit="10" fill="none"/></g><g clip-path="url(#clip8)"><path d="M2186.94 982.254 2482.7 982.254 2482.7 1612.32 2186.94 1612.32Z" fill="#FFFFFF"/><path d="M2197.48 1499.44 2260.87 1499.44 2260.87 1583.68 2197.48 1583.68Z" fill="#C2E699"/><path d="M2267.93 1364.69 2331.31 1364.69 2331.31 1583.68 2267.93 1583.68Z" fill="#78C679"/><path d="M2338.32 1297.31 2401.71 1297.31 2401.71 1583.73 2338.32 1583.73Z" fill="#31A354"/><path d="M2408.77 1145.7 2472.16 1145.7 2472.16 1583.73 2408.77 1583.73Z" fill="#006837"/><text font-family="Arial,Arial_MSFontService,sans-serif" font-weight="400" font-size="6" transform="matrix(4.58333 0 0 4.58333 2197.11 1496)">14</text><text font-family="Arial,Arial_MSFontService,sans-serif" font-weight="400" font-size="6" transform="matrix(4.58333 0 0 4.58333 2224.61 1496)">.</text><text font-family="Arial,Arial_MSFontService,sans-serif" font-weight="400" font-size="6" transform="matrix(4.58333 0 0 4.58333 2233.78 1496)">71</text><text font-family="Arial,Arial_MSFontService,sans-serif" font-weight="400" font-size="6" transform="matrix(4.58333 0 0 4.58333 2267.51 1361)">38</text><text font-family="Arial,Arial_MSFontService,sans-serif" font-weight="400" font-size="6" transform="matrix(4.58333 0 0 4.58333 2295.01 1361)">.</text><text font-family="Arial,Arial_MSFontService,sans-serif" font-weight="400" font-size="6" transform="matrix(4.58333 0 0 4.58333 2304.18 1361)">24</text><text font-family="Arial,Arial_MSFontService,sans-serif" font-weight="400" font-size="6" transform="matrix(4.58333 0 0 4.58333 2356.29 1294)">50</text><text font-family="Arial,Arial_MSFontService,sans-serif" font-weight="400" font-size="6" transform="matrix(4.58333 0 0 4.58333 2408.36 1142)">76</text><text font-family="Arial,Arial_MSFontService,sans-serif" font-weight="400" font-size="6" transform="matrix(4.58333 0 0 4.58333 2435.86 1142)">.</text><text font-family="Arial,Arial_MSFontService,sans-serif" font-weight="400" font-size="6" transform="matrix(4.58333 0 0 4.58333 2445.02 1142)">47</text><path d="M2186.94 982.254 2482.7 982.254 2482.7 1612.32 2186.94 1612.32Z" stroke="#333333" stroke-width="4.90417" stroke-linecap="round" stroke-linejoin="round" stroke-miterlimit="10" fill="none"/></g><g clip-path="url(#clip9)"><path d="M2507.82 982.254 2803.58 982.254 2803.58 1612.32 2507.82 1612.32Z" fill="#FFFFFF"/><path d="M2518.4 1331 2581.79 1331 2581.79 1583.68 2518.4 1583.68Z" fill="#C2E699"/><path d="M2588.8 1213.07 2652.19 1213.07 2652.19 1583.68 2588.8 1583.68Z" fill="#78C679"/><path d="M2659.25 1078.28 2722.64 1078.28 2722.64 1583.68 2659.25 1583.68Z" fill="#31A354"/><path d="M2729.65 1080.34 2793.04 1080.34 2793.04 1583.68 2729.65 1583.68Z" fill="#006837"/><text font-family="Arial,Arial_MSFontService,sans-serif" font-weight="400" font-size="6" transform="matrix(4.58333 0 0 4.58333 2517.99 1327)">44</text><text font-family="Arial,Arial_MSFontService,sans-serif" font-weight="400" font-size="6" transform="matrix(4.58333 0 0 4.58333 2545.49 1327)">.</text><text font-family="Arial,Arial_MSFontService,sans-serif" font-weight="400" font-size="6" transform="matrix(4.58333 0 0 4.58333 2554.66 1327)">12</text><text font-family="Arial,Arial_MSFontService,sans-serif" font-weight="400" font-size="6" transform="matrix(4.58333 0 0 4.58333 2588.44 1209)">64</text><text font-family="Arial,Arial_MSFontService,sans-serif" font-weight="400" font-size="6" transform="matrix(4.58333 0 0 4.58333 2615.94 1209)">.</text><text font-family="Arial,Arial_MSFontService,sans-serif" font-weight="400" font-size="6" transform="matrix(4.58333 0 0 4.58333 2625.1 1209)">71</text><text font-family="Arial,Arial_MSFontService,sans-serif" font-weight="400" font-size="6" transform="matrix(4.58333 0 0 4.58333 2658.84 1075)">88</text><text font-family="Arial,Arial_MSFontService,sans-serif" font-weight="400" font-size="6" transform="matrix(4.58333 0 0 4.58333 2686.34 1075)">.</text><text font-family="Arial,Arial_MSFontService,sans-serif" font-weight="400" font-size="6" transform="matrix(4.58333 0 0 4.58333 2695.5 1075)">24</text><text font-family="Arial,Arial_MSFontService,sans-serif" font-weight="400" font-size="6" transform="matrix(4.58333 0 0 4.58333 2729.28 1077)">87</text><text font-family="Arial,Arial_MSFontService,sans-serif" font-weight="400" font-size="6" transform="matrix(4.58333 0 0 4.58333 2756.78 1077)">.</text><text font-family="Arial,Arial_MSFontService,sans-serif" font-weight="400" font-size="6" transform="matrix(4.58333 0 0 4.58333 2765.95 1077)">88</text><path d="M2507.82 982.254 2803.58 982.254 2803.58 1612.32 2507.82 1612.32Z" stroke="#333333" stroke-width="4.90417" stroke-linecap="round" stroke-linejoin="round" stroke-miterlimit="10" fill="none"/></g><g clip-path="url(#clip10)"><path d="M1224.25 850.117 1520.02 850.117 1520.02 982.254 1224.25 982.254Z" stroke="#333333" stroke-width="4.90417" stroke-linecap="round" stroke-linejoin="round" stroke-miterlimit="10" fill="#D9D9D9"/><text fill="#1A1A1A" font-family="Arial,Arial_MSFontService,sans-serif" font-weight="400" font-size="10" transform="matrix(4.58333 0 0 4.58333 1252.99 908)">Low</text><text fill="#1A1A1A" font-family="Arial,Arial_MSFontService,sans-serif" font-weight="400" font-size="10" transform="matrix(4.58333 0 0 4.58333 1340.07 908)">-</text><text fill="#1A1A1A" font-family="Arial,Arial_MSFontService,sans-serif" font-weight="400" font-size="10" transform="matrix(4.58333 0 0 4.58333 1353.82 908)">falling</text><text fill="#1A1A1A" font-family="Arial,Arial_MSFontService,sans-serif" font-weight="400" font-size="10" transform="matrix(4.58333 0 0 4.58333 1298.82 957)">T</text><text fill="#1A1A1A" font-family="Arial,Arial_MSFontService,sans-serif" font-weight="400" font-size="10" transform="matrix(4.58333 0 0 4.58333 1330.91 957)">2</text><text fill="#1A1A1A" font-family="Arial,Arial_MSFontService,sans-serif" font-weight="400" font-size="10" transform="matrix(4.58333 0 0 4.58333 1358.41 957)">-</text><text fill="#1A1A1A" font-family="Arial,Arial_MSFontService,sans-serif" font-weight="400" font-size="10" transform="matrix(4.58333 0 0 4.58333 1372.16 957)">like</text></g><g clip-path="url(#clip11)"><path d="M1545.18 850.117 1840.94 850.117 1840.94 982.254 1545.18 982.254Z" stroke="#333333" stroke-width="4.90417" stroke-linecap="round" stroke-linejoin="round" stroke-miterlimit="10" fill="#D9D9D9"/><text fill="#1A1A1A" font-family="Arial,Arial_MSFontService,sans-serif" font-weight="400" font-size="10" transform="matrix(4.58333 0 0 4.58333 1589.91 908)">Low</text><text fill="#1A1A1A" font-family="Arial,Arial_MSFontService,sans-serif" font-weight="400" font-size="10" transform="matrix(4.58333 0 0 4.58333 1677 908)">-</text><text fill="#1A1A1A" font-family="Arial,Arial_MSFontService,sans-serif" font-weight="400" font-size="10" transform="matrix(4.58333 0 0 4.58333 1690.75 908)">level</text><text fill="#1A1A1A" font-family="Arial,Arial_MSFontService,sans-serif" font-weight="400" font-size="10" transform="matrix(4.58333 0 0 4.58333 1608.25 957)">T</text><text fill="#1A1A1A" font-family="Arial,Arial_MSFontService,sans-serif" font-weight="400" font-size="10" transform="matrix(4.58333 0 0 4.58333 1640.33 957)">11</text><text fill="#1A1A1A" font-family="Arial,Arial_MSFontService,sans-serif" font-weight="400" font-size="10" transform="matrix(4.58333 0 0 4.58333 1690.75 957)">-</text><text fill="#1A1A1A" font-family="Arial,Arial_MSFontService,sans-serif" font-weight="400" font-size="10" transform="matrix(4.58333 0 0 4.58333 1704.5 957)">like</text></g><g clip-path="url(#clip12)"><path d="M1866.06 850.117 2161.82 850.117 2161.82 982.254 1866.06 982.254Z" stroke="#333333" stroke-width="4.90417" stroke-linecap="round" stroke-linejoin="round" stroke-miterlimit="10" fill="#D9D9D9"/><text fill="#1A1A1A" font-family="Arial,Arial_MSFontService,sans-serif" font-weight="400" font-size="10" transform="matrix(4.58333 0 0 4.58333 1913.08 908)">Mid</text><text fill="#1A1A1A" font-family="Arial,Arial_MSFontService,sans-serif" font-weight="400" font-size="10" transform="matrix(4.58333 0 0 4.58333 1995.58 908)">-</text><text fill="#1A1A1A" font-family="Arial,Arial_MSFontService,sans-serif" font-weight="400" font-size="10" transform="matrix(4.58333 0 0 4.58333 2009.33 908)">level</text><text fill="#1A1A1A" font-family="Arial,Arial_MSFontService,sans-serif" font-weight="400" font-size="10" transform="matrix(4.58333 0 0 4.58333 1926.83 957)">T</text><text fill="#1A1A1A" font-family="Arial,Arial_MSFontService,sans-serif" font-weight="400" font-size="10" transform="matrix(4.58333 0 0 4.58333 1958.92 957)">44</text><text fill="#1A1A1A" font-family="Arial,Arial_MSFontService,sans-serif" font-weight="400" font-size="10" transform="matrix(4.58333 0 0 4.58333 2013.92 957)">-</text><text fill="#1A1A1A" font-family="Arial,Arial_MSFontService,sans-serif" font-weight="400" font-size="10" transform="matrix(4.58333 0 0 4.58333 2027.67 957)">like</text></g><g clip-path="url(#clip13)"><path d="M2186.94 850.117 2482.7 850.117 2482.7 982.254 2186.94 982.254Z" stroke="#333333" stroke-width="4.90417" stroke-linecap="round" stroke-linejoin="round" stroke-miterlimit="10" fill="#D9D9D9"/><text fill="#1A1A1A" font-family="Arial,Arial_MSFontService,sans-serif" font-weight="400" font-size="10" transform="matrix(4.58333 0 0 4.58333 2217.97 908)">Mid</text><text fill="#1A1A1A" font-family="Arial,Arial_MSFontService,sans-serif" font-weight="400" font-size="10" transform="matrix(4.58333 0 0 4.58333 2300.47 908)">-</text><text fill="#1A1A1A" font-family="Arial,Arial_MSFontService,sans-serif" font-weight="400" font-size="10" transform="matrix(4.58333 0 0 4.58333 2314.22 908)">falling</text><text fill="#1A1A1A" font-family="Arial,Arial_MSFontService,sans-serif" font-weight="400" font-size="10" transform="matrix(4.58333 0 0 4.58333 2247.76 957)">T</text><text fill="#1A1A1A" font-family="Arial,Arial_MSFontService,sans-serif" font-weight="400" font-size="10" transform="matrix(4.58333 0 0 4.58333 2279.84 957)">42</text><text fill="#1A1A1A" font-family="Arial,Arial_MSFontService,sans-serif" font-weight="400" font-size="10" transform="matrix(4.58333 0 0 4.58333 2334.84 957)">-</text><text fill="#1A1A1A" font-family="Arial,Arial_MSFontService,sans-serif" font-weight="400" font-size="10" transform="matrix(4.58333 0 0 4.58333 2348.59 957)">like</text></g><g clip-path="url(#clip14)"><path d="M2507.82 850.117 2803.58 850.117 2803.58 982.254 2507.82 982.254Z" stroke="#333333" stroke-width="4.90417" stroke-linecap="round" stroke-linejoin="round" stroke-miterlimit="10" fill="#D9D9D9"/><text fill="#1A1A1A" font-family="Arial,Arial_MSFontService,sans-serif" font-weight="400" font-size="10" transform="matrix(4.58333 0 0 4.58333 2529.68 908)">High</text><text fill="#1A1A1A" font-family="Arial,Arial_MSFontService,sans-serif" font-weight="400" font-size="10" transform="matrix(4.58333 0 0 4.58333 2630.51 908)">-</text><text fill="#1A1A1A" font-family="Arial,Arial_MSFontService,sans-serif" font-weight="400" font-size="10" transform="matrix(4.58333 0 0 4.58333 2644.26 908)">falling</text><text fill="#1A1A1A" font-family="Arial,Arial_MSFontService,sans-serif" font-weight="400" font-size="10" transform="matrix(4.58333 0 0 4.58333 2582.39 957)">T</text><text fill="#1A1A1A" font-family="Arial,Arial_MSFontService,sans-serif" font-weight="400" font-size="10" transform="matrix(4.58333 0 0 4.58333 2614.47 957)">5</text><text fill="#1A1A1A" font-family="Arial,Arial_MSFontService,sans-serif" font-weight="400" font-size="10" transform="matrix(4.58333 0 0 4.58333 2641.97 957)">-</text><text fill="#1A1A1A" font-family="Arial,Arial_MSFontService,sans-serif" font-weight="400" font-size="10" transform="matrix(4.58333 0 0 4.58333 2655.72 957)">like</text></g><g clip-path="url(#clip15)"><text fill="#4D4D4D" font-family="Arial,Arial_MSFontService,sans-serif" font-weight="400" font-size="10" transform="matrix(4.58333 0 0 4.58333 1174.16 1600)">0</text><text fill="#4D4D4D" font-family="Arial,Arial_MSFontService,sans-serif" font-weight="400" font-size="10" transform="matrix(4.58333 0 0 4.58333 1146.66 1486)">20</text><text fill="#4D4D4D" font-family="Arial,Arial_MSFontService,sans-serif" font-weight="400" font-size="10" transform="matrix(4.58333 0 0 4.58333 1146.66 1371)">40</text><text fill="#4D4D4D" font-family="Arial,Arial_MSFontService,sans-serif" font-weight="400" font-size="10" transform="matrix(4.58333 0 0 4.58333 1146.66 1256)">60</text><text fill="#4D4D4D" font-family="Arial,Arial_MSFontService,sans-serif" font-weight="400" font-size="10" transform="matrix(4.58333 0 0 4.58333 1146.66 1142)">80</text><text fill="#4D4D4D" font-family="Arial,Arial_MSFontService,sans-serif" font-weight="400" font-size="10" transform="matrix(4.58333 0 0 4.58333 1119.16 1027)">100</text><text font-family="Arial,Arial_MSFontService,sans-serif" font-weight="400" font-size="10" transform="matrix(2.80648e-16 -4.58333 4.58333 2.80648e-16 1102.93 1492)">% </text><text font-family="Arial,Arial_MSFontService,sans-serif" font-weight="400" font-size="10" transform="matrix(2.80648e-16 -4.58333 4.58333 2.80648e-16 1102.93 1437)">of T</text><text font-family="Arial,Arial_MSFontService,sans-serif" font-weight="400" font-size="10" transform="matrix(2.80648e-16 -4.58333 4.58333 2.80648e-16 1102.93 1350)">5 </text><text font-family="Arial,Arial_MSFontService,sans-serif" font-weight="400" font-size="10" transform="matrix(2.80648e-16 -4.58333 4.58333 2.80648e-16 1102.93 1309)">responses</text><path d="M2853.81 1081.12 3329.88 1081.12 3329.88 1513.46 2853.81 1513.46Z" fill="#FFFFFF"/><text font-family="Arial,Arial_MSFontService,sans-serif" font-weight="400" font-size="10" transform="matrix(4.58333 0 0 4.58333 2878.93 1144)">Condition</text><path d="M2878.93 1171.55 2958.13 1171.55 2958.13 1250.75 2878.93 1250.75Z" fill="#FFFFFF"/><path d="M2882.18 1174.8 2954.88 1174.8 2954.88 1247.49 2882.18 1247.49Z" fill="#C2E699"/><path d="M2878.93 1250.75 2958.13 1250.75 2958.13 1329.95 2878.93 1329.95Z" fill="#FFFFFF"/><path d="M2882.18 1254 2954.88 1254 2954.88 1326.69 2882.18 1326.69Z" fill="#78C679"/><path d="M2878.93 1329.95 2958.13 1329.95 2958.13 1409.15 2878.93 1409.15Z" fill="#FFFFFF"/><path d="M2882.18 1333.2 2954.88 1333.2 2954.88 1405.89 2882.18 1405.89Z" fill="#31A354"/><path d="M2878.93 1409.15 2958.13 1409.15 2958.13 1488.35 2878.93 1488.35Z" fill="#FFFFFF"/><path d="M2882.18 1412.4 2954.88 1412.4 2954.88 1485.09 2882.18 1485.09Z" fill="#006837"/><text font-family="Arial,Arial_MSFontService,sans-serif" font-weight="400" font-size="10" transform="matrix(4.58333 0 0 4.58333 2980.95 1228)">long</text><text font-family="Arial,Arial_MSFontService,sans-serif" font-weight="400" font-size="10" transform="matrix(4.58333 0 0 4.58333 3077.2 1228)">-</text><text font-family="Arial,Arial_MSFontService,sans-serif" font-weight="400" font-size="10" transform="matrix(4.58333 0 0 4.58333 3090.95 1228)">modal</text><text font-family="Arial,Arial_MSFontService,sans-serif" font-weight="400" font-size="10" transform="matrix(4.58333 0 0 4.58333 2980.95 1307)">long</text><text font-family="Arial,Arial_MSFontService,sans-serif" font-weight="400" font-size="10" transform="matrix(4.58333 0 0 4.58333 3077.2 1307)">-</text><text font-family="Arial,Arial_MSFontService,sans-serif" font-weight="400" font-size="10" transform="matrix(4.58333 0 0 4.58333 3090.95 1307)">glottalized</text><text font-family="Arial,Arial_MSFontService,sans-serif" font-weight="400" font-size="10" transform="matrix(4.58333 0 0 4.58333 2980.95 1386)">short</text><text font-family="Arial,Arial_MSFontService,sans-serif" font-weight="400" font-size="10" transform="matrix(4.58333 0 0 4.58333 3081.79 1386)">-</text><text font-family="Arial,Arial_MSFontService,sans-serif" font-weight="400" font-size="10" transform="matrix(4.58333 0 0 4.58333 3095.54 1386)">modal</text><text font-family="Arial,Arial_MSFontService,sans-serif" font-weight="400" font-size="10" transform="matrix(4.58333 0 0 4.58333 2980.95 1465)">short</text><text font-family="Arial,Arial_MSFontService,sans-serif" font-weight="400" font-size="10" transform="matrix(4.58333 0 0 4.58333 3081.79 1465)">-</text><text font-family="Arial,Arial_MSFontService,sans-serif" font-weight="400" font-size="10" transform="matrix(4.58333 0 0 4.58333 3095.54 1465)">glottalized</text></g></g></g></g><rect x="2015" y="1120" width="138" height="470" fill="#FFFFFF"/><rect x="1210" y="825" width="640" height="825" fill="#FFFFFF"/><rect x="2182" y="812" width="640" height="825" fill="#FFFFFF"/><rect x="2876" y="1331" width="464" height="163" fill="#FFFFFF"/></g></svg>